<?xml version="1.0" encoding="utf-8" standalone="no"?>
<!DOCTYPE svg PUBLIC "-//W3C//DTD SVG 1.1//EN"
  "http://www.w3.org/Graphics/SVG/1.1/DTD/svg11.dtd">
<!-- Created with matplotlib (https://matplotlib.org/) -->
<svg height="648pt" version="1.1" viewBox="0 0 864 648" width="864pt" xmlns="http://www.w3.org/2000/svg" xmlns:xlink="http://www.w3.org/1999/xlink">
 <defs>
  <style type="text/css">
*{stroke-linecap:butt;stroke-linejoin:round;}
  </style>
 </defs>
 <g id="figure_1">
  <g id="patch_1">
   <path d="M 0 648 
L 864 648 
L 864 0 
L 0 0 
z
" style="fill:#ffffff;"/>
  </g>
  <g id="axes_1">
   <g id="patch_2">
    <path d="M 62.05 290.61804 
L 404.338194 290.61804 
L 404.338194 28.3 
L 62.05 28.3 
z
" style="fill:#ffffff;"/>
   </g>
   <g id="matplotlib.axis_1">
    <g id="xtick_1">
     <g id="line2d_1">
      <defs>
       <path d="M 0 0 
L 0 -6 
" id="mda7bc63e08" style="stroke:#ffffff;stroke-width:1.25;"/>
      </defs>
      <g>
       <use style="fill:#ffffff;stroke:#ffffff;stroke-width:1.25;" x="233.194097" xlink:href="#mda7bc63e08" y="290.61804"/>
      </g>
     </g>
     <g id="line2d_2">
      <defs>
       <path d="M 0 0 
L 0 6 
" id="m7d7dc681c7" style="stroke:#ffffff;stroke-width:1.25;"/>
      </defs>
      <g>
       <use style="fill:#ffffff;stroke:#ffffff;stroke-width:1.25;" x="233.194097" xlink:href="#m7d7dc681c7" y="28.3"/>
      </g>
     </g>
     <g id="text_1">
      <!-- FreeSolv -->
      <defs>
       <path d="M 9.8125 72.90625 
L 51.703125 72.90625 
L 51.703125 64.59375 
L 19.671875 64.59375 
L 19.671875 43.109375 
L 48.578125 43.109375 
L 48.578125 34.8125 
L 19.671875 34.8125 
L 19.671875 0 
L 9.8125 0 
z
" id="DejaVuSans-70"/>
       <path d="M 41.109375 46.296875 
Q 39.59375 47.171875 37.8125 47.578125 
Q 36.03125 48 33.890625 48 
Q 26.265625 48 22.1875 43.046875 
Q 18.109375 38.09375 18.109375 28.8125 
L 18.109375 0 
L 9.078125 0 
L 9.078125 54.6875 
L 18.109375 54.6875 
L 18.109375 46.1875 
Q 20.953125 51.171875 25.484375 53.578125 
Q 30.03125 56 36.53125 56 
Q 37.453125 56 38.578125 55.875 
Q 39.703125 55.765625 41.0625 55.515625 
z
" id="DejaVuSans-114"/>
       <path d="M 56.203125 29.59375 
L 56.203125 25.203125 
L 14.890625 25.203125 
Q 15.484375 15.921875 20.484375 11.0625 
Q 25.484375 6.203125 34.421875 6.203125 
Q 39.59375 6.203125 44.453125 7.46875 
Q 49.3125 8.734375 54.109375 11.28125 
L 54.109375 2.78125 
Q 49.265625 0.734375 44.1875 -0.34375 
Q 39.109375 -1.421875 33.890625 -1.421875 
Q 20.796875 -1.421875 13.15625 6.1875 
Q 5.515625 13.8125 5.515625 26.8125 
Q 5.515625 40.234375 12.765625 48.109375 
Q 20.015625 56 32.328125 56 
Q 43.359375 56 49.78125 48.890625 
Q 56.203125 41.796875 56.203125 29.59375 
z
M 47.21875 32.234375 
Q 47.125 39.59375 43.09375 43.984375 
Q 39.0625 48.390625 32.421875 48.390625 
Q 24.90625 48.390625 20.390625 44.140625 
Q 15.875 39.890625 15.1875 32.171875 
z
" id="DejaVuSans-101"/>
       <path d="M 53.515625 70.515625 
L 53.515625 60.890625 
Q 47.90625 63.578125 42.921875 64.890625 
Q 37.9375 66.21875 33.296875 66.21875 
Q 25.25 66.21875 20.875 63.09375 
Q 16.5 59.96875 16.5 54.203125 
Q 16.5 49.359375 19.40625 46.890625 
Q 22.3125 44.4375 30.421875 42.921875 
L 36.375 41.703125 
Q 47.40625 39.59375 52.65625 34.296875 
Q 57.90625 29 57.90625 20.125 
Q 57.90625 9.515625 50.796875 4.046875 
Q 43.703125 -1.421875 29.984375 -1.421875 
Q 24.8125 -1.421875 18.96875 -0.25 
Q 13.140625 0.921875 6.890625 3.21875 
L 6.890625 13.375 
Q 12.890625 10.015625 18.65625 8.296875 
Q 24.421875 6.59375 29.984375 6.59375 
Q 38.421875 6.59375 43.015625 9.90625 
Q 47.609375 13.234375 47.609375 19.390625 
Q 47.609375 24.75 44.3125 27.78125 
Q 41.015625 30.8125 33.5 32.328125 
L 27.484375 33.5 
Q 16.453125 35.6875 11.515625 40.375 
Q 6.59375 45.0625 6.59375 53.421875 
Q 6.59375 63.09375 13.40625 68.65625 
Q 20.21875 74.21875 32.171875 74.21875 
Q 37.3125 74.21875 42.625 73.28125 
Q 47.953125 72.359375 53.515625 70.515625 
z
" id="DejaVuSans-83"/>
       <path d="M 30.609375 48.390625 
Q 23.390625 48.390625 19.1875 42.75 
Q 14.984375 37.109375 14.984375 27.296875 
Q 14.984375 17.484375 19.15625 11.84375 
Q 23.34375 6.203125 30.609375 6.203125 
Q 37.796875 6.203125 41.984375 11.859375 
Q 46.1875 17.53125 46.1875 27.296875 
Q 46.1875 37.015625 41.984375 42.703125 
Q 37.796875 48.390625 30.609375 48.390625 
z
M 30.609375 56 
Q 42.328125 56 49.015625 48.375 
Q 55.71875 40.765625 55.71875 27.296875 
Q 55.71875 13.875 49.015625 6.21875 
Q 42.328125 -1.421875 30.609375 -1.421875 
Q 18.84375 -1.421875 12.171875 6.21875 
Q 5.515625 13.875 5.515625 27.296875 
Q 5.515625 40.765625 12.171875 48.375 
Q 18.84375 56 30.609375 56 
z
" id="DejaVuSans-111"/>
       <path d="M 9.421875 75.984375 
L 18.40625 75.984375 
L 18.40625 0 
L 9.421875 0 
z
" id="DejaVuSans-108"/>
       <path d="M 2.984375 54.6875 
L 12.5 54.6875 
L 29.59375 8.796875 
L 46.6875 54.6875 
L 56.203125 54.6875 
L 35.6875 0 
L 23.484375 0 
z
" id="DejaVuSans-118"/>
      </defs>
      <g style="fill:#262626;" transform="translate(202.221191 21.826047)scale(0.143 -0.143)">
       <use xlink:href="#DejaVuSans-70"/>
       <use x="57.410156" xlink:href="#DejaVuSans-114"/>
       <use x="98.492188" xlink:href="#DejaVuSans-101"/>
       <use x="160.015625" xlink:href="#DejaVuSans-101"/>
       <use x="221.539062" xlink:href="#DejaVuSans-83"/>
       <use x="285.015625" xlink:href="#DejaVuSans-111"/>
       <use x="346.197266" xlink:href="#DejaVuSans-108"/>
       <use x="373.980469" xlink:href="#DejaVuSans-118"/>
      </g>
     </g>
    </g>
   </g>
   <g id="matplotlib.axis_2">
    <g id="ytick_1">
     <g id="text_2">
      <!-- 0.7 -->
      <defs>
       <path d="M 31.78125 66.40625 
Q 24.171875 66.40625 20.328125 58.90625 
Q 16.5 51.421875 16.5 36.375 
Q 16.5 21.390625 20.328125 13.890625 
Q 24.171875 6.390625 31.78125 6.390625 
Q 39.453125 6.390625 43.28125 13.890625 
Q 47.125 21.390625 47.125 36.375 
Q 47.125 51.421875 43.28125 58.90625 
Q 39.453125 66.40625 31.78125 66.40625 
z
M 31.78125 74.21875 
Q 44.046875 74.21875 50.515625 64.515625 
Q 56.984375 54.828125 56.984375 36.375 
Q 56.984375 17.96875 50.515625 8.265625 
Q 44.046875 -1.421875 31.78125 -1.421875 
Q 19.53125 -1.421875 13.0625 8.265625 
Q 6.59375 17.96875 6.59375 36.375 
Q 6.59375 54.828125 13.0625 64.515625 
Q 19.53125 74.21875 31.78125 74.21875 
z
" id="DejaVuSans-48"/>
       <path d="M 10.6875 12.40625 
L 21 12.40625 
L 21 0 
L 10.6875 0 
z
" id="DejaVuSans-46"/>
       <path d="M 8.203125 72.90625 
L 55.078125 72.90625 
L 55.078125 68.703125 
L 28.609375 0 
L 18.3125 0 
L 43.21875 64.59375 
L 8.203125 64.59375 
z
" id="DejaVuSans-55"/>
      </defs>
      <g style="fill:#262626;" transform="translate(29.808531 257.689416)scale(0.143 -0.143)">
       <use xlink:href="#DejaVuSans-48"/>
       <use x="63.623047" xlink:href="#DejaVuSans-46"/>
       <use x="95.410156" xlink:href="#DejaVuSans-55"/>
      </g>
     </g>
    </g>
    <g id="ytick_2">
     <g id="text_3">
      <!-- 0.8 -->
      <defs>
       <path d="M 31.78125 34.625 
Q 24.75 34.625 20.71875 30.859375 
Q 16.703125 27.09375 16.703125 20.515625 
Q 16.703125 13.921875 20.71875 10.15625 
Q 24.75 6.390625 31.78125 6.390625 
Q 38.8125 6.390625 42.859375 10.171875 
Q 46.921875 13.96875 46.921875 20.515625 
Q 46.921875 27.09375 42.890625 30.859375 
Q 38.875 34.625 31.78125 34.625 
z
M 21.921875 38.8125 
Q 15.578125 40.375 12.03125 44.71875 
Q 8.5 49.078125 8.5 55.328125 
Q 8.5 64.0625 14.71875 69.140625 
Q 20.953125 74.21875 31.78125 74.21875 
Q 42.671875 74.21875 48.875 69.140625 
Q 55.078125 64.0625 55.078125 55.328125 
Q 55.078125 49.078125 51.53125 44.71875 
Q 48 40.375 41.703125 38.8125 
Q 48.828125 37.15625 52.796875 32.3125 
Q 56.78125 27.484375 56.78125 20.515625 
Q 56.78125 9.90625 50.3125 4.234375 
Q 43.84375 -1.421875 31.78125 -1.421875 
Q 19.734375 -1.421875 13.25 4.234375 
Q 6.78125 9.90625 6.78125 20.515625 
Q 6.78125 27.484375 10.78125 32.3125 
Q 14.796875 37.15625 21.921875 38.8125 
z
M 18.3125 54.390625 
Q 18.3125 48.734375 21.84375 45.5625 
Q 25.390625 42.390625 31.78125 42.390625 
Q 38.140625 42.390625 41.71875 45.5625 
Q 45.3125 48.734375 45.3125 54.390625 
Q 45.3125 60.0625 41.71875 63.234375 
Q 38.140625 66.40625 31.78125 66.40625 
Q 25.390625 66.40625 21.84375 63.234375 
Q 18.3125 60.0625 18.3125 54.390625 
z
" id="DejaVuSans-56"/>
      </defs>
      <g style="fill:#262626;" transform="translate(29.808531 217.971219)scale(0.143 -0.143)">
       <use xlink:href="#DejaVuSans-48"/>
       <use x="63.623047" xlink:href="#DejaVuSans-46"/>
       <use x="95.410156" xlink:href="#DejaVuSans-56"/>
      </g>
     </g>
    </g>
    <g id="ytick_3">
     <g id="text_4">
      <!-- 0.9 -->
      <defs>
       <path d="M 10.984375 1.515625 
L 10.984375 10.5 
Q 14.703125 8.734375 18.5 7.8125 
Q 22.3125 6.890625 25.984375 6.890625 
Q 35.75 6.890625 40.890625 13.453125 
Q 46.046875 20.015625 46.78125 33.40625 
Q 43.953125 29.203125 39.59375 26.953125 
Q 35.25 24.703125 29.984375 24.703125 
Q 19.046875 24.703125 12.671875 31.3125 
Q 6.296875 37.9375 6.296875 49.421875 
Q 6.296875 60.640625 12.9375 67.421875 
Q 19.578125 74.21875 30.609375 74.21875 
Q 43.265625 74.21875 49.921875 64.515625 
Q 56.59375 54.828125 56.59375 36.375 
Q 56.59375 19.140625 48.40625 8.859375 
Q 40.234375 -1.421875 26.421875 -1.421875 
Q 22.703125 -1.421875 18.890625 -0.6875 
Q 15.09375 0.046875 10.984375 1.515625 
z
M 30.609375 32.421875 
Q 37.25 32.421875 41.125 36.953125 
Q 45.015625 41.5 45.015625 49.421875 
Q 45.015625 57.28125 41.125 61.84375 
Q 37.25 66.40625 30.609375 66.40625 
Q 23.96875 66.40625 20.09375 61.84375 
Q 16.21875 57.28125 16.21875 49.421875 
Q 16.21875 41.5 20.09375 36.953125 
Q 23.96875 32.421875 30.609375 32.421875 
z
" id="DejaVuSans-57"/>
      </defs>
      <g style="fill:#262626;" transform="translate(29.808531 178.253022)scale(0.143 -0.143)">
       <use xlink:href="#DejaVuSans-48"/>
       <use x="63.623047" xlink:href="#DejaVuSans-46"/>
       <use x="95.410156" xlink:href="#DejaVuSans-57"/>
      </g>
     </g>
    </g>
    <g id="ytick_4">
     <g id="text_5">
      <!-- 1.0 -->
      <defs>
       <path d="M 12.40625 8.296875 
L 28.515625 8.296875 
L 28.515625 63.921875 
L 10.984375 60.40625 
L 10.984375 69.390625 
L 28.421875 72.90625 
L 38.28125 72.90625 
L 38.28125 8.296875 
L 54.390625 8.296875 
L 54.390625 0 
L 12.40625 0 
z
" id="DejaVuSans-49"/>
      </defs>
      <g style="fill:#262626;" transform="translate(29.808531 138.534825)scale(0.143 -0.143)">
       <use xlink:href="#DejaVuSans-49"/>
       <use x="63.623047" xlink:href="#DejaVuSans-46"/>
       <use x="95.410156" xlink:href="#DejaVuSans-48"/>
      </g>
     </g>
    </g>
    <g id="ytick_5">
     <g id="text_6">
      <!-- 1.1 -->
      <g style="fill:#262626;" transform="translate(29.808531 98.816628)scale(0.143 -0.143)">
       <use xlink:href="#DejaVuSans-49"/>
       <use x="63.623047" xlink:href="#DejaVuSans-46"/>
       <use x="95.410156" xlink:href="#DejaVuSans-49"/>
      </g>
     </g>
    </g>
    <g id="ytick_6">
     <g id="text_7">
      <!-- 1.2 -->
      <defs>
       <path d="M 19.1875 8.296875 
L 53.609375 8.296875 
L 53.609375 0 
L 7.328125 0 
L 7.328125 8.296875 
Q 12.9375 14.109375 22.625 23.890625 
Q 32.328125 33.6875 34.8125 36.53125 
Q 39.546875 41.84375 41.421875 45.53125 
Q 43.3125 49.21875 43.3125 52.78125 
Q 43.3125 58.59375 39.234375 62.25 
Q 35.15625 65.921875 28.609375 65.921875 
Q 23.96875 65.921875 18.8125 64.3125 
Q 13.671875 62.703125 7.8125 59.421875 
L 7.8125 69.390625 
Q 13.765625 71.78125 18.9375 73 
Q 24.125 74.21875 28.421875 74.21875 
Q 39.75 74.21875 46.484375 68.546875 
Q 53.21875 62.890625 53.21875 53.421875 
Q 53.21875 48.921875 51.53125 44.890625 
Q 49.859375 40.875 45.40625 35.40625 
Q 44.1875 33.984375 37.640625 27.21875 
Q 31.109375 20.453125 19.1875 8.296875 
z
" id="DejaVuSans-50"/>
      </defs>
      <g style="fill:#262626;" transform="translate(29.808531 59.098431)scale(0.143 -0.143)">
       <use xlink:href="#DejaVuSans-49"/>
       <use x="63.623047" xlink:href="#DejaVuSans-46"/>
       <use x="95.410156" xlink:href="#DejaVuSans-50"/>
      </g>
     </g>
    </g>
    <g id="text_8">
     <!-- Test RMSE -->
     <defs>
      <path d="M -0.296875 72.90625 
L 61.375 72.90625 
L 61.375 64.59375 
L 35.5 64.59375 
L 35.5 0 
L 25.59375 0 
L 25.59375 64.59375 
L -0.296875 64.59375 
z
" id="DejaVuSans-84"/>
      <path d="M 44.28125 53.078125 
L 44.28125 44.578125 
Q 40.484375 46.53125 36.375 47.5 
Q 32.28125 48.484375 27.875 48.484375 
Q 21.1875 48.484375 17.84375 46.4375 
Q 14.5 44.390625 14.5 40.28125 
Q 14.5 37.15625 16.890625 35.375 
Q 19.28125 33.59375 26.515625 31.984375 
L 29.59375 31.296875 
Q 39.15625 29.25 43.1875 25.515625 
Q 47.21875 21.78125 47.21875 15.09375 
Q 47.21875 7.46875 41.1875 3.015625 
Q 35.15625 -1.421875 24.609375 -1.421875 
Q 20.21875 -1.421875 15.453125 -0.5625 
Q 10.6875 0.296875 5.421875 2 
L 5.421875 11.28125 
Q 10.40625 8.6875 15.234375 7.390625 
Q 20.0625 6.109375 24.8125 6.109375 
Q 31.15625 6.109375 34.5625 8.28125 
Q 37.984375 10.453125 37.984375 14.40625 
Q 37.984375 18.0625 35.515625 20.015625 
Q 33.0625 21.96875 24.703125 23.78125 
L 21.578125 24.515625 
Q 13.234375 26.265625 9.515625 29.90625 
Q 5.8125 33.546875 5.8125 39.890625 
Q 5.8125 47.609375 11.28125 51.796875 
Q 16.75 56 26.8125 56 
Q 31.78125 56 36.171875 55.265625 
Q 40.578125 54.546875 44.28125 53.078125 
z
" id="DejaVuSans-115"/>
      <path d="M 18.3125 70.21875 
L 18.3125 54.6875 
L 36.8125 54.6875 
L 36.8125 47.703125 
L 18.3125 47.703125 
L 18.3125 18.015625 
Q 18.3125 11.328125 20.140625 9.421875 
Q 21.96875 7.515625 27.59375 7.515625 
L 36.8125 7.515625 
L 36.8125 0 
L 27.59375 0 
Q 17.1875 0 13.234375 3.875 
Q 9.28125 7.765625 9.28125 18.015625 
L 9.28125 47.703125 
L 2.6875 47.703125 
L 2.6875 54.6875 
L 9.28125 54.6875 
L 9.28125 70.21875 
z
" id="DejaVuSans-116"/>
      <path id="DejaVuSans-32"/>
      <path d="M 44.390625 34.1875 
Q 47.5625 33.109375 50.5625 29.59375 
Q 53.5625 26.078125 56.59375 19.921875 
L 66.609375 0 
L 56 0 
L 46.6875 18.703125 
Q 43.0625 26.03125 39.671875 28.421875 
Q 36.28125 30.8125 30.421875 30.8125 
L 19.671875 30.8125 
L 19.671875 0 
L 9.8125 0 
L 9.8125 72.90625 
L 32.078125 72.90625 
Q 44.578125 72.90625 50.734375 67.671875 
Q 56.890625 62.453125 56.890625 51.90625 
Q 56.890625 45.015625 53.6875 40.46875 
Q 50.484375 35.9375 44.390625 34.1875 
z
M 19.671875 64.796875 
L 19.671875 38.921875 
L 32.078125 38.921875 
Q 39.203125 38.921875 42.84375 42.21875 
Q 46.484375 45.515625 46.484375 51.90625 
Q 46.484375 58.296875 42.84375 61.546875 
Q 39.203125 64.796875 32.078125 64.796875 
z
" id="DejaVuSans-82"/>
      <path d="M 9.8125 72.90625 
L 24.515625 72.90625 
L 43.109375 23.296875 
L 61.8125 72.90625 
L 76.515625 72.90625 
L 76.515625 0 
L 66.890625 0 
L 66.890625 64.015625 
L 48.09375 14.015625 
L 38.1875 14.015625 
L 19.390625 64.015625 
L 19.390625 0 
L 9.8125 0 
z
" id="DejaVuSans-77"/>
      <path d="M 9.8125 72.90625 
L 55.90625 72.90625 
L 55.90625 64.59375 
L 19.671875 64.59375 
L 19.671875 43.015625 
L 54.390625 43.015625 
L 54.390625 34.71875 
L 19.671875 34.71875 
L 19.671875 8.296875 
L 56.78125 8.296875 
L 56.78125 0 
L 9.8125 0 
z
" id="DejaVuSans-69"/>
     </defs>
     <g style="fill:#262626;" transform="translate(22.564219 200.632051)rotate(-90)scale(0.156 -0.156)">
      <use xlink:href="#DejaVuSans-84"/>
      <use x="60.818359" xlink:href="#DejaVuSans-101"/>
      <use x="122.341797" xlink:href="#DejaVuSans-115"/>
      <use x="174.441406" xlink:href="#DejaVuSans-116"/>
      <use x="213.650391" xlink:href="#DejaVuSans-32"/>
      <use x="245.4375" xlink:href="#DejaVuSans-82"/>
      <use x="314.919922" xlink:href="#DejaVuSans-77"/>
      <use x="401.199219" xlink:href="#DejaVuSans-83"/>
      <use x="464.675781" xlink:href="#DejaVuSans-69"/>
     </g>
    </g>
   </g>
   <g id="patch_3">
    <path clip-path="url(#p5a95ddb069)" d="M 117.774518 178.875986 
L 211.698399 178.875986 
L 211.698399 100.487416 
L 117.774518 100.487416 
L 117.774518 178.875986 
z
" style="fill:#3274a1;stroke:#3f3f3f;stroke-linejoin:miter;stroke-width:1.5;"/>
   </g>
   <g id="patch_4">
    <path clip-path="url(#p5a95ddb069)" d="M 254.689796 182.318067 
L 348.613676 182.318067 
L 348.613676 105.373107 
L 254.689796 105.373107 
L 254.689796 182.318067 
z
" style="fill:#e1812c;stroke:#3f3f3f;stroke-linejoin:miter;stroke-width:1.5;"/>
   </g>
   <g id="PathCollection_1"/>
   <g id="PathCollection_2"/>
   <g id="patch_5">
    <path clip-path="url(#p5a95ddb069)" d="M 233.194097 530.283913 
L 233.194097 530.283913 
L 233.194097 530.283913 
L 233.194097 530.283913 
z
" style="fill:#3274a1;stroke:#3f3f3f;stroke-linejoin:miter;stroke-width:0.75;"/>
   </g>
   <g id="patch_6">
    <path clip-path="url(#p5a95ddb069)" d="M 233.194097 530.283913 
L 233.194097 530.283913 
L 233.194097 530.283913 
L 233.194097 530.283913 
z
" style="fill:#e1812c;stroke:#3f3f3f;stroke-linejoin:miter;stroke-width:0.75;"/>
   </g>
   <g id="line2d_3">
    <path clip-path="url(#p5a95ddb069)" d="M 164.736458 178.875986 
L 164.736458 252.38427 
" style="fill:none;stroke:#3f3f3f;stroke-linecap:round;stroke-width:1.5;"/>
   </g>
   <g id="line2d_4">
    <path clip-path="url(#p5a95ddb069)" d="M 164.736458 100.487416 
L 164.736458 43.659566 
" style="fill:none;stroke:#3f3f3f;stroke-linecap:round;stroke-width:1.5;"/>
   </g>
   <g id="line2d_5">
    <path clip-path="url(#p5a95ddb069)" d="M 131.192215 252.38427 
L 198.280701 252.38427 
" style="fill:none;stroke:#3f3f3f;stroke-linecap:round;stroke-width:1.5;"/>
   </g>
   <g id="line2d_6">
    <path clip-path="url(#p5a95ddb069)" d="M 131.192215 43.659566 
L 198.280701 43.659566 
" style="fill:none;stroke:#3f3f3f;stroke-linecap:round;stroke-width:1.5;"/>
   </g>
   <g id="line2d_7"/>
   <g id="line2d_8">
    <path clip-path="url(#p5a95ddb069)" d="M 301.651736 182.318067 
L 301.651736 275.207486 
" style="fill:none;stroke:#3f3f3f;stroke-linecap:round;stroke-width:1.5;"/>
   </g>
   <g id="line2d_9">
    <path clip-path="url(#p5a95ddb069)" d="M 301.651736 105.373107 
L 301.651736 45.10927 
" style="fill:none;stroke:#3f3f3f;stroke-linecap:round;stroke-width:1.5;"/>
   </g>
   <g id="line2d_10">
    <path clip-path="url(#p5a95ddb069)" d="M 268.107493 275.207486 
L 335.195979 275.207486 
" style="fill:none;stroke:#3f3f3f;stroke-linecap:round;stroke-width:1.5;"/>
   </g>
   <g id="line2d_11">
    <path clip-path="url(#p5a95ddb069)" d="M 268.107493 45.10927 
L 335.195979 45.10927 
" style="fill:none;stroke:#3f3f3f;stroke-linecap:round;stroke-width:1.5;"/>
   </g>
   <g id="line2d_12"/>
   <g id="line2d_13">
    <path clip-path="url(#p5a95ddb069)" d="M 117.774518 142.137988 
L 211.698399 142.137988 
" style="fill:none;stroke:#3f3f3f;stroke-linecap:round;stroke-width:1.5;"/>
   </g>
   <g id="line2d_14">
    <path clip-path="url(#p5a95ddb069)" d="M 254.689796 156.665972 
L 348.613676 156.665972 
" style="fill:none;stroke:#3f3f3f;stroke-linecap:round;stroke-width:1.5;"/>
   </g>
   <g id="patch_7">
    <path d="M 62.05 290.61804 
L 62.05 28.3 
" style="fill:none;stroke:#262626;stroke-linecap:square;stroke-linejoin:miter;stroke-width:1.25;"/>
   </g>
   <g id="patch_8">
    <path d="M 404.338194 290.61804 
L 404.338194 28.3 
" style="fill:none;stroke:#262626;stroke-linecap:square;stroke-linejoin:miter;stroke-width:1.25;"/>
   </g>
   <g id="patch_9">
    <path d="M 62.05 290.61804 
L 404.338194 290.61804 
" style="fill:none;stroke:#262626;stroke-linecap:square;stroke-linejoin:miter;stroke-width:1.25;"/>
   </g>
   <g id="patch_10">
    <path d="M 62.05 28.3 
L 404.338194 28.3 
" style="fill:none;stroke:#262626;stroke-linecap:square;stroke-linejoin:miter;stroke-width:1.25;"/>
   </g>
   <g id="PathCollection_3">
    <defs>
     <path d="M 0 3 
C 0.795609 3 1.55874 2.683901 2.12132 2.12132 
C 2.683901 1.55874 3 0.795609 3 0 
C 3 -0.795609 2.683901 -1.55874 2.12132 -2.12132 
C 1.55874 -2.683901 0.795609 -3 0 -3 
C -0.795609 -3 -1.55874 -2.683901 -2.12132 -2.12132 
C -2.683901 -1.55874 -3 -0.795609 -3 0 
C -3 0.795609 -2.683901 1.55874 -2.12132 2.12132 
C -1.55874 2.683901 -0.795609 3 0 3 
z
" id="C0_0_bc4a48ead5"/>
    </defs>
    <g clip-path="url(#p5a95ddb069)">
     <use style="fill:#1f77b4;stroke:#3f3f3f;" x="148.714588" xlink:href="#C0_0_bc4a48ead5" y="124.583979"/>
    </g>
    <g clip-path="url(#p5a95ddb069)">
     <use style="fill:#1f77b4;stroke:#3f3f3f;" x="161.928227" xlink:href="#C0_0_bc4a48ead5" y="43.659566"/>
    </g>
    <g clip-path="url(#p5a95ddb069)">
     <use style="fill:#1f77b4;stroke:#3f3f3f;" x="167.563445" xlink:href="#C0_0_bc4a48ead5" y="164.761252"/>
    </g>
    <g clip-path="url(#p5a95ddb069)">
     <use style="fill:#1f77b4;stroke:#3f3f3f;" x="149.065969" xlink:href="#C0_0_bc4a48ead5" y="92.455228"/>
    </g>
    <g clip-path="url(#p5a95ddb069)">
     <use style="fill:#1f77b4;stroke:#3f3f3f;" x="167.789323" xlink:href="#C0_0_bc4a48ead5" y="183.580897"/>
    </g>
    <g clip-path="url(#p5a95ddb069)">
     <use style="fill:#1f77b4;stroke:#3f3f3f;" x="164.083092" xlink:href="#C0_0_bc4a48ead5" y="54.703857"/>
    </g>
    <g clip-path="url(#p5a95ddb069)">
     <use style="fill:#1f77b4;stroke:#3f3f3f;" x="179.887437" xlink:href="#C0_0_bc4a48ead5" y="214.275263"/>
    </g>
    <g clip-path="url(#p5a95ddb069)">
     <use style="fill:#1f77b4;stroke:#3f3f3f;" x="165.728069" xlink:href="#C0_0_bc4a48ead5" y="252.38427"/>
    </g>
    <g clip-path="url(#p5a95ddb069)">
     <use style="fill:#1f77b4;stroke:#3f3f3f;" x="149.99607" xlink:href="#C0_0_bc4a48ead5" y="150.527055"/>
    </g>
    <g clip-path="url(#p5a95ddb069)">
     <use style="fill:#1f77b4;stroke:#3f3f3f;" x="159.136863" xlink:href="#C0_0_bc4a48ead5" y="133.748922"/>
    </g>
   </g>
   <g id="PathCollection_4">
    <defs>
     <path d="M 0 3 
C 0.795609 3 1.55874 2.683901 2.12132 2.12132 
C 2.683901 1.55874 3 0.795609 3 0 
C 3 -0.795609 2.683901 -1.55874 2.12132 -2.12132 
C 1.55874 -2.683901 0.795609 -3 0 -3 
C -0.795609 -3 -1.55874 -2.683901 -2.12132 -2.12132 
C -2.683901 -1.55874 -3 -0.795609 -3 0 
C -3 0.795609 -2.683901 1.55874 -2.12132 2.12132 
C -1.55874 2.683901 -0.795609 3 0 3 
z
" id="C1_0_60fb22eadb"/>
    </defs>
    <g clip-path="url(#p5a95ddb069)">
     <use style="fill:#ff7f0e;stroke:#3f3f3f;" x="285.504984" xlink:href="#C1_0_60fb22eadb" y="127.761805"/>
    </g>
    <g clip-path="url(#p5a95ddb069)">
     <use style="fill:#ff7f0e;stroke:#3f3f3f;" x="315.192013" xlink:href="#C1_0_60fb22eadb" y="45.10927"/>
    </g>
    <g clip-path="url(#p5a95ddb069)">
     <use style="fill:#ff7f0e;stroke:#3f3f3f;" x="308.795778" xlink:href="#C1_0_60fb22eadb" y="155.334644"/>
    </g>
    <g clip-path="url(#p5a95ddb069)">
     <use style="fill:#ff7f0e;stroke:#3f3f3f;" x="308.183663" xlink:href="#C1_0_60fb22eadb" y="97.910207"/>
    </g>
    <g clip-path="url(#p5a95ddb069)">
     <use style="fill:#ff7f0e;stroke:#3f3f3f;" x="309.897339" xlink:href="#C1_0_60fb22eadb" y="186.785516"/>
    </g>
    <g clip-path="url(#p5a95ddb069)">
     <use style="fill:#ff7f0e;stroke:#3f3f3f;" x="298.488859" xlink:href="#C1_0_60fb22eadb" y="59.042547"/>
    </g>
    <g clip-path="url(#p5a95ddb069)">
     <use style="fill:#ff7f0e;stroke:#3f3f3f;" x="308.341865" xlink:href="#C1_0_60fb22eadb" y="229.570979"/>
    </g>
    <g clip-path="url(#p5a95ddb069)">
     <use style="fill:#ff7f0e;stroke:#3f3f3f;" x="299.361604" xlink:href="#C1_0_60fb22eadb" y="275.207486"/>
    </g>
    <g clip-path="url(#p5a95ddb069)">
     <use style="fill:#ff7f0e;stroke:#3f3f3f;" x="316.230354" xlink:href="#C1_0_60fb22eadb" y="168.915719"/>
    </g>
    <g clip-path="url(#p5a95ddb069)">
     <use style="fill:#ff7f0e;stroke:#3f3f3f;" x="313.052658" xlink:href="#C1_0_60fb22eadb" y="157.9973"/>
    </g>
   </g>
   <g id="legend_1">
    <g id="patch_11">
     <path d="M 72.13 283.41804 
L 245.66125 283.41804 
Q 248.54125 283.41804 248.54125 280.53804 
L 248.54125 239.70504 
Q 248.54125 236.82504 245.66125 236.82504 
L 72.13 236.82504 
Q 69.25 236.82504 69.25 239.70504 
L 69.25 280.53804 
Q 69.25 283.41804 72.13 283.41804 
z
" style="fill:#ffffff;opacity:0.8;stroke:#cccccc;stroke-linejoin:miter;"/>
    </g>
    <g id="patch_12">
     <path d="M 75.01 253.52679 
L 103.81 253.52679 
L 103.81 243.44679 
L 75.01 243.44679 
z
" style="fill:#3274a1;stroke:#3f3f3f;stroke-linejoin:miter;stroke-width:0.75;"/>
    </g>
    <g id="text_9">
     <!-- MolMapNet-OOTB -->
     <defs>
      <path d="M 34.28125 27.484375 
Q 23.390625 27.484375 19.1875 25 
Q 14.984375 22.515625 14.984375 16.5 
Q 14.984375 11.71875 18.140625 8.90625 
Q 21.296875 6.109375 26.703125 6.109375 
Q 34.1875 6.109375 38.703125 11.40625 
Q 43.21875 16.703125 43.21875 25.484375 
L 43.21875 27.484375 
z
M 52.203125 31.203125 
L 52.203125 0 
L 43.21875 0 
L 43.21875 8.296875 
Q 40.140625 3.328125 35.546875 0.953125 
Q 30.953125 -1.421875 24.3125 -1.421875 
Q 15.921875 -1.421875 10.953125 3.296875 
Q 6 8.015625 6 15.921875 
Q 6 25.140625 12.171875 29.828125 
Q 18.359375 34.515625 30.609375 34.515625 
L 43.21875 34.515625 
L 43.21875 35.40625 
Q 43.21875 41.609375 39.140625 45 
Q 35.0625 48.390625 27.6875 48.390625 
Q 23 48.390625 18.546875 47.265625 
Q 14.109375 46.140625 10.015625 43.890625 
L 10.015625 52.203125 
Q 14.9375 54.109375 19.578125 55.046875 
Q 24.21875 56 28.609375 56 
Q 40.484375 56 46.34375 49.84375 
Q 52.203125 43.703125 52.203125 31.203125 
z
" id="DejaVuSans-97"/>
      <path d="M 18.109375 8.203125 
L 18.109375 -20.796875 
L 9.078125 -20.796875 
L 9.078125 54.6875 
L 18.109375 54.6875 
L 18.109375 46.390625 
Q 20.953125 51.265625 25.265625 53.625 
Q 29.59375 56 35.59375 56 
Q 45.5625 56 51.78125 48.09375 
Q 58.015625 40.1875 58.015625 27.296875 
Q 58.015625 14.40625 51.78125 6.484375 
Q 45.5625 -1.421875 35.59375 -1.421875 
Q 29.59375 -1.421875 25.265625 0.953125 
Q 20.953125 3.328125 18.109375 8.203125 
z
M 48.6875 27.296875 
Q 48.6875 37.203125 44.609375 42.84375 
Q 40.53125 48.484375 33.40625 48.484375 
Q 26.265625 48.484375 22.1875 42.84375 
Q 18.109375 37.203125 18.109375 27.296875 
Q 18.109375 17.390625 22.1875 11.75 
Q 26.265625 6.109375 33.40625 6.109375 
Q 40.53125 6.109375 44.609375 11.75 
Q 48.6875 17.390625 48.6875 27.296875 
z
" id="DejaVuSans-112"/>
      <path d="M 9.8125 72.90625 
L 23.09375 72.90625 
L 55.421875 11.921875 
L 55.421875 72.90625 
L 64.984375 72.90625 
L 64.984375 0 
L 51.703125 0 
L 19.390625 60.984375 
L 19.390625 0 
L 9.8125 0 
z
" id="DejaVuSans-78"/>
      <path d="M 4.890625 31.390625 
L 31.203125 31.390625 
L 31.203125 23.390625 
L 4.890625 23.390625 
z
" id="DejaVuSans-45"/>
      <path d="M 39.40625 66.21875 
Q 28.65625 66.21875 22.328125 58.203125 
Q 16.015625 50.203125 16.015625 36.375 
Q 16.015625 22.609375 22.328125 14.59375 
Q 28.65625 6.59375 39.40625 6.59375 
Q 50.140625 6.59375 56.421875 14.59375 
Q 62.703125 22.609375 62.703125 36.375 
Q 62.703125 50.203125 56.421875 58.203125 
Q 50.140625 66.21875 39.40625 66.21875 
z
M 39.40625 74.21875 
Q 54.734375 74.21875 63.90625 63.9375 
Q 73.09375 53.65625 73.09375 36.375 
Q 73.09375 19.140625 63.90625 8.859375 
Q 54.734375 -1.421875 39.40625 -1.421875 
Q 24.03125 -1.421875 14.8125 8.828125 
Q 5.609375 19.09375 5.609375 36.375 
Q 5.609375 53.65625 14.8125 63.9375 
Q 24.03125 74.21875 39.40625 74.21875 
z
" id="DejaVuSans-79"/>
      <path d="M 19.671875 34.8125 
L 19.671875 8.109375 
L 35.5 8.109375 
Q 43.453125 8.109375 47.28125 11.40625 
Q 51.125 14.703125 51.125 21.484375 
Q 51.125 28.328125 47.28125 31.5625 
Q 43.453125 34.8125 35.5 34.8125 
z
M 19.671875 64.796875 
L 19.671875 42.828125 
L 34.28125 42.828125 
Q 41.5 42.828125 45.03125 45.53125 
Q 48.578125 48.25 48.578125 53.8125 
Q 48.578125 59.328125 45.03125 62.0625 
Q 41.5 64.796875 34.28125 64.796875 
z
M 9.8125 72.90625 
L 35.015625 72.90625 
Q 46.296875 72.90625 52.390625 68.21875 
Q 58.5 63.53125 58.5 54.890625 
Q 58.5 48.1875 55.375 44.234375 
Q 52.25 40.28125 46.1875 39.3125 
Q 53.46875 37.75 57.5 32.78125 
Q 61.53125 27.828125 61.53125 20.40625 
Q 61.53125 10.640625 54.890625 5.3125 
Q 48.25 0 35.984375 0 
L 9.8125 0 
z
" id="DejaVuSans-66"/>
     </defs>
     <g style="fill:#262626;" transform="translate(115.33 253.52679)scale(0.144 -0.144)">
      <use xlink:href="#DejaVuSans-77"/>
      <use x="86.279297" xlink:href="#DejaVuSans-111"/>
      <use x="147.460938" xlink:href="#DejaVuSans-108"/>
      <use x="175.244141" xlink:href="#DejaVuSans-77"/>
      <use x="261.523438" xlink:href="#DejaVuSans-97"/>
      <use x="322.802734" xlink:href="#DejaVuSans-112"/>
      <use x="386.279297" xlink:href="#DejaVuSans-78"/>
      <use x="461.083984" xlink:href="#DejaVuSans-101"/>
      <use x="522.607422" xlink:href="#DejaVuSans-116"/>
      <use x="561.816406" xlink:href="#DejaVuSans-45"/>
      <use x="597.931641" xlink:href="#DejaVuSans-79"/>
      <use x="676.642578" xlink:href="#DejaVuSans-79"/>
      <use x="755.353516" xlink:href="#DejaVuSans-84"/>
      <use x="816.4375" xlink:href="#DejaVuSans-66"/>
     </g>
    </g>
    <g id="patch_13">
     <path d="M 75.01 274.66329 
L 103.81 274.66329 
L 103.81 264.58329 
L 75.01 264.58329 
z
" style="fill:#e1812c;stroke:#3f3f3f;stroke-linejoin:miter;stroke-width:0.75;"/>
    </g>
    <g id="text_10">
     <!-- MolMapNet-OPT -->
     <defs>
      <path d="M 19.671875 64.796875 
L 19.671875 37.40625 
L 32.078125 37.40625 
Q 38.96875 37.40625 42.71875 40.96875 
Q 46.484375 44.53125 46.484375 51.125 
Q 46.484375 57.671875 42.71875 61.234375 
Q 38.96875 64.796875 32.078125 64.796875 
z
M 9.8125 72.90625 
L 32.078125 72.90625 
Q 44.34375 72.90625 50.609375 67.359375 
Q 56.890625 61.8125 56.890625 51.125 
Q 56.890625 40.328125 50.609375 34.8125 
Q 44.34375 29.296875 32.078125 29.296875 
L 19.671875 29.296875 
L 19.671875 0 
L 9.8125 0 
z
" id="DejaVuSans-80"/>
     </defs>
     <g style="fill:#262626;" transform="translate(115.33 274.66329)scale(0.144 -0.144)">
      <use xlink:href="#DejaVuSans-77"/>
      <use x="86.279297" xlink:href="#DejaVuSans-111"/>
      <use x="147.460938" xlink:href="#DejaVuSans-108"/>
      <use x="175.244141" xlink:href="#DejaVuSans-77"/>
      <use x="261.523438" xlink:href="#DejaVuSans-97"/>
      <use x="322.802734" xlink:href="#DejaVuSans-112"/>
      <use x="386.279297" xlink:href="#DejaVuSans-78"/>
      <use x="461.083984" xlink:href="#DejaVuSans-101"/>
      <use x="522.607422" xlink:href="#DejaVuSans-116"/>
      <use x="561.816406" xlink:href="#DejaVuSans-45"/>
      <use x="597.931641" xlink:href="#DejaVuSans-79"/>
      <use x="676.642578" xlink:href="#DejaVuSans-80"/>
      <use x="736.945312" xlink:href="#DejaVuSans-84"/>
     </g>
    </g>
   </g>
  </g>
  <g id="axes_2">
   <g id="patch_14">
    <path d="M 507.024653 290.61804 
L 849.312847 290.61804 
L 849.312847 28.3 
L 507.024653 28.3 
z
" style="fill:#ffffff;"/>
   </g>
   <g id="matplotlib.axis_3">
    <g id="xtick_2">
     <g id="line2d_15">
      <g>
       <use style="fill:#ffffff;stroke:#ffffff;stroke-width:1.25;" x="678.16875" xlink:href="#mda7bc63e08" y="290.61804"/>
      </g>
     </g>
     <g id="line2d_16">
      <g>
       <use style="fill:#ffffff;stroke:#ffffff;stroke-width:1.25;" x="678.16875" xlink:href="#m7d7dc681c7" y="28.3"/>
      </g>
     </g>
     <g id="text_11">
      <!-- ESOL -->
      <defs>
       <path d="M 9.8125 72.90625 
L 19.671875 72.90625 
L 19.671875 8.296875 
L 55.171875 8.296875 
L 55.171875 0 
L 9.8125 0 
z
" id="DejaVuSans-76"/>
      </defs>
      <g style="fill:#262626;" transform="translate(659.49943 21.826047)scale(0.143 -0.143)">
       <use xlink:href="#DejaVuSans-69"/>
       <use x="63.183594" xlink:href="#DejaVuSans-83"/>
       <use x="126.660156" xlink:href="#DejaVuSans-79"/>
       <use x="205.371094" xlink:href="#DejaVuSans-76"/>
      </g>
     </g>
    </g>
   </g>
   <g id="matplotlib.axis_4">
    <g id="ytick_7">
     <g id="text_12">
      <!-- 0.50 -->
      <defs>
       <path d="M 10.796875 72.90625 
L 49.515625 72.90625 
L 49.515625 64.59375 
L 19.828125 64.59375 
L 19.828125 46.734375 
Q 21.96875 47.46875 24.109375 47.828125 
Q 26.265625 48.1875 28.421875 48.1875 
Q 40.625 48.1875 47.75 41.5 
Q 54.890625 34.8125 54.890625 23.390625 
Q 54.890625 11.625 47.5625 5.09375 
Q 40.234375 -1.421875 26.90625 -1.421875 
Q 22.3125 -1.421875 17.546875 -0.640625 
Q 12.796875 0.140625 7.71875 1.703125 
L 7.71875 11.625 
Q 12.109375 9.234375 16.796875 8.0625 
Q 21.484375 6.890625 26.703125 6.890625 
Q 35.15625 6.890625 40.078125 11.328125 
Q 45.015625 15.765625 45.015625 23.390625 
Q 45.015625 31 40.078125 35.4375 
Q 35.15625 39.890625 26.703125 39.890625 
Q 22.75 39.890625 18.8125 39.015625 
Q 14.890625 38.140625 10.796875 36.28125 
z
" id="DejaVuSans-53"/>
      </defs>
      <g style="fill:#262626;" transform="translate(465.684809 243.248866)scale(0.143 -0.143)">
       <use xlink:href="#DejaVuSans-48"/>
       <use x="63.623047" xlink:href="#DejaVuSans-46"/>
       <use x="95.410156" xlink:href="#DejaVuSans-53"/>
       <use x="159.033203" xlink:href="#DejaVuSans-48"/>
      </g>
     </g>
    </g>
    <g id="ytick_8">
     <g id="text_13">
      <!-- 0.55 -->
      <g style="fill:#262626;" transform="translate(465.684809 189.393545)scale(0.143 -0.143)">
       <use xlink:href="#DejaVuSans-48"/>
       <use x="63.623047" xlink:href="#DejaVuSans-46"/>
       <use x="95.410156" xlink:href="#DejaVuSans-53"/>
       <use x="159.033203" xlink:href="#DejaVuSans-53"/>
      </g>
     </g>
    </g>
    <g id="ytick_9">
     <g id="text_14">
      <!-- 0.60 -->
      <defs>
       <path d="M 33.015625 40.375 
Q 26.375 40.375 22.484375 35.828125 
Q 18.609375 31.296875 18.609375 23.390625 
Q 18.609375 15.53125 22.484375 10.953125 
Q 26.375 6.390625 33.015625 6.390625 
Q 39.65625 6.390625 43.53125 10.953125 
Q 47.40625 15.53125 47.40625 23.390625 
Q 47.40625 31.296875 43.53125 35.828125 
Q 39.65625 40.375 33.015625 40.375 
z
M 52.59375 71.296875 
L 52.59375 62.3125 
Q 48.875 64.0625 45.09375 64.984375 
Q 41.3125 65.921875 37.59375 65.921875 
Q 27.828125 65.921875 22.671875 59.328125 
Q 17.53125 52.734375 16.796875 39.40625 
Q 19.671875 43.65625 24.015625 45.921875 
Q 28.375 48.1875 33.59375 48.1875 
Q 44.578125 48.1875 50.953125 41.515625 
Q 57.328125 34.859375 57.328125 23.390625 
Q 57.328125 12.15625 50.6875 5.359375 
Q 44.046875 -1.421875 33.015625 -1.421875 
Q 20.359375 -1.421875 13.671875 8.265625 
Q 6.984375 17.96875 6.984375 36.375 
Q 6.984375 53.65625 15.1875 63.9375 
Q 23.390625 74.21875 37.203125 74.21875 
Q 40.921875 74.21875 44.703125 73.484375 
Q 48.484375 72.75 52.59375 71.296875 
z
" id="DejaVuSans-54"/>
      </defs>
      <g style="fill:#262626;" transform="translate(465.684809 135.538224)scale(0.143 -0.143)">
       <use xlink:href="#DejaVuSans-48"/>
       <use x="63.623047" xlink:href="#DejaVuSans-46"/>
       <use x="95.410156" xlink:href="#DejaVuSans-54"/>
       <use x="159.033203" xlink:href="#DejaVuSans-48"/>
      </g>
     </g>
    </g>
    <g id="ytick_10">
     <g id="text_15">
      <!-- 0.65 -->
      <g style="fill:#262626;" transform="translate(465.684809 81.682904)scale(0.143 -0.143)">
       <use xlink:href="#DejaVuSans-48"/>
       <use x="63.623047" xlink:href="#DejaVuSans-46"/>
       <use x="95.410156" xlink:href="#DejaVuSans-54"/>
       <use x="159.033203" xlink:href="#DejaVuSans-53"/>
      </g>
     </g>
    </g>
    <g id="text_16">
     <!-- Test RMSE -->
     <g style="fill:#262626;" transform="translate(458.440496 200.632051)rotate(-90)scale(0.156 -0.156)">
      <use xlink:href="#DejaVuSans-84"/>
      <use x="60.818359" xlink:href="#DejaVuSans-101"/>
      <use x="122.341797" xlink:href="#DejaVuSans-115"/>
      <use x="174.441406" xlink:href="#DejaVuSans-116"/>
      <use x="213.650391" xlink:href="#DejaVuSans-32"/>
      <use x="245.4375" xlink:href="#DejaVuSans-82"/>
      <use x="314.919922" xlink:href="#DejaVuSans-77"/>
      <use x="401.199219" xlink:href="#DejaVuSans-83"/>
      <use x="464.675781" xlink:href="#DejaVuSans-69"/>
     </g>
    </g>
   </g>
   <g id="patch_15">
    <path clip-path="url(#p7f34fc8556)" d="M 562.749171 145.756154 
L 656.673051 145.756154 
L 656.673051 87.491609 
L 562.749171 87.491609 
L 562.749171 145.756154 
z
" style="fill:#3274a1;stroke:#3f3f3f;stroke-linejoin:miter;stroke-width:1.5;"/>
   </g>
   <g id="patch_16">
    <path clip-path="url(#p7f34fc8556)" d="M 699.664448 167.276407 
L 793.588329 167.276407 
L 793.588329 112.326745 
L 699.664448 112.326745 
L 699.664448 167.276407 
z
" style="fill:#e1812c;stroke:#3f3f3f;stroke-linejoin:miter;stroke-width:1.5;"/>
   </g>
   <g id="PathCollection_5"/>
   <g id="PathCollection_6"/>
   <g id="patch_17">
    <path clip-path="url(#p7f34fc8556)" d="M 678.16875 776.369192 
L 678.16875 776.369192 
L 678.16875 776.369192 
L 678.16875 776.369192 
z
" style="fill:#3274a1;stroke:#3f3f3f;stroke-linejoin:miter;stroke-width:0.75;"/>
   </g>
   <g id="patch_18">
    <path clip-path="url(#p7f34fc8556)" d="M 678.16875 776.369192 
L 678.16875 776.369192 
L 678.16875 776.369192 
L 678.16875 776.369192 
z
" style="fill:#e1812c;stroke:#3f3f3f;stroke-linejoin:miter;stroke-width:0.75;"/>
   </g>
   <g id="line2d_17">
    <path clip-path="url(#p7f34fc8556)" d="M 609.711111 145.756154 
L 609.711111 230.285442 
" style="fill:none;stroke:#3f3f3f;stroke-linecap:round;stroke-width:1.5;"/>
   </g>
   <g id="line2d_18">
    <path clip-path="url(#p7f34fc8556)" d="M 609.711111 87.491609 
L 609.711111 43.659566 
" style="fill:none;stroke:#3f3f3f;stroke-linecap:round;stroke-width:1.5;"/>
   </g>
   <g id="line2d_19">
    <path clip-path="url(#p7f34fc8556)" d="M 576.166868 230.285442 
L 643.255354 230.285442 
" style="fill:none;stroke:#3f3f3f;stroke-linecap:round;stroke-width:1.5;"/>
   </g>
   <g id="line2d_20">
    <path clip-path="url(#p7f34fc8556)" d="M 576.166868 43.659566 
L 643.255354 43.659566 
" style="fill:none;stroke:#3f3f3f;stroke-linecap:round;stroke-width:1.5;"/>
   </g>
   <g id="line2d_21"/>
   <g id="line2d_22">
    <path clip-path="url(#p7f34fc8556)" d="M 746.626389 167.276407 
L 746.626389 204.897923 
" style="fill:none;stroke:#3f3f3f;stroke-linecap:round;stroke-width:1.5;"/>
   </g>
   <g id="line2d_23">
    <path clip-path="url(#p7f34fc8556)" d="M 746.626389 112.326745 
L 746.626389 78.313912 
" style="fill:none;stroke:#3f3f3f;stroke-linecap:round;stroke-width:1.5;"/>
   </g>
   <g id="line2d_24">
    <path clip-path="url(#p7f34fc8556)" d="M 713.082146 204.897923 
L 780.170632 204.897923 
" style="fill:none;stroke:#3f3f3f;stroke-linecap:round;stroke-width:1.5;"/>
   </g>
   <g id="line2d_25">
    <path clip-path="url(#p7f34fc8556)" d="M 713.082146 78.313912 
L 780.170632 78.313912 
" style="fill:none;stroke:#3f3f3f;stroke-linecap:round;stroke-width:1.5;"/>
   </g>
   <g id="line2d_26"/>
   <g id="line2d_27">
    <path clip-path="url(#p7f34fc8556)" d="M 562.749171 104.518162 
L 656.673051 104.518162 
" style="fill:none;stroke:#3f3f3f;stroke-linecap:round;stroke-width:1.5;"/>
   </g>
   <g id="line2d_28">
    <path clip-path="url(#p7f34fc8556)" d="M 699.664448 140.509941 
L 793.588329 140.509941 
" style="fill:none;stroke:#3f3f3f;stroke-linecap:round;stroke-width:1.5;"/>
   </g>
   <g id="patch_19">
    <path d="M 507.024653 290.61804 
L 507.024653 28.3 
" style="fill:none;stroke:#262626;stroke-linecap:square;stroke-linejoin:miter;stroke-width:1.25;"/>
   </g>
   <g id="patch_20">
    <path d="M 849.312847 290.61804 
L 849.312847 28.3 
" style="fill:none;stroke:#262626;stroke-linecap:square;stroke-linejoin:miter;stroke-width:1.25;"/>
   </g>
   <g id="patch_21">
    <path d="M 507.024653 290.61804 
L 849.312847 290.61804 
" style="fill:none;stroke:#262626;stroke-linecap:square;stroke-linejoin:miter;stroke-width:1.25;"/>
   </g>
   <g id="patch_22">
    <path d="M 507.024653 28.3 
L 849.312847 28.3 
" style="fill:none;stroke:#262626;stroke-linecap:square;stroke-linejoin:miter;stroke-width:1.25;"/>
   </g>
   <g id="PathCollection_7">
    <defs>
     <path d="M 0 3 
C 0.795609 3 1.55874 2.683901 2.12132 2.12132 
C 2.683901 1.55874 3 0.795609 3 0 
C 3 -0.795609 2.683901 -1.55874 2.12132 -2.12132 
C 1.55874 -2.683901 0.795609 -3 0 -3 
C -0.795609 -3 -1.55874 -2.683901 -2.12132 -2.12132 
C -2.683901 -1.55874 -3 -0.795609 -3 0 
C -3 0.795609 -2.683901 1.55874 -2.12132 2.12132 
C -1.55874 2.683901 -0.795609 3 0 3 
z
" id="C2_0_dac8abbfae"/>
    </defs>
    <g clip-path="url(#p7f34fc8556)">
     <use style="fill:#1f77b4;stroke:#3f3f3f;" x="603.837388" xlink:href="#C2_0_dac8abbfae" y="103.156387"/>
    </g>
    <g clip-path="url(#p7f34fc8556)">
     <use style="fill:#1f77b4;stroke:#3f3f3f;" x="604.033245" xlink:href="#C2_0_dac8abbfae" y="105.879937"/>
    </g>
    <g clip-path="url(#p7f34fc8556)">
     <use style="fill:#1f77b4;stroke:#3f3f3f;" x="621.005581" xlink:href="#C2_0_dac8abbfae" y="43.659566"/>
    </g>
    <g clip-path="url(#p7f34fc8556)">
     <use style="fill:#1f77b4;stroke:#3f3f3f;" x="615.420518" xlink:href="#C2_0_dac8abbfae" y="84.761568"/>
    </g>
    <g clip-path="url(#p7f34fc8556)">
     <use style="fill:#1f77b4;stroke:#3f3f3f;" x="621.791812" xlink:href="#C2_0_dac8abbfae" y="53.823568"/>
    </g>
    <g clip-path="url(#p7f34fc8556)">
     <use style="fill:#1f77b4;stroke:#3f3f3f;" x="596.094449" xlink:href="#C2_0_dac8abbfae" y="95.68173"/>
    </g>
    <g clip-path="url(#p7f34fc8556)">
     <use style="fill:#1f77b4;stroke:#3f3f3f;" x="612.715483" xlink:href="#C2_0_dac8abbfae" y="204.482819"/>
    </g>
    <g clip-path="url(#p7f34fc8556)">
     <use style="fill:#1f77b4;stroke:#3f3f3f;" x="594.497458" xlink:href="#C2_0_dac8abbfae" y="230.285442"/>
    </g>
    <g clip-path="url(#p7f34fc8556)">
     <use style="fill:#1f77b4;stroke:#3f3f3f;" x="619.714817" xlink:href="#C2_0_dac8abbfae" y="124.259002"/>
    </g>
    <g clip-path="url(#p7f34fc8556)">
     <use style="fill:#1f77b4;stroke:#3f3f3f;" x="624.175781" xlink:href="#C2_0_dac8abbfae" y="152.921871"/>
    </g>
   </g>
   <g id="PathCollection_8">
    <defs>
     <path d="M 0 3 
C 0.795609 3 1.55874 2.683901 2.12132 2.12132 
C 2.683901 1.55874 3 0.795609 3 0 
C 3 -0.795609 2.683901 -1.55874 2.12132 -2.12132 
C 1.55874 -2.683901 0.795609 -3 0 -3 
C -0.795609 -3 -1.55874 -2.683901 -2.12132 -2.12132 
C -2.683901 -1.55874 -3 -0.795609 -3 0 
C -3 0.795609 -2.683901 1.55874 -2.12132 2.12132 
C -1.55874 2.683901 -0.795609 3 0 3 
z
" id="C3_0_7c59531264"/>
    </defs>
    <g clip-path="url(#p7f34fc8556)">
     <use style="fill:#ff7f0e;stroke:#3f3f3f;" x="736.840217" xlink:href="#C3_0_7c59531264" y="136.127843"/>
    </g>
    <g clip-path="url(#p7f34fc8556)">
     <use style="fill:#ff7f0e;stroke:#3f3f3f;" x="747.119109" xlink:href="#C3_0_7c59531264" y="78.313912"/>
    </g>
    <g clip-path="url(#p7f34fc8556)">
     <use style="fill:#ff7f0e;stroke:#3f3f3f;" x="751.918654" xlink:href="#C3_0_7c59531264" y="103.525433"/>
    </g>
    <g clip-path="url(#p7f34fc8556)">
     <use style="fill:#ff7f0e;stroke:#3f3f3f;" x="737.553576" xlink:href="#C3_0_7c59531264" y="160.236452"/>
    </g>
    <g clip-path="url(#p7f34fc8556)">
     <use style="fill:#ff7f0e;stroke:#3f3f3f;" x="753.841187" xlink:href="#C3_0_7c59531264" y="106.244166"/>
    </g>
    <g clip-path="url(#p7f34fc8556)">
     <use style="fill:#ff7f0e;stroke:#3f3f3f;" x="756.940528" xlink:href="#C3_0_7c59531264" y="144.892038"/>
    </g>
    <g clip-path="url(#p7f34fc8556)">
     <use style="fill:#ff7f0e;stroke:#3f3f3f;" x="734.787758" xlink:href="#C3_0_7c59531264" y="275.207486"/>
    </g>
    <g clip-path="url(#p7f34fc8556)">
     <use style="fill:#ff7f0e;stroke:#3f3f3f;" x="749.270441" xlink:href="#C3_0_7c59531264" y="204.897923"/>
    </g>
    <g clip-path="url(#p7f34fc8556)">
     <use style="fill:#ff7f0e;stroke:#3f3f3f;" x="738.024418" xlink:href="#C3_0_7c59531264" y="130.574481"/>
    </g>
    <g clip-path="url(#p7f34fc8556)">
     <use style="fill:#ff7f0e;stroke:#3f3f3f;" x="737.452274" xlink:href="#C3_0_7c59531264" y="169.623059"/>
    </g>
   </g>
   <g id="legend_2">
    <g id="patch_23">
     <path d="M 517.104653 283.41804 
L 690.635903 283.41804 
Q 693.515903 283.41804 693.515903 280.53804 
L 693.515903 239.70504 
Q 693.515903 236.82504 690.635903 236.82504 
L 517.104653 236.82504 
Q 514.224653 236.82504 514.224653 239.70504 
L 514.224653 280.53804 
Q 514.224653 283.41804 517.104653 283.41804 
z
" style="fill:#ffffff;opacity:0.8;stroke:#cccccc;stroke-linejoin:miter;"/>
    </g>
    <g id="patch_24">
     <path d="M 519.984653 253.52679 
L 548.784653 253.52679 
L 548.784653 243.44679 
L 519.984653 243.44679 
z
" style="fill:#3274a1;stroke:#3f3f3f;stroke-linejoin:miter;stroke-width:0.75;"/>
    </g>
    <g id="text_17">
     <!-- MolMapNet-OOTB -->
     <g style="fill:#262626;" transform="translate(560.304653 253.52679)scale(0.144 -0.144)">
      <use xlink:href="#DejaVuSans-77"/>
      <use x="86.279297" xlink:href="#DejaVuSans-111"/>
      <use x="147.460938" xlink:href="#DejaVuSans-108"/>
      <use x="175.244141" xlink:href="#DejaVuSans-77"/>
      <use x="261.523438" xlink:href="#DejaVuSans-97"/>
      <use x="322.802734" xlink:href="#DejaVuSans-112"/>
      <use x="386.279297" xlink:href="#DejaVuSans-78"/>
      <use x="461.083984" xlink:href="#DejaVuSans-101"/>
      <use x="522.607422" xlink:href="#DejaVuSans-116"/>
      <use x="561.816406" xlink:href="#DejaVuSans-45"/>
      <use x="597.931641" xlink:href="#DejaVuSans-79"/>
      <use x="676.642578" xlink:href="#DejaVuSans-79"/>
      <use x="755.353516" xlink:href="#DejaVuSans-84"/>
      <use x="816.4375" xlink:href="#DejaVuSans-66"/>
     </g>
    </g>
    <g id="patch_25">
     <path d="M 519.984653 274.66329 
L 548.784653 274.66329 
L 548.784653 264.58329 
L 519.984653 264.58329 
z
" style="fill:#e1812c;stroke:#3f3f3f;stroke-linejoin:miter;stroke-width:0.75;"/>
    </g>
    <g id="text_18">
     <!-- MolMapNet-OPT -->
     <g style="fill:#262626;" transform="translate(560.304653 274.66329)scale(0.144 -0.144)">
      <use xlink:href="#DejaVuSans-77"/>
      <use x="86.279297" xlink:href="#DejaVuSans-111"/>
      <use x="147.460938" xlink:href="#DejaVuSans-108"/>
      <use x="175.244141" xlink:href="#DejaVuSans-77"/>
      <use x="261.523438" xlink:href="#DejaVuSans-97"/>
      <use x="322.802734" xlink:href="#DejaVuSans-112"/>
      <use x="386.279297" xlink:href="#DejaVuSans-78"/>
      <use x="461.083984" xlink:href="#DejaVuSans-101"/>
      <use x="522.607422" xlink:href="#DejaVuSans-116"/>
      <use x="561.816406" xlink:href="#DejaVuSans-45"/>
      <use x="597.931641" xlink:href="#DejaVuSans-79"/>
      <use x="676.642578" xlink:href="#DejaVuSans-80"/>
      <use x="736.945312" xlink:href="#DejaVuSans-84"/>
     </g>
    </g>
   </g>
  </g>
  <g id="axes_3">
   <g id="patch_26">
    <path d="M 62.05 579.167884 
L 404.338194 579.167884 
L 404.338194 316.849844 
L 62.05 316.849844 
z
" style="fill:#ffffff;"/>
   </g>
   <g id="matplotlib.axis_5">
    <g id="xtick_3">
     <g id="line2d_29">
      <defs>
       <path d="M 0 0 
L 0 -6 
" id="m28f01776c1" style="stroke:#000000;stroke-width:1.25;"/>
      </defs>
      <g>
       <use style="stroke:#000000;stroke-width:1.25;" x="77.608554" xlink:href="#m28f01776c1" y="579.167884"/>
      </g>
     </g>
     <g id="text_19">
      <!-- 2 -->
      <g style="fill:#262626;" transform="translate(77.18197 596.784663)rotate(-45)scale(0.143 -0.143)">
       <use xlink:href="#DejaVuSans-50"/>
      </g>
     </g>
    </g>
    <g id="xtick_4">
     <g id="line2d_30">
      <g>
       <use style="stroke:#000000;stroke-width:1.25;" x="112.183119" xlink:href="#m28f01776c1" y="579.167884"/>
      </g>
     </g>
     <g id="text_20">
      <!-- 16 -->
      <g style="fill:#262626;" transform="translate(108.539774 603.218186)rotate(-45)scale(0.143 -0.143)">
       <use xlink:href="#DejaVuSans-49"/>
       <use x="63.623047" xlink:href="#DejaVuSans-54"/>
      </g>
     </g>
    </g>
    <g id="xtick_5">
     <g id="line2d_31">
      <g>
       <use style="stroke:#000000;stroke-width:1.25;" x="146.757684" xlink:href="#m28f01776c1" y="579.167884"/>
      </g>
     </g>
     <g id="text_21">
      <!-- 32 -->
      <defs>
       <path d="M 40.578125 39.3125 
Q 47.65625 37.796875 51.625 33 
Q 55.609375 28.21875 55.609375 21.1875 
Q 55.609375 10.40625 48.1875 4.484375 
Q 40.765625 -1.421875 27.09375 -1.421875 
Q 22.515625 -1.421875 17.65625 -0.515625 
Q 12.796875 0.390625 7.625 2.203125 
L 7.625 11.71875 
Q 11.71875 9.328125 16.59375 8.109375 
Q 21.484375 6.890625 26.8125 6.890625 
Q 36.078125 6.890625 40.9375 10.546875 
Q 45.796875 14.203125 45.796875 21.1875 
Q 45.796875 27.640625 41.28125 31.265625 
Q 36.765625 34.90625 28.71875 34.90625 
L 20.21875 34.90625 
L 20.21875 43.015625 
L 29.109375 43.015625 
Q 36.375 43.015625 40.234375 45.921875 
Q 44.09375 48.828125 44.09375 54.296875 
Q 44.09375 59.90625 40.109375 62.90625 
Q 36.140625 65.921875 28.71875 65.921875 
Q 24.65625 65.921875 20.015625 65.03125 
Q 15.375 64.15625 9.8125 62.3125 
L 9.8125 71.09375 
Q 15.4375 72.65625 20.34375 73.4375 
Q 25.25 74.21875 29.59375 74.21875 
Q 40.828125 74.21875 47.359375 69.109375 
Q 53.90625 64.015625 53.90625 55.328125 
Q 53.90625 49.265625 50.4375 45.09375 
Q 46.96875 40.921875 40.578125 39.3125 
z
" id="DejaVuSans-51"/>
      </defs>
      <g style="fill:#262626;" transform="translate(143.114339 603.218186)rotate(-45)scale(0.143 -0.143)">
       <use xlink:href="#DejaVuSans-51"/>
       <use x="63.623047" xlink:href="#DejaVuSans-50"/>
      </g>
     </g>
    </g>
    <g id="xtick_6">
     <g id="line2d_32">
      <g>
       <use style="stroke:#000000;stroke-width:1.25;" x="181.33225" xlink:href="#m28f01776c1" y="579.167884"/>
      </g>
     </g>
     <g id="text_22">
      <!-- 64 -->
      <defs>
       <path d="M 37.796875 64.3125 
L 12.890625 25.390625 
L 37.796875 25.390625 
z
M 35.203125 72.90625 
L 47.609375 72.90625 
L 47.609375 25.390625 
L 58.015625 25.390625 
L 58.015625 17.1875 
L 47.609375 17.1875 
L 47.609375 0 
L 37.796875 0 
L 37.796875 17.1875 
L 4.890625 17.1875 
L 4.890625 26.703125 
z
" id="DejaVuSans-52"/>
      </defs>
      <g style="fill:#262626;" transform="translate(177.688904 603.218186)rotate(-45)scale(0.143 -0.143)">
       <use xlink:href="#DejaVuSans-54"/>
       <use x="63.623047" xlink:href="#DejaVuSans-52"/>
      </g>
     </g>
    </g>
    <g id="xtick_7">
     <g id="line2d_33">
      <g>
       <use style="stroke:#000000;stroke-width:1.25;" x="215.906815" xlink:href="#m28f01776c1" y="579.167884"/>
      </g>
     </g>
     <g id="text_23">
      <!-- 128 -->
      <g style="fill:#262626;" transform="translate(209.046708 609.651709)rotate(-45)scale(0.143 -0.143)">
       <use xlink:href="#DejaVuSans-49"/>
       <use x="63.623047" xlink:href="#DejaVuSans-50"/>
       <use x="127.246094" xlink:href="#DejaVuSans-56"/>
      </g>
     </g>
    </g>
    <g id="xtick_8">
     <g id="line2d_34">
      <g>
       <use style="stroke:#000000;stroke-width:1.25;" x="250.48138" xlink:href="#m28f01776c1" y="579.167884"/>
      </g>
     </g>
     <g id="text_24">
      <!-- 256 -->
      <g style="fill:#262626;" transform="translate(243.621273 609.651709)rotate(-45)scale(0.143 -0.143)">
       <use xlink:href="#DejaVuSans-50"/>
       <use x="63.623047" xlink:href="#DejaVuSans-53"/>
       <use x="127.246094" xlink:href="#DejaVuSans-54"/>
      </g>
     </g>
    </g>
    <g id="xtick_9">
     <g id="line2d_35">
      <g>
       <use style="stroke:#000000;stroke-width:1.25;" x="285.055945" xlink:href="#m28f01776c1" y="579.167884"/>
      </g>
     </g>
     <g id="text_25">
      <!-- 512 -->
      <g style="fill:#262626;" transform="translate(278.195838 609.651709)rotate(-45)scale(0.143 -0.143)">
       <use xlink:href="#DejaVuSans-53"/>
       <use x="63.623047" xlink:href="#DejaVuSans-49"/>
       <use x="127.246094" xlink:href="#DejaVuSans-50"/>
      </g>
     </g>
    </g>
    <g id="xtick_10">
     <g id="line2d_36">
      <g>
       <use style="stroke:#000000;stroke-width:1.25;" x="319.63051" xlink:href="#m28f01776c1" y="579.167884"/>
      </g>
     </g>
     <g id="text_26">
      <!-- 1024 -->
      <g style="fill:#262626;" transform="translate(309.553642 616.085231)rotate(-45)scale(0.143 -0.143)">
       <use xlink:href="#DejaVuSans-49"/>
       <use x="63.623047" xlink:href="#DejaVuSans-48"/>
       <use x="127.246094" xlink:href="#DejaVuSans-50"/>
       <use x="190.869141" xlink:href="#DejaVuSans-52"/>
      </g>
     </g>
    </g>
    <g id="xtick_11">
     <g id="line2d_37">
      <g>
       <use style="stroke:#000000;stroke-width:1.25;" x="354.205075" xlink:href="#m28f01776c1" y="579.167884"/>
      </g>
     </g>
     <g id="text_27">
      <!-- 2048 -->
      <g style="fill:#262626;" transform="translate(344.128207 616.085231)rotate(-45)scale(0.143 -0.143)">
       <use xlink:href="#DejaVuSans-50"/>
       <use x="63.623047" xlink:href="#DejaVuSans-48"/>
       <use x="127.246094" xlink:href="#DejaVuSans-52"/>
       <use x="190.869141" xlink:href="#DejaVuSans-56"/>
      </g>
     </g>
    </g>
    <g id="xtick_12">
     <g id="line2d_38">
      <g>
       <use style="stroke:#000000;stroke-width:1.25;" x="388.77964" xlink:href="#m28f01776c1" y="579.167884"/>
      </g>
     </g>
     <g id="text_28">
      <!-- 4096 -->
      <g style="fill:#262626;" transform="translate(378.702772 616.085231)rotate(-45)scale(0.143 -0.143)">
       <use xlink:href="#DejaVuSans-52"/>
       <use x="63.623047" xlink:href="#DejaVuSans-48"/>
       <use x="127.246094" xlink:href="#DejaVuSans-57"/>
       <use x="190.869141" xlink:href="#DejaVuSans-54"/>
      </g>
     </g>
    </g>
    <g id="text_29">
     <!-- Seed -->
     <defs>
      <path d="M 45.40625 46.390625 
L 45.40625 75.984375 
L 54.390625 75.984375 
L 54.390625 0 
L 45.40625 0 
L 45.40625 8.203125 
Q 42.578125 3.328125 38.25 0.953125 
Q 33.9375 -1.421875 27.875 -1.421875 
Q 17.96875 -1.421875 11.734375 6.484375 
Q 5.515625 14.40625 5.515625 27.296875 
Q 5.515625 40.1875 11.734375 48.09375 
Q 17.96875 56 27.875 56 
Q 33.9375 56 38.25 53.625 
Q 42.578125 51.265625 45.40625 46.390625 
z
M 14.796875 27.296875 
Q 14.796875 17.390625 18.875 11.75 
Q 22.953125 6.109375 30.078125 6.109375 
Q 37.203125 6.109375 41.296875 11.75 
Q 45.40625 17.390625 45.40625 27.296875 
Q 45.40625 37.203125 41.296875 42.84375 
Q 37.203125 48.484375 30.078125 48.484375 
Q 22.953125 48.484375 18.875 42.84375 
Q 14.796875 37.203125 14.796875 27.296875 
z
" id="DejaVuSans-100"/>
     </defs>
     <g style="fill:#262626;" transform="translate(213.69166 634.041696)scale(0.156 -0.156)">
      <use xlink:href="#DejaVuSans-83"/>
      <use x="63.476562" xlink:href="#DejaVuSans-101"/>
      <use x="125" xlink:href="#DejaVuSans-101"/>
      <use x="186.523438" xlink:href="#DejaVuSans-100"/>
     </g>
    </g>
   </g>
   <g id="matplotlib.axis_6">
    <g id="ytick_11">
     <g id="text_30">
      <!-- 0.7 -->
      <g style="fill:#262626;" transform="translate(29.808531 549.040059)scale(0.143 -0.143)">
       <use xlink:href="#DejaVuSans-48"/>
       <use x="63.623047" xlink:href="#DejaVuSans-46"/>
       <use x="95.410156" xlink:href="#DejaVuSans-55"/>
      </g>
     </g>
    </g>
    <g id="ytick_12">
     <g id="text_31">
      <!-- 0.8 -->
      <g style="fill:#262626;" transform="translate(29.808531 508.134332)scale(0.143 -0.143)">
       <use xlink:href="#DejaVuSans-48"/>
       <use x="63.623047" xlink:href="#DejaVuSans-46"/>
       <use x="95.410156" xlink:href="#DejaVuSans-56"/>
      </g>
     </g>
    </g>
    <g id="ytick_13">
     <g id="text_32">
      <!-- 0.9 -->
      <g style="fill:#262626;" transform="translate(29.808531 467.228605)scale(0.143 -0.143)">
       <use xlink:href="#DejaVuSans-48"/>
       <use x="63.623047" xlink:href="#DejaVuSans-46"/>
       <use x="95.410156" xlink:href="#DejaVuSans-57"/>
      </g>
     </g>
    </g>
    <g id="ytick_14">
     <g id="text_33">
      <!-- 1.0 -->
      <g style="fill:#262626;" transform="translate(29.808531 426.322878)scale(0.143 -0.143)">
       <use xlink:href="#DejaVuSans-49"/>
       <use x="63.623047" xlink:href="#DejaVuSans-46"/>
       <use x="95.410156" xlink:href="#DejaVuSans-48"/>
      </g>
     </g>
    </g>
    <g id="ytick_15">
     <g id="text_34">
      <!-- 1.1 -->
      <g style="fill:#262626;" transform="translate(29.808531 385.417151)scale(0.143 -0.143)">
       <use xlink:href="#DejaVuSans-49"/>
       <use x="63.623047" xlink:href="#DejaVuSans-46"/>
       <use x="95.410156" xlink:href="#DejaVuSans-49"/>
      </g>
     </g>
    </g>
    <g id="ytick_16">
     <g id="text_35">
      <!-- 1.2 -->
      <g style="fill:#262626;" transform="translate(29.808531 344.511423)scale(0.143 -0.143)">
       <use xlink:href="#DejaVuSans-49"/>
       <use x="63.623047" xlink:href="#DejaVuSans-46"/>
       <use x="95.410156" xlink:href="#DejaVuSans-50"/>
      </g>
     </g>
    </g>
    <g id="text_36">
     <!-- Test RMSE -->
     <g style="fill:#262626;" transform="translate(22.564219 489.181895)rotate(-90)scale(0.156 -0.156)">
      <use xlink:href="#DejaVuSans-84"/>
      <use x="60.818359" xlink:href="#DejaVuSans-101"/>
      <use x="122.341797" xlink:href="#DejaVuSans-115"/>
      <use x="174.441406" xlink:href="#DejaVuSans-116"/>
      <use x="213.650391" xlink:href="#DejaVuSans-32"/>
      <use x="245.4375" xlink:href="#DejaVuSans-82"/>
      <use x="314.919922" xlink:href="#DejaVuSans-77"/>
      <use x="401.199219" xlink:href="#DejaVuSans-83"/>
      <use x="464.675781" xlink:href="#DejaVuSans-69"/>
     </g>
    </g>
   </g>
   <g id="line2d_39">
    <path clip-path="url(#pb331978335)" d="M 77.608554 412.117354 
L 112.183119 328.773391 
L 146.757684 453.495884 
L 181.33225 379.027989 
L 215.906815 472.878215 
L 250.48138 340.147894 
L 285.055945 504.490309 
L 319.63051 543.738732 
L 354.205075 438.836099 
L 388.77964 421.556319 
" style="fill:none;stroke:#1f77b4;stroke-linecap:round;stroke-width:2.5;"/>
    <defs>
     <path d="M 0 3 
C 0.795609 3 1.55874 2.683901 2.12132 2.12132 
C 2.683901 1.55874 3 0.795609 3 0 
C 3 -0.795609 2.683901 -1.55874 2.12132 -2.12132 
C 1.55874 -2.683901 0.795609 -3 0 -3 
C -0.795609 -3 -1.55874 -2.683901 -2.12132 -2.12132 
C -2.683901 -1.55874 -3 -0.795609 -3 0 
C -3 0.795609 -2.683901 1.55874 -2.12132 2.12132 
C -1.55874 2.683901 -0.795609 3 0 3 
z
" id="m931a3f6504" style="stroke:#ffffff;stroke-width:0.75;"/>
    </defs>
    <g clip-path="url(#pb331978335)">
     <use style="fill:#1f77b4;stroke:#ffffff;stroke-width:0.75;" x="77.608554" xlink:href="#m931a3f6504" y="412.117354"/>
     <use style="fill:#1f77b4;stroke:#ffffff;stroke-width:0.75;" x="112.183119" xlink:href="#m931a3f6504" y="328.773391"/>
     <use style="fill:#1f77b4;stroke:#ffffff;stroke-width:0.75;" x="146.757684" xlink:href="#m931a3f6504" y="453.495884"/>
     <use style="fill:#1f77b4;stroke:#ffffff;stroke-width:0.75;" x="181.33225" xlink:href="#m931a3f6504" y="379.027989"/>
     <use style="fill:#1f77b4;stroke:#ffffff;stroke-width:0.75;" x="215.906815" xlink:href="#m931a3f6504" y="472.878215"/>
     <use style="fill:#1f77b4;stroke:#ffffff;stroke-width:0.75;" x="250.48138" xlink:href="#m931a3f6504" y="340.147894"/>
     <use style="fill:#1f77b4;stroke:#ffffff;stroke-width:0.75;" x="285.055945" xlink:href="#m931a3f6504" y="504.490309"/>
     <use style="fill:#1f77b4;stroke:#ffffff;stroke-width:0.75;" x="319.63051" xlink:href="#m931a3f6504" y="543.738732"/>
     <use style="fill:#1f77b4;stroke:#ffffff;stroke-width:0.75;" x="354.205075" xlink:href="#m931a3f6504" y="438.836099"/>
     <use style="fill:#1f77b4;stroke:#ffffff;stroke-width:0.75;" x="388.77964" xlink:href="#m931a3f6504" y="421.556319"/>
    </g>
   </g>
   <g id="line2d_40">
    <path clip-path="url(#pb331978335)" d="M 77.608554 415.390194 
L 112.183119 330.26644 
L 146.757684 443.78743 
L 181.33225 384.646067 
L 215.906815 476.178649 
L 250.48138 344.616307 
L 285.055945 520.243349 
L 319.63051 567.244337 
L 354.205075 457.774564 
L 388.77964 446.529697 
" style="fill:none;stroke:#ff7f0e;stroke-linecap:round;stroke-width:2.5;"/>
    <defs>
     <path d="M 0 3 
C 0.795609 3 1.55874 2.683901 2.12132 2.12132 
C 2.683901 1.55874 3 0.795609 3 0 
C 3 -0.795609 2.683901 -1.55874 2.12132 -2.12132 
C 1.55874 -2.683901 0.795609 -3 0 -3 
C -0.795609 -3 -1.55874 -2.683901 -2.12132 -2.12132 
C -2.683901 -1.55874 -3 -0.795609 -3 0 
C -3 0.795609 -2.683901 1.55874 -2.12132 2.12132 
C -1.55874 2.683901 -0.795609 3 0 3 
z
" id="m7f47a6582b" style="stroke:#ffffff;stroke-width:0.75;"/>
    </defs>
    <g clip-path="url(#pb331978335)">
     <use style="fill:#ff7f0e;stroke:#ffffff;stroke-width:0.75;" x="77.608554" xlink:href="#m7f47a6582b" y="415.390194"/>
     <use style="fill:#ff7f0e;stroke:#ffffff;stroke-width:0.75;" x="112.183119" xlink:href="#m7f47a6582b" y="330.26644"/>
     <use style="fill:#ff7f0e;stroke:#ffffff;stroke-width:0.75;" x="146.757684" xlink:href="#m7f47a6582b" y="443.78743"/>
     <use style="fill:#ff7f0e;stroke:#ffffff;stroke-width:0.75;" x="181.33225" xlink:href="#m7f47a6582b" y="384.646067"/>
     <use style="fill:#ff7f0e;stroke:#ffffff;stroke-width:0.75;" x="215.906815" xlink:href="#m7f47a6582b" y="476.178649"/>
     <use style="fill:#ff7f0e;stroke:#ffffff;stroke-width:0.75;" x="250.48138" xlink:href="#m7f47a6582b" y="344.616307"/>
     <use style="fill:#ff7f0e;stroke:#ffffff;stroke-width:0.75;" x="285.055945" xlink:href="#m7f47a6582b" y="520.243349"/>
     <use style="fill:#ff7f0e;stroke:#ffffff;stroke-width:0.75;" x="319.63051" xlink:href="#m7f47a6582b" y="567.244337"/>
     <use style="fill:#ff7f0e;stroke:#ffffff;stroke-width:0.75;" x="354.205075" xlink:href="#m7f47a6582b" y="457.774564"/>
     <use style="fill:#ff7f0e;stroke:#ffffff;stroke-width:0.75;" x="388.77964" xlink:href="#m7f47a6582b" y="446.529697"/>
    </g>
   </g>
   <g id="line2d_41"/>
   <g id="line2d_42"/>
   <g id="line2d_43"/>
   <g id="line2d_44"/>
   <g id="patch_27">
    <path d="M 62.05 579.167884 
L 62.05 316.849844 
" style="fill:none;stroke:#262626;stroke-linecap:square;stroke-linejoin:miter;stroke-width:1.25;"/>
   </g>
   <g id="patch_28">
    <path d="M 404.338194 579.167884 
L 404.338194 316.849844 
" style="fill:none;stroke:#262626;stroke-linecap:square;stroke-linejoin:miter;stroke-width:1.25;"/>
   </g>
   <g id="patch_29">
    <path d="M 62.05 579.167884 
L 404.338194 579.167884 
" style="fill:none;stroke:#262626;stroke-linecap:square;stroke-linejoin:miter;stroke-width:1.25;"/>
   </g>
   <g id="patch_30">
    <path d="M 62.05 316.849844 
L 404.338194 316.849844 
" style="fill:none;stroke:#262626;stroke-linecap:square;stroke-linejoin:miter;stroke-width:1.25;"/>
   </g>
   <g id="legend_3">
    <g id="patch_31">
     <path d="M 72.13 571.967884 
L 245.66125 571.967884 
Q 248.54125 571.967884 248.54125 569.087884 
L 248.54125 528.254884 
Q 248.54125 525.374884 245.66125 525.374884 
L 72.13 525.374884 
Q 69.25 525.374884 69.25 528.254884 
L 69.25 569.087884 
Q 69.25 571.967884 72.13 571.967884 
z
" style="fill:#ffffff;opacity:0.8;stroke:#cccccc;stroke-linejoin:miter;"/>
    </g>
    <g id="line2d_45">
     <path d="M 75.01 537.036634 
L 103.81 537.036634 
" style="fill:none;stroke:#1f77b4;stroke-linecap:round;stroke-width:1.5;"/>
    </g>
    <g id="line2d_46"/>
    <g id="text_37">
     <!-- MolMapNet-OOTB -->
     <g style="fill:#262626;" transform="translate(115.33 542.076634)scale(0.144 -0.144)">
      <use xlink:href="#DejaVuSans-77"/>
      <use x="86.279297" xlink:href="#DejaVuSans-111"/>
      <use x="147.460938" xlink:href="#DejaVuSans-108"/>
      <use x="175.244141" xlink:href="#DejaVuSans-77"/>
      <use x="261.523438" xlink:href="#DejaVuSans-97"/>
      <use x="322.802734" xlink:href="#DejaVuSans-112"/>
      <use x="386.279297" xlink:href="#DejaVuSans-78"/>
      <use x="461.083984" xlink:href="#DejaVuSans-101"/>
      <use x="522.607422" xlink:href="#DejaVuSans-116"/>
      <use x="561.816406" xlink:href="#DejaVuSans-45"/>
      <use x="597.931641" xlink:href="#DejaVuSans-79"/>
      <use x="676.642578" xlink:href="#DejaVuSans-79"/>
      <use x="755.353516" xlink:href="#DejaVuSans-84"/>
      <use x="816.4375" xlink:href="#DejaVuSans-66"/>
     </g>
    </g>
    <g id="line2d_47">
     <path d="M 75.01 558.173134 
L 103.81 558.173134 
" style="fill:none;stroke:#ff7f0e;stroke-linecap:round;stroke-width:1.5;"/>
    </g>
    <g id="line2d_48"/>
    <g id="text_38">
     <!-- MolMapNet-OPT -->
     <g style="fill:#262626;" transform="translate(115.33 563.213134)scale(0.144 -0.144)">
      <use xlink:href="#DejaVuSans-77"/>
      <use x="86.279297" xlink:href="#DejaVuSans-111"/>
      <use x="147.460938" xlink:href="#DejaVuSans-108"/>
      <use x="175.244141" xlink:href="#DejaVuSans-77"/>
      <use x="261.523438" xlink:href="#DejaVuSans-97"/>
      <use x="322.802734" xlink:href="#DejaVuSans-112"/>
      <use x="386.279297" xlink:href="#DejaVuSans-78"/>
      <use x="461.083984" xlink:href="#DejaVuSans-101"/>
      <use x="522.607422" xlink:href="#DejaVuSans-116"/>
      <use x="561.816406" xlink:href="#DejaVuSans-45"/>
      <use x="597.931641" xlink:href="#DejaVuSans-79"/>
      <use x="676.642578" xlink:href="#DejaVuSans-80"/>
      <use x="736.945312" xlink:href="#DejaVuSans-84"/>
     </g>
    </g>
   </g>
  </g>
  <g id="axes_4">
   <g id="patch_32">
    <path d="M 507.024653 579.167884 
L 849.312847 579.167884 
L 849.312847 316.849844 
L 507.024653 316.849844 
z
" style="fill:#ffffff;"/>
   </g>
   <g id="matplotlib.axis_7">
    <g id="xtick_13">
     <g id="line2d_49">
      <g>
       <use style="stroke:#000000;stroke-width:1.25;" x="522.583207" xlink:href="#m28f01776c1" y="579.167884"/>
      </g>
     </g>
     <g id="text_39">
      <!-- 2 -->
      <g style="fill:#262626;" transform="translate(522.156623 596.784663)rotate(-45)scale(0.143 -0.143)">
       <use xlink:href="#DejaVuSans-50"/>
      </g>
     </g>
    </g>
    <g id="xtick_14">
     <g id="line2d_50">
      <g>
       <use style="stroke:#000000;stroke-width:1.25;" x="557.157772" xlink:href="#m28f01776c1" y="579.167884"/>
      </g>
     </g>
     <g id="text_40">
      <!-- 16 -->
      <g style="fill:#262626;" transform="translate(553.514426 603.218186)rotate(-45)scale(0.143 -0.143)">
       <use xlink:href="#DejaVuSans-49"/>
       <use x="63.623047" xlink:href="#DejaVuSans-54"/>
      </g>
     </g>
    </g>
    <g id="xtick_15">
     <g id="line2d_51">
      <g>
       <use style="stroke:#000000;stroke-width:1.25;" x="591.732337" xlink:href="#m28f01776c1" y="579.167884"/>
      </g>
     </g>
     <g id="text_41">
      <!-- 32 -->
      <g style="fill:#262626;" transform="translate(588.088992 603.218186)rotate(-45)scale(0.143 -0.143)">
       <use xlink:href="#DejaVuSans-51"/>
       <use x="63.623047" xlink:href="#DejaVuSans-50"/>
      </g>
     </g>
    </g>
    <g id="xtick_16">
     <g id="line2d_52">
      <g>
       <use style="stroke:#000000;stroke-width:1.25;" x="626.306902" xlink:href="#m28f01776c1" y="579.167884"/>
      </g>
     </g>
     <g id="text_42">
      <!-- 64 -->
      <g style="fill:#262626;" transform="translate(622.663557 603.218186)rotate(-45)scale(0.143 -0.143)">
       <use xlink:href="#DejaVuSans-54"/>
       <use x="63.623047" xlink:href="#DejaVuSans-52"/>
      </g>
     </g>
    </g>
    <g id="xtick_17">
     <g id="line2d_53">
      <g>
       <use style="stroke:#000000;stroke-width:1.25;" x="660.881467" xlink:href="#m28f01776c1" y="579.167884"/>
      </g>
     </g>
     <g id="text_43">
      <!-- 128 -->
      <g style="fill:#262626;" transform="translate(654.02136 609.651709)rotate(-45)scale(0.143 -0.143)">
       <use xlink:href="#DejaVuSans-49"/>
       <use x="63.623047" xlink:href="#DejaVuSans-50"/>
       <use x="127.246094" xlink:href="#DejaVuSans-56"/>
      </g>
     </g>
    </g>
    <g id="xtick_18">
     <g id="line2d_54">
      <g>
       <use style="stroke:#000000;stroke-width:1.25;" x="695.456032" xlink:href="#m28f01776c1" y="579.167884"/>
      </g>
     </g>
     <g id="text_44">
      <!-- 256 -->
      <g style="fill:#262626;" transform="translate(688.595925 609.651709)rotate(-45)scale(0.143 -0.143)">
       <use xlink:href="#DejaVuSans-50"/>
       <use x="63.623047" xlink:href="#DejaVuSans-53"/>
       <use x="127.246094" xlink:href="#DejaVuSans-54"/>
      </g>
     </g>
    </g>
    <g id="xtick_19">
     <g id="line2d_55">
      <g>
       <use style="stroke:#000000;stroke-width:1.25;" x="730.030597" xlink:href="#m28f01776c1" y="579.167884"/>
      </g>
     </g>
     <g id="text_45">
      <!-- 512 -->
      <g style="fill:#262626;" transform="translate(723.170491 609.651709)rotate(-45)scale(0.143 -0.143)">
       <use xlink:href="#DejaVuSans-53"/>
       <use x="63.623047" xlink:href="#DejaVuSans-49"/>
       <use x="127.246094" xlink:href="#DejaVuSans-50"/>
      </g>
     </g>
    </g>
    <g id="xtick_20">
     <g id="line2d_56">
      <g>
       <use style="stroke:#000000;stroke-width:1.25;" x="764.605163" xlink:href="#m28f01776c1" y="579.167884"/>
      </g>
     </g>
     <g id="text_46">
      <!-- 1024 -->
      <g style="fill:#262626;" transform="translate(754.528294 616.085231)rotate(-45)scale(0.143 -0.143)">
       <use xlink:href="#DejaVuSans-49"/>
       <use x="63.623047" xlink:href="#DejaVuSans-48"/>
       <use x="127.246094" xlink:href="#DejaVuSans-50"/>
       <use x="190.869141" xlink:href="#DejaVuSans-52"/>
      </g>
     </g>
    </g>
    <g id="xtick_21">
     <g id="line2d_57">
      <g>
       <use style="stroke:#000000;stroke-width:1.25;" x="799.179728" xlink:href="#m28f01776c1" y="579.167884"/>
      </g>
     </g>
     <g id="text_47">
      <!-- 2048 -->
      <g style="fill:#262626;" transform="translate(789.102859 616.085231)rotate(-45)scale(0.143 -0.143)">
       <use xlink:href="#DejaVuSans-50"/>
       <use x="63.623047" xlink:href="#DejaVuSans-48"/>
       <use x="127.246094" xlink:href="#DejaVuSans-52"/>
       <use x="190.869141" xlink:href="#DejaVuSans-56"/>
      </g>
     </g>
    </g>
    <g id="xtick_22">
     <g id="line2d_58">
      <g>
       <use style="stroke:#000000;stroke-width:1.25;" x="833.754293" xlink:href="#m28f01776c1" y="579.167884"/>
      </g>
     </g>
     <g id="text_48">
      <!-- 4096 -->
      <g style="fill:#262626;" transform="translate(823.677424 616.085231)rotate(-45)scale(0.143 -0.143)">
       <use xlink:href="#DejaVuSans-52"/>
       <use x="63.623047" xlink:href="#DejaVuSans-48"/>
       <use x="127.246094" xlink:href="#DejaVuSans-57"/>
       <use x="190.869141" xlink:href="#DejaVuSans-54"/>
      </g>
     </g>
    </g>
    <g id="text_49">
     <!-- Seed -->
     <g style="fill:#262626;" transform="translate(658.666312 634.041696)scale(0.156 -0.156)">
      <use xlink:href="#DejaVuSans-83"/>
      <use x="63.476562" xlink:href="#DejaVuSans-101"/>
      <use x="125" xlink:href="#DejaVuSans-101"/>
      <use x="186.523438" xlink:href="#DejaVuSans-100"/>
     </g>
    </g>
   </g>
   <g id="matplotlib.axis_8">
    <g id="ytick_17">
     <g id="text_50">
      <!-- 0.50 -->
      <g style="fill:#262626;" transform="translate(465.684809 534.167753)scale(0.143 -0.143)">
       <use xlink:href="#DejaVuSans-48"/>
       <use x="63.623047" xlink:href="#DejaVuSans-46"/>
       <use x="95.410156" xlink:href="#DejaVuSans-53"/>
       <use x="159.033203" xlink:href="#DejaVuSans-48"/>
      </g>
     </g>
    </g>
    <g id="ytick_18">
     <g id="text_51">
      <!-- 0.55 -->
      <g style="fill:#262626;" transform="translate(465.684809 478.702218)scale(0.143 -0.143)">
       <use xlink:href="#DejaVuSans-48"/>
       <use x="63.623047" xlink:href="#DejaVuSans-46"/>
       <use x="95.410156" xlink:href="#DejaVuSans-53"/>
       <use x="159.033203" xlink:href="#DejaVuSans-53"/>
      </g>
     </g>
    </g>
    <g id="ytick_19">
     <g id="text_52">
      <!-- 0.60 -->
      <g style="fill:#262626;" transform="translate(465.684809 423.236682)scale(0.143 -0.143)">
       <use xlink:href="#DejaVuSans-48"/>
       <use x="63.623047" xlink:href="#DejaVuSans-46"/>
       <use x="95.410156" xlink:href="#DejaVuSans-54"/>
       <use x="159.033203" xlink:href="#DejaVuSans-48"/>
      </g>
     </g>
    </g>
    <g id="ytick_20">
     <g id="text_53">
      <!-- 0.65 -->
      <g style="fill:#262626;" transform="translate(465.684809 367.771147)scale(0.143 -0.143)">
       <use xlink:href="#DejaVuSans-48"/>
       <use x="63.623047" xlink:href="#DejaVuSans-46"/>
       <use x="95.410156" xlink:href="#DejaVuSans-54"/>
       <use x="159.033203" xlink:href="#DejaVuSans-53"/>
      </g>
     </g>
    </g>
    <g id="text_54">
     <!-- Test RMSE -->
     <g style="fill:#262626;" transform="translate(458.440496 489.181895)rotate(-90)scale(0.156 -0.156)">
      <use xlink:href="#DejaVuSans-84"/>
      <use x="60.818359" xlink:href="#DejaVuSans-101"/>
      <use x="122.341797" xlink:href="#DejaVuSans-115"/>
      <use x="174.441406" xlink:href="#DejaVuSans-116"/>
      <use x="213.650391" xlink:href="#DejaVuSans-32"/>
      <use x="245.4375" xlink:href="#DejaVuSans-82"/>
      <use x="314.919922" xlink:href="#DejaVuSans-77"/>
      <use x="401.199219" xlink:href="#DejaVuSans-83"/>
      <use x="464.675781" xlink:href="#DejaVuSans-69"/>
     </g>
    </g>
   </g>
   <g id="line2d_59">
    <path clip-path="url(#p88573c1bb9)" d="M 522.583207 390.049101 
L 557.157772 392.854083 
L 591.732337 328.773391 
L 626.306902 371.104298 
L 660.881467 339.241286 
L 695.456032 382.35096 
L 730.030597 494.405082 
L 764.605163 520.979174 
L 799.179728 411.782661 
L 833.754293 441.302518 
" style="fill:none;stroke:#1f77b4;stroke-linecap:round;stroke-width:2.5;"/>
    <g clip-path="url(#p88573c1bb9)">
     <use style="fill:#1f77b4;stroke:#ffffff;stroke-width:0.75;" x="522.583207" xlink:href="#m931a3f6504" y="390.049101"/>
     <use style="fill:#1f77b4;stroke:#ffffff;stroke-width:0.75;" x="557.157772" xlink:href="#m931a3f6504" y="392.854083"/>
     <use style="fill:#1f77b4;stroke:#ffffff;stroke-width:0.75;" x="591.732337" xlink:href="#m931a3f6504" y="328.773391"/>
     <use style="fill:#1f77b4;stroke:#ffffff;stroke-width:0.75;" x="626.306902" xlink:href="#m931a3f6504" y="371.104298"/>
     <use style="fill:#1f77b4;stroke:#ffffff;stroke-width:0.75;" x="660.881467" xlink:href="#m931a3f6504" y="339.241286"/>
     <use style="fill:#1f77b4;stroke:#ffffff;stroke-width:0.75;" x="695.456032" xlink:href="#m931a3f6504" y="382.35096"/>
     <use style="fill:#1f77b4;stroke:#ffffff;stroke-width:0.75;" x="730.030597" xlink:href="#m931a3f6504" y="494.405082"/>
     <use style="fill:#1f77b4;stroke:#ffffff;stroke-width:0.75;" x="764.605163" xlink:href="#m931a3f6504" y="520.979174"/>
     <use style="fill:#1f77b4;stroke:#ffffff;stroke-width:0.75;" x="799.179728" xlink:href="#m931a3f6504" y="411.782661"/>
     <use style="fill:#1f77b4;stroke:#ffffff;stroke-width:0.75;" x="833.754293" xlink:href="#m931a3f6504" y="441.302518"/>
    </g>
   </g>
   <g id="line2d_60">
    <path clip-path="url(#p88573c1bb9)" d="M 522.583207 424.006368 
L 557.157772 364.463863 
L 591.732337 390.429181 
L 626.306902 448.835797 
L 660.881467 393.229202 
L 695.456032 433.032602 
L 730.030597 567.244337 
L 764.605163 494.832596 
L 799.179728 418.286966 
L 833.754293 458.503053 
" style="fill:none;stroke:#ff7f0e;stroke-linecap:round;stroke-width:2.5;"/>
    <g clip-path="url(#p88573c1bb9)">
     <use style="fill:#ff7f0e;stroke:#ffffff;stroke-width:0.75;" x="522.583207" xlink:href="#m7f47a6582b" y="424.006368"/>
     <use style="fill:#ff7f0e;stroke:#ffffff;stroke-width:0.75;" x="557.157772" xlink:href="#m7f47a6582b" y="364.463863"/>
     <use style="fill:#ff7f0e;stroke:#ffffff;stroke-width:0.75;" x="591.732337" xlink:href="#m7f47a6582b" y="390.429181"/>
     <use style="fill:#ff7f0e;stroke:#ffffff;stroke-width:0.75;" x="626.306902" xlink:href="#m7f47a6582b" y="448.835797"/>
     <use style="fill:#ff7f0e;stroke:#ffffff;stroke-width:0.75;" x="660.881467" xlink:href="#m7f47a6582b" y="393.229202"/>
     <use style="fill:#ff7f0e;stroke:#ffffff;stroke-width:0.75;" x="695.456032" xlink:href="#m7f47a6582b" y="433.032602"/>
     <use style="fill:#ff7f0e;stroke:#ffffff;stroke-width:0.75;" x="730.030597" xlink:href="#m7f47a6582b" y="567.244337"/>
     <use style="fill:#ff7f0e;stroke:#ffffff;stroke-width:0.75;" x="764.605163" xlink:href="#m7f47a6582b" y="494.832596"/>
     <use style="fill:#ff7f0e;stroke:#ffffff;stroke-width:0.75;" x="799.179728" xlink:href="#m7f47a6582b" y="418.286966"/>
     <use style="fill:#ff7f0e;stroke:#ffffff;stroke-width:0.75;" x="833.754293" xlink:href="#m7f47a6582b" y="458.503053"/>
    </g>
   </g>
   <g id="line2d_61"/>
   <g id="line2d_62"/>
   <g id="line2d_63"/>
   <g id="line2d_64"/>
   <g id="patch_33">
    <path d="M 507.024653 579.167884 
L 507.024653 316.849844 
" style="fill:none;stroke:#262626;stroke-linecap:square;stroke-linejoin:miter;stroke-width:1.25;"/>
   </g>
   <g id="patch_34">
    <path d="M 849.312847 579.167884 
L 849.312847 316.849844 
" style="fill:none;stroke:#262626;stroke-linecap:square;stroke-linejoin:miter;stroke-width:1.25;"/>
   </g>
   <g id="patch_35">
    <path d="M 507.024653 579.167884 
L 849.312847 579.167884 
" style="fill:none;stroke:#262626;stroke-linecap:square;stroke-linejoin:miter;stroke-width:1.25;"/>
   </g>
   <g id="patch_36">
    <path d="M 507.024653 316.849844 
L 849.312847 316.849844 
" style="fill:none;stroke:#262626;stroke-linecap:square;stroke-linejoin:miter;stroke-width:1.25;"/>
   </g>
   <g id="legend_4">
    <g id="patch_37">
     <path d="M 517.104653 571.967884 
L 690.635903 571.967884 
Q 693.515903 571.967884 693.515903 569.087884 
L 693.515903 528.254884 
Q 693.515903 525.374884 690.635903 525.374884 
L 517.104653 525.374884 
Q 514.224653 525.374884 514.224653 528.254884 
L 514.224653 569.087884 
Q 514.224653 571.967884 517.104653 571.967884 
z
" style="fill:#ffffff;opacity:0.8;stroke:#cccccc;stroke-linejoin:miter;"/>
    </g>
    <g id="line2d_65">
     <path d="M 519.984653 537.036634 
L 548.784653 537.036634 
" style="fill:none;stroke:#1f77b4;stroke-linecap:round;stroke-width:1.5;"/>
    </g>
    <g id="line2d_66"/>
    <g id="text_55">
     <!-- MolMapNet-OOTB -->
     <g style="fill:#262626;" transform="translate(560.304653 542.076634)scale(0.144 -0.144)">
      <use xlink:href="#DejaVuSans-77"/>
      <use x="86.279297" xlink:href="#DejaVuSans-111"/>
      <use x="147.460938" xlink:href="#DejaVuSans-108"/>
      <use x="175.244141" xlink:href="#DejaVuSans-77"/>
      <use x="261.523438" xlink:href="#DejaVuSans-97"/>
      <use x="322.802734" xlink:href="#DejaVuSans-112"/>
      <use x="386.279297" xlink:href="#DejaVuSans-78"/>
      <use x="461.083984" xlink:href="#DejaVuSans-101"/>
      <use x="522.607422" xlink:href="#DejaVuSans-116"/>
      <use x="561.816406" xlink:href="#DejaVuSans-45"/>
      <use x="597.931641" xlink:href="#DejaVuSans-79"/>
      <use x="676.642578" xlink:href="#DejaVuSans-79"/>
      <use x="755.353516" xlink:href="#DejaVuSans-84"/>
      <use x="816.4375" xlink:href="#DejaVuSans-66"/>
     </g>
    </g>
    <g id="line2d_67">
     <path d="M 519.984653 558.173134 
L 548.784653 558.173134 
" style="fill:none;stroke:#ff7f0e;stroke-linecap:round;stroke-width:1.5;"/>
    </g>
    <g id="line2d_68"/>
    <g id="text_56">
     <!-- MolMapNet-OPT -->
     <g style="fill:#262626;" transform="translate(560.304653 563.213134)scale(0.144 -0.144)">
      <use xlink:href="#DejaVuSans-77"/>
      <use x="86.279297" xlink:href="#DejaVuSans-111"/>
      <use x="147.460938" xlink:href="#DejaVuSans-108"/>
      <use x="175.244141" xlink:href="#DejaVuSans-77"/>
      <use x="261.523438" xlink:href="#DejaVuSans-97"/>
      <use x="322.802734" xlink:href="#DejaVuSans-112"/>
      <use x="386.279297" xlink:href="#DejaVuSans-78"/>
      <use x="461.083984" xlink:href="#DejaVuSans-101"/>
      <use x="522.607422" xlink:href="#DejaVuSans-116"/>
      <use x="561.816406" xlink:href="#DejaVuSans-45"/>
      <use x="597.931641" xlink:href="#DejaVuSans-79"/>
      <use x="676.642578" xlink:href="#DejaVuSans-80"/>
      <use x="736.945312" xlink:href="#DejaVuSans-84"/>
     </g>
    </g>
   </g>
  </g>
 </g>
 <defs>
  <clipPath id="p5a95ddb069">
   <rect height="262.31804" width="342.288194" x="62.05" y="28.3"/>
  </clipPath>
  <clipPath id="p7f34fc8556">
   <rect height="262.31804" width="342.288194" x="507.024653" y="28.3"/>
  </clipPath>
  <clipPath id="pb331978335">
   <rect height="262.31804" width="342.288194" x="62.05" y="316.849844"/>
  </clipPath>
  <clipPath id="p88573c1bb9">
   <rect height="262.31804" width="342.288194" x="507.024653" y="316.849844"/>
  </clipPath>
 </defs>
</svg>
