<?xml version="1.0" encoding="utf-8" standalone="no"?>
<!DOCTYPE svg PUBLIC "-//W3C//DTD SVG 1.1//EN"
  "http://www.w3.org/Graphics/SVG/1.1/DTD/svg11.dtd">
<!-- Created with matplotlib (https://matplotlib.org/) -->
<svg height="432pt" version="1.1" viewBox="0 0 1224 432" width="1224pt" xmlns="http://www.w3.org/2000/svg" xmlns:xlink="http://www.w3.org/1999/xlink">
 <defs>
  <style type="text/css">
*{stroke-linecap:butt;stroke-linejoin:round;}
  </style>
 </defs>
 <g id="figure_1">
  <g id="patch_1">
   <path d="M 0 432 
L 1224 432 
L 1224 0 
L 0 0 
z
" style="fill:#ffffff;"/>
  </g>
  <g id="axes_1">
   <g id="patch_2">
    <path d="M 106.431641 333.465144 
L 1207.152 333.465144 
L 1207.152 16.848 
L 106.431641 16.848 
z
" style="fill:#ffffff;"/>
   </g>
   <g id="matplotlib.axis_1">
    <g id="xtick_1">
     <g id="line2d_1">
      <defs>
       <path d="M 0 0 
L 0 -6 
" id="m2778d43476" style="stroke:#808080;stroke-width:2;"/>
      </defs>
      <g>
       <use style="fill:#808080;stroke:#808080;stroke-width:2;" x="106.431641" xlink:href="#m2778d43476" y="333.465144"/>
      </g>
     </g>
     <g id="text_1">
      <!-- Verubecestat -->
      <defs>
       <path d="M 28.609375 0 
L 0.78125 72.90625 
L 11.078125 72.90625 
L 34.1875 11.53125 
L 57.328125 72.90625 
L 67.578125 72.90625 
L 39.796875 0 
z
" id="DejaVuSans-86"/>
       <path d="M 56.203125 29.59375 
L 56.203125 25.203125 
L 14.890625 25.203125 
Q 15.484375 15.921875 20.484375 11.0625 
Q 25.484375 6.203125 34.421875 6.203125 
Q 39.59375 6.203125 44.453125 7.46875 
Q 49.3125 8.734375 54.109375 11.28125 
L 54.109375 2.78125 
Q 49.265625 0.734375 44.1875 -0.34375 
Q 39.109375 -1.421875 33.890625 -1.421875 
Q 20.796875 -1.421875 13.15625 6.1875 
Q 5.515625 13.8125 5.515625 26.8125 
Q 5.515625 40.234375 12.765625 48.109375 
Q 20.015625 56 32.328125 56 
Q 43.359375 56 49.78125 48.890625 
Q 56.203125 41.796875 56.203125 29.59375 
z
M 47.21875 32.234375 
Q 47.125 39.59375 43.09375 43.984375 
Q 39.0625 48.390625 32.421875 48.390625 
Q 24.90625 48.390625 20.390625 44.140625 
Q 15.875 39.890625 15.1875 32.171875 
z
" id="DejaVuSans-101"/>
       <path d="M 41.109375 46.296875 
Q 39.59375 47.171875 37.8125 47.578125 
Q 36.03125 48 33.890625 48 
Q 26.265625 48 22.1875 43.046875 
Q 18.109375 38.09375 18.109375 28.8125 
L 18.109375 0 
L 9.078125 0 
L 9.078125 54.6875 
L 18.109375 54.6875 
L 18.109375 46.1875 
Q 20.953125 51.171875 25.484375 53.578125 
Q 30.03125 56 36.53125 56 
Q 37.453125 56 38.578125 55.875 
Q 39.703125 55.765625 41.0625 55.515625 
z
" id="DejaVuSans-114"/>
       <path d="M 8.5 21.578125 
L 8.5 54.6875 
L 17.484375 54.6875 
L 17.484375 21.921875 
Q 17.484375 14.15625 20.5 10.265625 
Q 23.53125 6.390625 29.59375 6.390625 
Q 36.859375 6.390625 41.078125 11.03125 
Q 45.3125 15.671875 45.3125 23.6875 
L 45.3125 54.6875 
L 54.296875 54.6875 
L 54.296875 0 
L 45.3125 0 
L 45.3125 8.40625 
Q 42.046875 3.421875 37.71875 1 
Q 33.40625 -1.421875 27.6875 -1.421875 
Q 18.265625 -1.421875 13.375 4.4375 
Q 8.5 10.296875 8.5 21.578125 
z
M 31.109375 56 
z
" id="DejaVuSans-117"/>
       <path d="M 48.6875 27.296875 
Q 48.6875 37.203125 44.609375 42.84375 
Q 40.53125 48.484375 33.40625 48.484375 
Q 26.265625 48.484375 22.1875 42.84375 
Q 18.109375 37.203125 18.109375 27.296875 
Q 18.109375 17.390625 22.1875 11.75 
Q 26.265625 6.109375 33.40625 6.109375 
Q 40.53125 6.109375 44.609375 11.75 
Q 48.6875 17.390625 48.6875 27.296875 
z
M 18.109375 46.390625 
Q 20.953125 51.265625 25.265625 53.625 
Q 29.59375 56 35.59375 56 
Q 45.5625 56 51.78125 48.09375 
Q 58.015625 40.1875 58.015625 27.296875 
Q 58.015625 14.40625 51.78125 6.484375 
Q 45.5625 -1.421875 35.59375 -1.421875 
Q 29.59375 -1.421875 25.265625 0.953125 
Q 20.953125 3.328125 18.109375 8.203125 
L 18.109375 0 
L 9.078125 0 
L 9.078125 75.984375 
L 18.109375 75.984375 
z
" id="DejaVuSans-98"/>
       <path d="M 48.78125 52.59375 
L 48.78125 44.1875 
Q 44.96875 46.296875 41.140625 47.34375 
Q 37.3125 48.390625 33.40625 48.390625 
Q 24.65625 48.390625 19.8125 42.84375 
Q 14.984375 37.3125 14.984375 27.296875 
Q 14.984375 17.28125 19.8125 11.734375 
Q 24.65625 6.203125 33.40625 6.203125 
Q 37.3125 6.203125 41.140625 7.25 
Q 44.96875 8.296875 48.78125 10.40625 
L 48.78125 2.09375 
Q 45.015625 0.34375 40.984375 -0.53125 
Q 36.96875 -1.421875 32.421875 -1.421875 
Q 20.0625 -1.421875 12.78125 6.34375 
Q 5.515625 14.109375 5.515625 27.296875 
Q 5.515625 40.671875 12.859375 48.328125 
Q 20.21875 56 33.015625 56 
Q 37.15625 56 41.109375 55.140625 
Q 45.0625 54.296875 48.78125 52.59375 
z
" id="DejaVuSans-99"/>
       <path d="M 44.28125 53.078125 
L 44.28125 44.578125 
Q 40.484375 46.53125 36.375 47.5 
Q 32.28125 48.484375 27.875 48.484375 
Q 21.1875 48.484375 17.84375 46.4375 
Q 14.5 44.390625 14.5 40.28125 
Q 14.5 37.15625 16.890625 35.375 
Q 19.28125 33.59375 26.515625 31.984375 
L 29.59375 31.296875 
Q 39.15625 29.25 43.1875 25.515625 
Q 47.21875 21.78125 47.21875 15.09375 
Q 47.21875 7.46875 41.1875 3.015625 
Q 35.15625 -1.421875 24.609375 -1.421875 
Q 20.21875 -1.421875 15.453125 -0.5625 
Q 10.6875 0.296875 5.421875 2 
L 5.421875 11.28125 
Q 10.40625 8.6875 15.234375 7.390625 
Q 20.0625 6.109375 24.8125 6.109375 
Q 31.15625 6.109375 34.5625 8.28125 
Q 37.984375 10.453125 37.984375 14.40625 
Q 37.984375 18.0625 35.515625 20.015625 
Q 33.0625 21.96875 24.703125 23.78125 
L 21.578125 24.515625 
Q 13.234375 26.265625 9.515625 29.90625 
Q 5.8125 33.546875 5.8125 39.890625 
Q 5.8125 47.609375 11.28125 51.796875 
Q 16.75 56 26.8125 56 
Q 31.78125 56 36.171875 55.265625 
Q 40.578125 54.546875 44.28125 53.078125 
z
" id="DejaVuSans-115"/>
       <path d="M 18.3125 70.21875 
L 18.3125 54.6875 
L 36.8125 54.6875 
L 36.8125 47.703125 
L 18.3125 47.703125 
L 18.3125 18.015625 
Q 18.3125 11.328125 20.140625 9.421875 
Q 21.96875 7.515625 27.59375 7.515625 
L 36.8125 7.515625 
L 36.8125 0 
L 27.59375 0 
Q 17.1875 0 13.234375 3.875 
Q 9.28125 7.765625 9.28125 18.015625 
L 9.28125 47.703125 
L 2.6875 47.703125 
L 2.6875 54.6875 
L 9.28125 54.6875 
L 9.28125 70.21875 
z
" id="DejaVuSans-116"/>
       <path d="M 34.28125 27.484375 
Q 23.390625 27.484375 19.1875 25 
Q 14.984375 22.515625 14.984375 16.5 
Q 14.984375 11.71875 18.140625 8.90625 
Q 21.296875 6.109375 26.703125 6.109375 
Q 34.1875 6.109375 38.703125 11.40625 
Q 43.21875 16.703125 43.21875 25.484375 
L 43.21875 27.484375 
z
M 52.203125 31.203125 
L 52.203125 0 
L 43.21875 0 
L 43.21875 8.296875 
Q 40.140625 3.328125 35.546875 0.953125 
Q 30.953125 -1.421875 24.3125 -1.421875 
Q 15.921875 -1.421875 10.953125 3.296875 
Q 6 8.015625 6 15.921875 
Q 6 25.140625 12.171875 29.828125 
Q 18.359375 34.515625 30.609375 34.515625 
L 43.21875 34.515625 
L 43.21875 35.40625 
Q 43.21875 41.609375 39.140625 45 
Q 35.0625 48.390625 27.6875 48.390625 
Q 23 48.390625 18.546875 47.265625 
Q 14.109375 46.140625 10.015625 43.890625 
L 10.015625 52.203125 
Q 14.9375 54.109375 19.578125 55.046875 
Q 24.21875 56 28.609375 56 
Q 40.484375 56 46.34375 49.84375 
Q 52.203125 43.703125 52.203125 31.203125 
z
" id="DejaVuSans-97"/>
      </defs>
      <g style="fill:#262626;" transform="translate(22.264895 394.110361)rotate(-30)scale(0.143 -0.143)">
       <use xlink:href="#DejaVuSans-86"/>
       <use x="68.298828" xlink:href="#DejaVuSans-101"/>
       <use x="129.822266" xlink:href="#DejaVuSans-114"/>
       <use x="170.935547" xlink:href="#DejaVuSans-117"/>
       <use x="234.314453" xlink:href="#DejaVuSans-98"/>
       <use x="297.791016" xlink:href="#DejaVuSans-101"/>
       <use x="359.314453" xlink:href="#DejaVuSans-99"/>
       <use x="414.294922" xlink:href="#DejaVuSans-101"/>
       <use x="475.818359" xlink:href="#DejaVuSans-115"/>
       <use x="527.917969" xlink:href="#DejaVuSans-116"/>
       <use x="567.126953" xlink:href="#DejaVuSans-97"/>
       <use x="628.40625" xlink:href="#DejaVuSans-116"/>
      </g>
     </g>
    </g>
    <g id="xtick_2">
     <g id="line2d_2">
      <g>
       <use style="fill:#808080;stroke:#808080;stroke-width:2;" x="150.460456" xlink:href="#m2778d43476" y="333.465144"/>
      </g>
     </g>
     <g id="text_2">
      <!-- Elenbecestat -->
      <defs>
       <path d="M 9.8125 72.90625 
L 55.90625 72.90625 
L 55.90625 64.59375 
L 19.671875 64.59375 
L 19.671875 43.015625 
L 54.390625 43.015625 
L 54.390625 34.71875 
L 19.671875 34.71875 
L 19.671875 8.296875 
L 56.78125 8.296875 
L 56.78125 0 
L 9.8125 0 
z
" id="DejaVuSans-69"/>
       <path d="M 9.421875 75.984375 
L 18.40625 75.984375 
L 18.40625 0 
L 9.421875 0 
z
" id="DejaVuSans-108"/>
       <path d="M 54.890625 33.015625 
L 54.890625 0 
L 45.90625 0 
L 45.90625 32.71875 
Q 45.90625 40.484375 42.875 44.328125 
Q 39.84375 48.1875 33.796875 48.1875 
Q 26.515625 48.1875 22.3125 43.546875 
Q 18.109375 38.921875 18.109375 30.90625 
L 18.109375 0 
L 9.078125 0 
L 9.078125 54.6875 
L 18.109375 54.6875 
L 18.109375 46.1875 
Q 21.34375 51.125 25.703125 53.5625 
Q 30.078125 56 35.796875 56 
Q 45.21875 56 50.046875 50.171875 
Q 54.890625 44.34375 54.890625 33.015625 
z
" id="DejaVuSans-110"/>
      </defs>
      <g style="fill:#262626;" transform="translate(68.577039 392.79208)rotate(-30)scale(0.143 -0.143)">
       <use xlink:href="#DejaVuSans-69"/>
       <use x="63.183594" xlink:href="#DejaVuSans-108"/>
       <use x="90.966797" xlink:href="#DejaVuSans-101"/>
       <use x="152.490234" xlink:href="#DejaVuSans-110"/>
       <use x="215.869141" xlink:href="#DejaVuSans-98"/>
       <use x="279.345703" xlink:href="#DejaVuSans-101"/>
       <use x="340.869141" xlink:href="#DejaVuSans-99"/>
       <use x="395.849609" xlink:href="#DejaVuSans-101"/>
       <use x="457.373047" xlink:href="#DejaVuSans-115"/>
       <use x="509.472656" xlink:href="#DejaVuSans-116"/>
       <use x="548.681641" xlink:href="#DejaVuSans-97"/>
       <use x="609.960938" xlink:href="#DejaVuSans-116"/>
      </g>
     </g>
    </g>
    <g id="xtick_3">
     <g id="line2d_3">
      <g>
       <use style="fill:#808080;stroke:#808080;stroke-width:2;" x="194.48927" xlink:href="#m2778d43476" y="333.465144"/>
      </g>
     </g>
     <g id="text_3">
      <!-- Lanabecestat -->
      <defs>
       <path d="M 9.8125 72.90625 
L 19.671875 72.90625 
L 19.671875 8.296875 
L 55.171875 8.296875 
L 55.171875 0 
L 9.8125 0 
z
" id="DejaVuSans-76"/>
      </defs>
      <g style="fill:#262626;" transform="translate(109.413061 394.635439)rotate(-30)scale(0.143 -0.143)">
       <use xlink:href="#DejaVuSans-76"/>
       <use x="55.712891" xlink:href="#DejaVuSans-97"/>
       <use x="116.992188" xlink:href="#DejaVuSans-110"/>
       <use x="180.371094" xlink:href="#DejaVuSans-97"/>
       <use x="241.650391" xlink:href="#DejaVuSans-98"/>
       <use x="305.126953" xlink:href="#DejaVuSans-101"/>
       <use x="366.650391" xlink:href="#DejaVuSans-99"/>
       <use x="421.630859" xlink:href="#DejaVuSans-101"/>
       <use x="483.154297" xlink:href="#DejaVuSans-115"/>
       <use x="535.253906" xlink:href="#DejaVuSans-116"/>
       <use x="574.462891" xlink:href="#DejaVuSans-97"/>
       <use x="635.742188" xlink:href="#DejaVuSans-116"/>
      </g>
     </g>
    </g>
    <g id="xtick_4">
     <g id="line2d_4">
      <g>
       <use style="fill:#808080;stroke:#808080;stroke-width:2;" x="238.518084" xlink:href="#m2778d43476" y="333.465144"/>
      </g>
     </g>
     <g id="text_4">
      <!-- Atabecestat -->
      <defs>
       <path d="M 34.1875 63.1875 
L 20.796875 26.90625 
L 47.609375 26.90625 
z
M 28.609375 72.90625 
L 39.796875 72.90625 
L 67.578125 0 
L 57.328125 0 
L 50.6875 18.703125 
L 17.828125 18.703125 
L 11.1875 0 
L 0.78125 0 
z
" id="DejaVuSans-65"/>
      </defs>
      <g style="fill:#262626;" transform="translate(162.455225 389.43158)rotate(-30)scale(0.143 -0.143)">
       <use xlink:href="#DejaVuSans-65"/>
       <use x="68.392578" xlink:href="#DejaVuSans-116"/>
       <use x="107.601562" xlink:href="#DejaVuSans-97"/>
       <use x="168.880859" xlink:href="#DejaVuSans-98"/>
       <use x="232.357422" xlink:href="#DejaVuSans-101"/>
       <use x="293.880859" xlink:href="#DejaVuSans-99"/>
       <use x="348.861328" xlink:href="#DejaVuSans-101"/>
       <use x="410.384766" xlink:href="#DejaVuSans-115"/>
       <use x="462.484375" xlink:href="#DejaVuSans-116"/>
       <use x="501.693359" xlink:href="#DejaVuSans-97"/>
       <use x="562.972656" xlink:href="#DejaVuSans-116"/>
      </g>
     </g>
    </g>
    <g id="xtick_5">
     <g id="line2d_5">
      <g>
       <use style="fill:#808080;stroke:#808080;stroke-width:2;" x="282.546899" xlink:href="#m2778d43476" y="333.465144"/>
      </g>
     </g>
     <g id="text_5">
      <!-- Umibecestat -->
      <defs>
       <path d="M 8.6875 72.90625 
L 18.609375 72.90625 
L 18.609375 28.609375 
Q 18.609375 16.890625 22.84375 11.734375 
Q 27.09375 6.59375 36.625 6.59375 
Q 46.09375 6.59375 50.34375 11.734375 
Q 54.59375 16.890625 54.59375 28.609375 
L 54.59375 72.90625 
L 64.5 72.90625 
L 64.5 27.390625 
Q 64.5 13.140625 57.4375 5.859375 
Q 50.390625 -1.421875 36.625 -1.421875 
Q 22.796875 -1.421875 15.734375 5.859375 
Q 8.6875 13.140625 8.6875 27.390625 
z
" id="DejaVuSans-85"/>
       <path d="M 52 44.1875 
Q 55.375 50.25 60.0625 53.125 
Q 64.75 56 71.09375 56 
Q 79.640625 56 84.28125 50.015625 
Q 88.921875 44.046875 88.921875 33.015625 
L 88.921875 0 
L 79.890625 0 
L 79.890625 32.71875 
Q 79.890625 40.578125 77.09375 44.375 
Q 74.3125 48.1875 68.609375 48.1875 
Q 61.625 48.1875 57.5625 43.546875 
Q 53.515625 38.921875 53.515625 30.90625 
L 53.515625 0 
L 44.484375 0 
L 44.484375 32.71875 
Q 44.484375 40.625 41.703125 44.40625 
Q 38.921875 48.1875 33.109375 48.1875 
Q 26.21875 48.1875 22.15625 43.53125 
Q 18.109375 38.875 18.109375 30.90625 
L 18.109375 0 
L 9.078125 0 
L 9.078125 54.6875 
L 18.109375 54.6875 
L 18.109375 46.1875 
Q 21.1875 51.21875 25.484375 53.609375 
Q 29.78125 56 35.6875 56 
Q 41.65625 56 45.828125 52.96875 
Q 50 49.953125 52 44.1875 
z
" id="DejaVuSans-109"/>
       <path d="M 9.421875 54.6875 
L 18.40625 54.6875 
L 18.40625 0 
L 9.421875 0 
z
M 9.421875 75.984375 
L 18.40625 75.984375 
L 18.40625 64.59375 
L 9.421875 64.59375 
z
" id="DejaVuSans-105"/>
      </defs>
      <g style="fill:#262626;" transform="translate(202.830711 391.54083)rotate(-30)scale(0.143 -0.143)">
       <use xlink:href="#DejaVuSans-85"/>
       <use x="73.193359" xlink:href="#DejaVuSans-109"/>
       <use x="170.605469" xlink:href="#DejaVuSans-105"/>
       <use x="198.388672" xlink:href="#DejaVuSans-98"/>
       <use x="261.865234" xlink:href="#DejaVuSans-101"/>
       <use x="323.388672" xlink:href="#DejaVuSans-99"/>
       <use x="378.369141" xlink:href="#DejaVuSans-101"/>
       <use x="439.892578" xlink:href="#DejaVuSans-115"/>
       <use x="491.992188" xlink:href="#DejaVuSans-116"/>
       <use x="531.201172" xlink:href="#DejaVuSans-97"/>
       <use x="592.480469" xlink:href="#DejaVuSans-116"/>
      </g>
     </g>
    </g>
    <g id="xtick_6">
     <g id="line2d_6">
      <g>
       <use style="fill:#808080;stroke:#808080;stroke-width:2;" x="326.575713" xlink:href="#m2778d43476" y="333.465144"/>
      </g>
     </g>
     <g id="text_6">
      <!-- [18F]PF-06684511 -->
      <defs>
       <path d="M 8.59375 75.984375 
L 29.296875 75.984375 
L 29.296875 69 
L 17.578125 69 
L 17.578125 -6.203125 
L 29.296875 -6.203125 
L 29.296875 -13.1875 
L 8.59375 -13.1875 
z
" id="DejaVuSans-91"/>
       <path d="M 12.40625 8.296875 
L 28.515625 8.296875 
L 28.515625 63.921875 
L 10.984375 60.40625 
L 10.984375 69.390625 
L 28.421875 72.90625 
L 38.28125 72.90625 
L 38.28125 8.296875 
L 54.390625 8.296875 
L 54.390625 0 
L 12.40625 0 
z
" id="DejaVuSans-49"/>
       <path d="M 31.78125 34.625 
Q 24.75 34.625 20.71875 30.859375 
Q 16.703125 27.09375 16.703125 20.515625 
Q 16.703125 13.921875 20.71875 10.15625 
Q 24.75 6.390625 31.78125 6.390625 
Q 38.8125 6.390625 42.859375 10.171875 
Q 46.921875 13.96875 46.921875 20.515625 
Q 46.921875 27.09375 42.890625 30.859375 
Q 38.875 34.625 31.78125 34.625 
z
M 21.921875 38.8125 
Q 15.578125 40.375 12.03125 44.71875 
Q 8.5 49.078125 8.5 55.328125 
Q 8.5 64.0625 14.71875 69.140625 
Q 20.953125 74.21875 31.78125 74.21875 
Q 42.671875 74.21875 48.875 69.140625 
Q 55.078125 64.0625 55.078125 55.328125 
Q 55.078125 49.078125 51.53125 44.71875 
Q 48 40.375 41.703125 38.8125 
Q 48.828125 37.15625 52.796875 32.3125 
Q 56.78125 27.484375 56.78125 20.515625 
Q 56.78125 9.90625 50.3125 4.234375 
Q 43.84375 -1.421875 31.78125 -1.421875 
Q 19.734375 -1.421875 13.25 4.234375 
Q 6.78125 9.90625 6.78125 20.515625 
Q 6.78125 27.484375 10.78125 32.3125 
Q 14.796875 37.15625 21.921875 38.8125 
z
M 18.3125 54.390625 
Q 18.3125 48.734375 21.84375 45.5625 
Q 25.390625 42.390625 31.78125 42.390625 
Q 38.140625 42.390625 41.71875 45.5625 
Q 45.3125 48.734375 45.3125 54.390625 
Q 45.3125 60.0625 41.71875 63.234375 
Q 38.140625 66.40625 31.78125 66.40625 
Q 25.390625 66.40625 21.84375 63.234375 
Q 18.3125 60.0625 18.3125 54.390625 
z
" id="DejaVuSans-56"/>
       <path d="M 9.8125 72.90625 
L 51.703125 72.90625 
L 51.703125 64.59375 
L 19.671875 64.59375 
L 19.671875 43.109375 
L 48.578125 43.109375 
L 48.578125 34.8125 
L 19.671875 34.8125 
L 19.671875 0 
L 9.8125 0 
z
" id="DejaVuSans-70"/>
       <path d="M 30.421875 75.984375 
L 30.421875 -13.1875 
L 9.71875 -13.1875 
L 9.71875 -6.203125 
L 21.390625 -6.203125 
L 21.390625 69 
L 9.71875 69 
L 9.71875 75.984375 
z
" id="DejaVuSans-93"/>
       <path d="M 19.671875 64.796875 
L 19.671875 37.40625 
L 32.078125 37.40625 
Q 38.96875 37.40625 42.71875 40.96875 
Q 46.484375 44.53125 46.484375 51.125 
Q 46.484375 57.671875 42.71875 61.234375 
Q 38.96875 64.796875 32.078125 64.796875 
z
M 9.8125 72.90625 
L 32.078125 72.90625 
Q 44.34375 72.90625 50.609375 67.359375 
Q 56.890625 61.8125 56.890625 51.125 
Q 56.890625 40.328125 50.609375 34.8125 
Q 44.34375 29.296875 32.078125 29.296875 
L 19.671875 29.296875 
L 19.671875 0 
L 9.8125 0 
z
" id="DejaVuSans-80"/>
       <path d="M 4.890625 31.390625 
L 31.203125 31.390625 
L 31.203125 23.390625 
L 4.890625 23.390625 
z
" id="DejaVuSans-45"/>
       <path d="M 31.78125 66.40625 
Q 24.171875 66.40625 20.328125 58.90625 
Q 16.5 51.421875 16.5 36.375 
Q 16.5 21.390625 20.328125 13.890625 
Q 24.171875 6.390625 31.78125 6.390625 
Q 39.453125 6.390625 43.28125 13.890625 
Q 47.125 21.390625 47.125 36.375 
Q 47.125 51.421875 43.28125 58.90625 
Q 39.453125 66.40625 31.78125 66.40625 
z
M 31.78125 74.21875 
Q 44.046875 74.21875 50.515625 64.515625 
Q 56.984375 54.828125 56.984375 36.375 
Q 56.984375 17.96875 50.515625 8.265625 
Q 44.046875 -1.421875 31.78125 -1.421875 
Q 19.53125 -1.421875 13.0625 8.265625 
Q 6.59375 17.96875 6.59375 36.375 
Q 6.59375 54.828125 13.0625 64.515625 
Q 19.53125 74.21875 31.78125 74.21875 
z
" id="DejaVuSans-48"/>
       <path d="M 33.015625 40.375 
Q 26.375 40.375 22.484375 35.828125 
Q 18.609375 31.296875 18.609375 23.390625 
Q 18.609375 15.53125 22.484375 10.953125 
Q 26.375 6.390625 33.015625 6.390625 
Q 39.65625 6.390625 43.53125 10.953125 
Q 47.40625 15.53125 47.40625 23.390625 
Q 47.40625 31.296875 43.53125 35.828125 
Q 39.65625 40.375 33.015625 40.375 
z
M 52.59375 71.296875 
L 52.59375 62.3125 
Q 48.875 64.0625 45.09375 64.984375 
Q 41.3125 65.921875 37.59375 65.921875 
Q 27.828125 65.921875 22.671875 59.328125 
Q 17.53125 52.734375 16.796875 39.40625 
Q 19.671875 43.65625 24.015625 45.921875 
Q 28.375 48.1875 33.59375 48.1875 
Q 44.578125 48.1875 50.953125 41.515625 
Q 57.328125 34.859375 57.328125 23.390625 
Q 57.328125 12.15625 50.6875 5.359375 
Q 44.046875 -1.421875 33.015625 -1.421875 
Q 20.359375 -1.421875 13.671875 8.265625 
Q 6.984375 17.96875 6.984375 36.375 
Q 6.984375 53.65625 15.1875 63.9375 
Q 23.390625 74.21875 37.203125 74.21875 
Q 40.921875 74.21875 44.703125 73.484375 
Q 48.484375 72.75 52.59375 71.296875 
z
" id="DejaVuSans-54"/>
       <path d="M 37.796875 64.3125 
L 12.890625 25.390625 
L 37.796875 25.390625 
z
M 35.203125 72.90625 
L 47.609375 72.90625 
L 47.609375 25.390625 
L 58.015625 25.390625 
L 58.015625 17.1875 
L 47.609375 17.1875 
L 47.609375 0 
L 37.796875 0 
L 37.796875 17.1875 
L 4.890625 17.1875 
L 4.890625 26.703125 
z
" id="DejaVuSans-52"/>
       <path d="M 10.796875 72.90625 
L 49.515625 72.90625 
L 49.515625 64.59375 
L 19.828125 64.59375 
L 19.828125 46.734375 
Q 21.96875 47.46875 24.109375 47.828125 
Q 26.265625 48.1875 28.421875 48.1875 
Q 40.625 48.1875 47.75 41.5 
Q 54.890625 34.8125 54.890625 23.390625 
Q 54.890625 11.625 47.5625 5.09375 
Q 40.234375 -1.421875 26.90625 -1.421875 
Q 22.3125 -1.421875 17.546875 -0.640625 
Q 12.796875 0.140625 7.71875 1.703125 
L 7.71875 11.625 
Q 12.109375 9.234375 16.796875 8.0625 
Q 21.484375 6.890625 26.703125 6.890625 
Q 35.15625 6.890625 40.078125 11.328125 
Q 45.015625 15.765625 45.015625 23.390625 
Q 45.015625 31 40.078125 35.4375 
Q 35.15625 39.890625 26.703125 39.890625 
Q 22.75 39.890625 18.8125 39.015625 
Q 14.890625 38.140625 10.796875 36.28125 
z
" id="DejaVuSans-53"/>
      </defs>
      <g style="fill:#262626;" transform="translate(210.450085 412.56183)rotate(-30)scale(0.143 -0.143)">
       <use xlink:href="#DejaVuSans-91"/>
       <use x="39.013672" xlink:href="#DejaVuSans-49"/>
       <use x="102.636719" xlink:href="#DejaVuSans-56"/>
       <use x="166.259766" xlink:href="#DejaVuSans-70"/>
       <use x="223.779297" xlink:href="#DejaVuSans-93"/>
       <use x="262.792969" xlink:href="#DejaVuSans-80"/>
       <use x="323.095703" xlink:href="#DejaVuSans-70"/>
       <use x="380.615234" xlink:href="#DejaVuSans-45"/>
       <use x="416.699219" xlink:href="#DejaVuSans-48"/>
       <use x="480.322266" xlink:href="#DejaVuSans-54"/>
       <use x="543.945312" xlink:href="#DejaVuSans-54"/>
       <use x="607.568359" xlink:href="#DejaVuSans-56"/>
       <use x="671.191406" xlink:href="#DejaVuSans-52"/>
       <use x="734.814453" xlink:href="#DejaVuSans-53"/>
       <use x="798.4375" xlink:href="#DejaVuSans-49"/>
       <use x="862.060547" xlink:href="#DejaVuSans-49"/>
      </g>
     </g>
    </g>
    <g id="xtick_7">
     <g id="line2d_7">
      <g>
       <use style="fill:#808080;stroke:#808080;stroke-width:2;" x="370.604527" xlink:href="#m2778d43476" y="333.465144"/>
      </g>
     </g>
     <g id="text_7">
      <!-- LY-3202626 -->
      <defs>
       <path d="M -0.203125 72.90625 
L 10.40625 72.90625 
L 30.609375 42.921875 
L 50.6875 72.90625 
L 61.28125 72.90625 
L 35.5 34.71875 
L 35.5 0 
L 25.59375 0 
L 25.59375 34.71875 
z
" id="DejaVuSans-89"/>
       <path d="M 40.578125 39.3125 
Q 47.65625 37.796875 51.625 33 
Q 55.609375 28.21875 55.609375 21.1875 
Q 55.609375 10.40625 48.1875 4.484375 
Q 40.765625 -1.421875 27.09375 -1.421875 
Q 22.515625 -1.421875 17.65625 -0.515625 
Q 12.796875 0.390625 7.625 2.203125 
L 7.625 11.71875 
Q 11.71875 9.328125 16.59375 8.109375 
Q 21.484375 6.890625 26.8125 6.890625 
Q 36.078125 6.890625 40.9375 10.546875 
Q 45.796875 14.203125 45.796875 21.1875 
Q 45.796875 27.640625 41.28125 31.265625 
Q 36.765625 34.90625 28.71875 34.90625 
L 20.21875 34.90625 
L 20.21875 43.015625 
L 29.109375 43.015625 
Q 36.375 43.015625 40.234375 45.921875 
Q 44.09375 48.828125 44.09375 54.296875 
Q 44.09375 59.90625 40.109375 62.90625 
Q 36.140625 65.921875 28.71875 65.921875 
Q 24.65625 65.921875 20.015625 65.03125 
Q 15.375 64.15625 9.8125 62.3125 
L 9.8125 71.09375 
Q 15.4375 72.65625 20.34375 73.4375 
Q 25.25 74.21875 29.59375 74.21875 
Q 40.828125 74.21875 47.359375 69.109375 
Q 53.90625 64.015625 53.90625 55.328125 
Q 53.90625 49.265625 50.4375 45.09375 
Q 46.96875 40.921875 40.578125 39.3125 
z
" id="DejaVuSans-51"/>
       <path d="M 19.1875 8.296875 
L 53.609375 8.296875 
L 53.609375 0 
L 7.328125 0 
L 7.328125 8.296875 
Q 12.9375 14.109375 22.625 23.890625 
Q 32.328125 33.6875 34.8125 36.53125 
Q 39.546875 41.84375 41.421875 45.53125 
Q 43.3125 49.21875 43.3125 52.78125 
Q 43.3125 58.59375 39.234375 62.25 
Q 35.15625 65.921875 28.609375 65.921875 
Q 23.96875 65.921875 18.8125 64.3125 
Q 13.671875 62.703125 7.8125 59.421875 
L 7.8125 69.390625 
Q 13.765625 71.78125 18.9375 73 
Q 24.125 74.21875 28.421875 74.21875 
Q 39.75 74.21875 46.484375 68.546875 
Q 53.21875 62.890625 53.21875 53.421875 
Q 53.21875 48.921875 51.53125 44.890625 
Q 49.859375 40.875 45.40625 35.40625 
Q 44.1875 33.984375 37.640625 27.21875 
Q 31.109375 20.453125 19.1875 8.296875 
z
" id="DejaVuSans-50"/>
      </defs>
      <g style="fill:#262626;" transform="translate(295.075735 389.123236)rotate(-30)scale(0.143 -0.143)">
       <use xlink:href="#DejaVuSans-76"/>
       <use x="55.509766" xlink:href="#DejaVuSans-89"/>
       <use x="116.421875" xlink:href="#DejaVuSans-45"/>
       <use x="152.505859" xlink:href="#DejaVuSans-51"/>
       <use x="216.128906" xlink:href="#DejaVuSans-50"/>
       <use x="279.751953" xlink:href="#DejaVuSans-48"/>
       <use x="343.375" xlink:href="#DejaVuSans-50"/>
       <use x="406.998047" xlink:href="#DejaVuSans-54"/>
       <use x="470.621094" xlink:href="#DejaVuSans-50"/>
       <use x="534.244141" xlink:href="#DejaVuSans-54"/>
      </g>
     </g>
    </g>
    <g id="xtick_8">
     <g id="line2d_8">
      <g>
       <use style="fill:#808080;stroke:#808080;stroke-width:2;" x="414.633342" xlink:href="#m2778d43476" y="333.465144"/>
      </g>
     </g>
     <g id="text_8">
      <!-- AZD-3839 -->
      <defs>
       <path d="M 5.609375 72.90625 
L 62.890625 72.90625 
L 62.890625 65.375 
L 16.796875 8.296875 
L 64.015625 8.296875 
L 64.015625 0 
L 4.5 0 
L 4.5 7.515625 
L 50.59375 64.59375 
L 5.609375 64.59375 
z
" id="DejaVuSans-90"/>
       <path d="M 19.671875 64.796875 
L 19.671875 8.109375 
L 31.59375 8.109375 
Q 46.6875 8.109375 53.6875 14.9375 
Q 60.6875 21.78125 60.6875 36.53125 
Q 60.6875 51.171875 53.6875 57.984375 
Q 46.6875 64.796875 31.59375 64.796875 
z
M 9.8125 72.90625 
L 30.078125 72.90625 
Q 51.265625 72.90625 61.171875 64.09375 
Q 71.09375 55.28125 71.09375 36.53125 
Q 71.09375 17.671875 61.125 8.828125 
Q 51.171875 0 30.078125 0 
L 9.8125 0 
z
" id="DejaVuSans-68"/>
       <path d="M 10.984375 1.515625 
L 10.984375 10.5 
Q 14.703125 8.734375 18.5 7.8125 
Q 22.3125 6.890625 25.984375 6.890625 
Q 35.75 6.890625 40.890625 13.453125 
Q 46.046875 20.015625 46.78125 33.40625 
Q 43.953125 29.203125 39.59375 26.953125 
Q 35.25 24.703125 29.984375 24.703125 
Q 19.046875 24.703125 12.671875 31.3125 
Q 6.296875 37.9375 6.296875 49.421875 
Q 6.296875 60.640625 12.9375 67.421875 
Q 19.578125 74.21875 30.609375 74.21875 
Q 43.265625 74.21875 49.921875 64.515625 
Q 56.59375 54.828125 56.59375 36.375 
Q 56.59375 19.140625 48.40625 8.859375 
Q 40.234375 -1.421875 26.421875 -1.421875 
Q 22.703125 -1.421875 18.890625 -0.6875 
Q 15.09375 0.046875 10.984375 1.515625 
z
M 30.609375 32.421875 
Q 37.25 32.421875 41.125 36.953125 
Q 45.015625 41.5 45.015625 49.421875 
Q 45.015625 57.28125 41.125 61.84375 
Q 37.25 66.40625 30.609375 66.40625 
Q 23.96875 66.40625 20.09375 61.84375 
Q 16.21875 57.28125 16.21875 49.421875 
Q 16.21875 41.5 20.09375 36.953125 
Q 23.96875 32.421875 30.609375 32.421875 
z
" id="DejaVuSans-57"/>
      </defs>
      <g style="fill:#262626;" transform="translate(350.670196 382.445806)rotate(-30)scale(0.143 -0.143)">
       <use xlink:href="#DejaVuSans-65"/>
       <use x="68.408203" xlink:href="#DejaVuSans-90"/>
       <use x="136.914062" xlink:href="#DejaVuSans-68"/>
       <use x="213.916016" xlink:href="#DejaVuSans-45"/>
       <use x="250" xlink:href="#DejaVuSans-51"/>
       <use x="313.623047" xlink:href="#DejaVuSans-56"/>
       <use x="377.246094" xlink:href="#DejaVuSans-51"/>
       <use x="440.869141" xlink:href="#DejaVuSans-57"/>
      </g>
     </g>
    </g>
    <g id="xtick_9">
     <g id="line2d_9">
      <g>
       <use style="fill:#808080;stroke:#808080;stroke-width:2;" x="458.662156" xlink:href="#m2778d43476" y="333.465144"/>
      </g>
     </g>
     <g id="text_9">
      <!-- LY-2886721 -->
      <defs>
       <path d="M 8.203125 72.90625 
L 55.078125 72.90625 
L 55.078125 68.703125 
L 28.609375 0 
L 18.3125 0 
L 43.21875 64.59375 
L 8.203125 64.59375 
z
" id="DejaVuSans-55"/>
      </defs>
      <g style="fill:#262626;" transform="translate(383.133363 389.123236)rotate(-30)scale(0.143 -0.143)">
       <use xlink:href="#DejaVuSans-76"/>
       <use x="55.509766" xlink:href="#DejaVuSans-89"/>
       <use x="116.421875" xlink:href="#DejaVuSans-45"/>
       <use x="152.505859" xlink:href="#DejaVuSans-50"/>
       <use x="216.128906" xlink:href="#DejaVuSans-56"/>
       <use x="279.751953" xlink:href="#DejaVuSans-56"/>
       <use x="343.375" xlink:href="#DejaVuSans-54"/>
       <use x="406.998047" xlink:href="#DejaVuSans-55"/>
       <use x="470.621094" xlink:href="#DejaVuSans-50"/>
       <use x="534.244141" xlink:href="#DejaVuSans-49"/>
      </g>
     </g>
    </g>
    <g id="xtick_10">
     <g id="line2d_10">
      <g>
       <use style="fill:#808080;stroke:#808080;stroke-width:2;" x="502.69097" xlink:href="#m2778d43476" y="333.465144"/>
      </g>
     </g>
     <g id="text_10">
      <!-- AM-6494 -->
      <defs>
       <path d="M 9.8125 72.90625 
L 24.515625 72.90625 
L 43.109375 23.296875 
L 61.8125 72.90625 
L 76.515625 72.90625 
L 76.515625 0 
L 66.890625 0 
L 66.890625 64.015625 
L 48.09375 14.015625 
L 38.1875 14.015625 
L 19.390625 64.015625 
L 19.390625 0 
L 9.8125 0 
z
" id="DejaVuSans-77"/>
      </defs>
      <g style="fill:#262626;" transform="translate(446.061572 378.211666)rotate(-30)scale(0.143 -0.143)">
       <use xlink:href="#DejaVuSans-65"/>
       <use x="68.408203" xlink:href="#DejaVuSans-77"/>
       <use x="154.6875" xlink:href="#DejaVuSans-45"/>
       <use x="190.771484" xlink:href="#DejaVuSans-54"/>
       <use x="254.394531" xlink:href="#DejaVuSans-52"/>
       <use x="318.017578" xlink:href="#DejaVuSans-57"/>
       <use x="381.640625" xlink:href="#DejaVuSans-52"/>
      </g>
     </g>
    </g>
    <g id="xtick_11">
     <g id="line2d_11">
      <g>
       <use style="fill:#808080;stroke:#808080;stroke-width:2;" x="546.719785" xlink:href="#m2778d43476" y="333.465144"/>
      </g>
     </g>
     <g id="text_11">
      <!-- GSK-188909 -->
      <defs>
       <path d="M 59.515625 10.40625 
L 59.515625 29.984375 
L 43.40625 29.984375 
L 43.40625 38.09375 
L 69.28125 38.09375 
L 69.28125 6.78125 
Q 63.578125 2.734375 56.6875 0.65625 
Q 49.8125 -1.421875 42 -1.421875 
Q 24.90625 -1.421875 15.25 8.5625 
Q 5.609375 18.5625 5.609375 36.375 
Q 5.609375 54.25 15.25 64.234375 
Q 24.90625 74.21875 42 74.21875 
Q 49.125 74.21875 55.546875 72.453125 
Q 61.96875 70.703125 67.390625 67.28125 
L 67.390625 56.78125 
Q 61.921875 61.421875 55.765625 63.765625 
Q 49.609375 66.109375 42.828125 66.109375 
Q 29.4375 66.109375 22.71875 58.640625 
Q 16.015625 51.171875 16.015625 36.375 
Q 16.015625 21.625 22.71875 14.15625 
Q 29.4375 6.6875 42.828125 6.6875 
Q 48.046875 6.6875 52.140625 7.59375 
Q 56.25 8.5 59.515625 10.40625 
z
" id="DejaVuSans-71"/>
       <path d="M 53.515625 70.515625 
L 53.515625 60.890625 
Q 47.90625 63.578125 42.921875 64.890625 
Q 37.9375 66.21875 33.296875 66.21875 
Q 25.25 66.21875 20.875 63.09375 
Q 16.5 59.96875 16.5 54.203125 
Q 16.5 49.359375 19.40625 46.890625 
Q 22.3125 44.4375 30.421875 42.921875 
L 36.375 41.703125 
Q 47.40625 39.59375 52.65625 34.296875 
Q 57.90625 29 57.90625 20.125 
Q 57.90625 9.515625 50.796875 4.046875 
Q 43.703125 -1.421875 29.984375 -1.421875 
Q 24.8125 -1.421875 18.96875 -0.25 
Q 13.140625 0.921875 6.890625 3.21875 
L 6.890625 13.375 
Q 12.890625 10.015625 18.65625 8.296875 
Q 24.421875 6.59375 29.984375 6.59375 
Q 38.421875 6.59375 43.015625 9.90625 
Q 47.609375 13.234375 47.609375 19.390625 
Q 47.609375 24.75 44.3125 27.78125 
Q 41.015625 30.8125 33.5 32.328125 
L 27.484375 33.5 
Q 16.453125 35.6875 11.515625 40.375 
Q 6.59375 45.0625 6.59375 53.421875 
Q 6.59375 63.09375 13.40625 68.65625 
Q 20.21875 74.21875 32.171875 74.21875 
Q 37.3125 74.21875 42.625 73.28125 
Q 47.953125 72.359375 53.515625 70.515625 
z
" id="DejaVuSans-83"/>
       <path d="M 9.8125 72.90625 
L 19.671875 72.90625 
L 19.671875 42.09375 
L 52.390625 72.90625 
L 65.09375 72.90625 
L 28.90625 38.921875 
L 67.671875 0 
L 54.6875 0 
L 19.671875 35.109375 
L 19.671875 0 
L 9.8125 0 
z
" id="DejaVuSans-75"/>
      </defs>
      <g style="fill:#262626;" transform="translate(467.928539 391.006814)rotate(-30)scale(0.143 -0.143)">
       <use xlink:href="#DejaVuSans-71"/>
       <use x="77.490234" xlink:href="#DejaVuSans-83"/>
       <use x="140.966797" xlink:href="#DejaVuSans-75"/>
       <use x="206.386719" xlink:href="#DejaVuSans-45"/>
       <use x="242.470703" xlink:href="#DejaVuSans-49"/>
       <use x="306.09375" xlink:href="#DejaVuSans-56"/>
       <use x="369.716797" xlink:href="#DejaVuSans-56"/>
       <use x="433.339844" xlink:href="#DejaVuSans-57"/>
       <use x="496.962891" xlink:href="#DejaVuSans-48"/>
       <use x="560.585938" xlink:href="#DejaVuSans-57"/>
      </g>
     </g>
    </g>
    <g id="xtick_12">
     <g id="line2d_12">
      <g>
       <use style="fill:#808080;stroke:#808080;stroke-width:2;" x="590.748599" xlink:href="#m2778d43476" y="333.465144"/>
      </g>
     </g>
     <g id="text_12">
      <!-- SCH-747123 -->
      <defs>
       <path d="M 64.40625 67.28125 
L 64.40625 56.890625 
Q 59.421875 61.53125 53.78125 63.8125 
Q 48.140625 66.109375 41.796875 66.109375 
Q 29.296875 66.109375 22.65625 58.46875 
Q 16.015625 50.828125 16.015625 36.375 
Q 16.015625 21.96875 22.65625 14.328125 
Q 29.296875 6.6875 41.796875 6.6875 
Q 48.140625 6.6875 53.78125 8.984375 
Q 59.421875 11.28125 64.40625 15.921875 
L 64.40625 5.609375 
Q 59.234375 2.09375 53.4375 0.328125 
Q 47.65625 -1.421875 41.21875 -1.421875 
Q 24.65625 -1.421875 15.125 8.703125 
Q 5.609375 18.84375 5.609375 36.375 
Q 5.609375 53.953125 15.125 64.078125 
Q 24.65625 74.21875 41.21875 74.21875 
Q 47.75 74.21875 53.53125 72.484375 
Q 59.328125 70.75 64.40625 67.28125 
z
" id="DejaVuSans-67"/>
       <path d="M 9.8125 72.90625 
L 19.671875 72.90625 
L 19.671875 43.015625 
L 55.515625 43.015625 
L 55.515625 72.90625 
L 65.375 72.90625 
L 65.375 0 
L 55.515625 0 
L 55.515625 34.71875 
L 19.671875 34.71875 
L 19.671875 0 
L 9.8125 0 
z
" id="DejaVuSans-72"/>
      </defs>
      <g style="fill:#262626;" transform="translate(511.69419 391.158752)rotate(-30)scale(0.143 -0.143)">
       <use xlink:href="#DejaVuSans-83"/>
       <use x="63.476562" xlink:href="#DejaVuSans-67"/>
       <use x="133.300781" xlink:href="#DejaVuSans-72"/>
       <use x="208.496094" xlink:href="#DejaVuSans-45"/>
       <use x="244.580078" xlink:href="#DejaVuSans-55"/>
       <use x="308.203125" xlink:href="#DejaVuSans-52"/>
       <use x="371.826172" xlink:href="#DejaVuSans-55"/>
       <use x="435.449219" xlink:href="#DejaVuSans-49"/>
       <use x="499.072266" xlink:href="#DejaVuSans-50"/>
       <use x="562.695312" xlink:href="#DejaVuSans-51"/>
      </g>
     </g>
    </g>
    <g id="xtick_13">
     <g id="line2d_13">
      <g>
       <use style="fill:#808080;stroke:#808080;stroke-width:2;" x="634.777413" xlink:href="#m2778d43476" y="333.465144"/>
      </g>
     </g>
     <g id="text_13">
      <!-- SCH-709583 -->
      <g style="fill:#262626;" transform="translate(555.723004 391.158752)rotate(-30)scale(0.143 -0.143)">
       <use xlink:href="#DejaVuSans-83"/>
       <use x="63.476562" xlink:href="#DejaVuSans-67"/>
       <use x="133.300781" xlink:href="#DejaVuSans-72"/>
       <use x="208.496094" xlink:href="#DejaVuSans-45"/>
       <use x="244.580078" xlink:href="#DejaVuSans-55"/>
       <use x="308.203125" xlink:href="#DejaVuSans-48"/>
       <use x="371.826172" xlink:href="#DejaVuSans-57"/>
       <use x="435.449219" xlink:href="#DejaVuSans-53"/>
       <use x="499.072266" xlink:href="#DejaVuSans-56"/>
       <use x="562.695312" xlink:href="#DejaVuSans-51"/>
      </g>
     </g>
    </g>
    <g id="xtick_14">
     <g id="line2d_14">
      <g>
       <use style="fill:#808080;stroke:#808080;stroke-width:2;" x="678.806228" xlink:href="#m2778d43476" y="333.465144"/>
      </g>
     </g>
     <g id="text_14">
      <!-- SCH-726222 -->
      <g style="fill:#262626;" transform="translate(599.751819 391.158752)rotate(-30)scale(0.143 -0.143)">
       <use xlink:href="#DejaVuSans-83"/>
       <use x="63.476562" xlink:href="#DejaVuSans-67"/>
       <use x="133.300781" xlink:href="#DejaVuSans-72"/>
       <use x="208.496094" xlink:href="#DejaVuSans-45"/>
       <use x="244.580078" xlink:href="#DejaVuSans-55"/>
       <use x="308.203125" xlink:href="#DejaVuSans-50"/>
       <use x="371.826172" xlink:href="#DejaVuSans-54"/>
       <use x="435.449219" xlink:href="#DejaVuSans-50"/>
       <use x="499.072266" xlink:href="#DejaVuSans-50"/>
       <use x="562.695312" xlink:href="#DejaVuSans-50"/>
      </g>
     </g>
    </g>
    <g id="xtick_15">
     <g id="line2d_15">
      <g>
       <use style="fill:#808080;stroke:#808080;stroke-width:2;" x="722.835042" xlink:href="#m2778d43476" y="333.465144"/>
      </g>
     </g>
     <g id="text_15">
      <!-- WAY-258131 -->
      <defs>
       <path d="M 3.328125 72.90625 
L 13.28125 72.90625 
L 28.609375 11.28125 
L 43.890625 72.90625 
L 54.984375 72.90625 
L 70.3125 11.28125 
L 85.59375 72.90625 
L 95.609375 72.90625 
L 77.296875 0 
L 64.890625 0 
L 49.515625 63.28125 
L 33.984375 0 
L 21.578125 0 
z
" id="DejaVuSans-87"/>
      </defs>
      <g style="fill:#262626;" transform="translate(641.367656 392.551884)rotate(-30)scale(0.143 -0.143)">
       <use xlink:href="#DejaVuSans-87"/>
       <use x="98.798828" xlink:href="#DejaVuSans-65"/>
       <use x="167.097656" xlink:href="#DejaVuSans-89"/>
       <use x="228.009766" xlink:href="#DejaVuSans-45"/>
       <use x="264.09375" xlink:href="#DejaVuSans-50"/>
       <use x="327.716797" xlink:href="#DejaVuSans-53"/>
       <use x="391.339844" xlink:href="#DejaVuSans-56"/>
       <use x="454.962891" xlink:href="#DejaVuSans-49"/>
       <use x="518.585938" xlink:href="#DejaVuSans-51"/>
       <use x="582.208984" xlink:href="#DejaVuSans-49"/>
      </g>
     </g>
    </g>
    <g id="xtick_16">
     <g id="line2d_16">
      <g>
       <use style="fill:#808080;stroke:#808080;stroke-width:2;" x="766.863856" xlink:href="#m2778d43476" y="333.465144"/>
      </g>
     </g>
     <g id="text_16">
      <!-- GRL-7234 -->
      <defs>
       <path d="M 44.390625 34.1875 
Q 47.5625 33.109375 50.5625 29.59375 
Q 53.5625 26.078125 56.59375 19.921875 
L 66.609375 0 
L 56 0 
L 46.6875 18.703125 
Q 43.0625 26.03125 39.671875 28.421875 
Q 36.28125 30.8125 30.421875 30.8125 
L 19.671875 30.8125 
L 19.671875 0 
L 9.8125 0 
L 9.8125 72.90625 
L 32.078125 72.90625 
Q 44.578125 72.90625 50.734375 67.671875 
Q 56.890625 62.453125 56.890625 51.90625 
Q 56.890625 45.015625 53.6875 40.46875 
Q 50.484375 35.9375 44.390625 34.1875 
z
M 19.671875 64.796875 
L 19.671875 38.921875 
L 32.078125 38.921875 
Q 39.203125 38.921875 42.84375 42.21875 
Q 46.484375 45.515625 46.484375 51.90625 
Q 46.484375 58.296875 42.84375 61.546875 
Q 39.203125 64.796875 32.078125 64.796875 
z
" id="DejaVuSans-82"/>
      </defs>
      <g style="fill:#262626;" transform="translate(704.291995 381.642548)rotate(-30)scale(0.143 -0.143)">
       <use xlink:href="#DejaVuSans-71"/>
       <use x="77.490234" xlink:href="#DejaVuSans-82"/>
       <use x="146.972656" xlink:href="#DejaVuSans-76"/>
       <use x="202.669922" xlink:href="#DejaVuSans-45"/>
       <use x="238.753906" xlink:href="#DejaVuSans-55"/>
       <use x="302.376953" xlink:href="#DejaVuSans-50"/>
       <use x="366" xlink:href="#DejaVuSans-51"/>
       <use x="429.623047" xlink:href="#DejaVuSans-52"/>
      </g>
     </g>
    </g>
    <g id="xtick_17">
     <g id="line2d_17">
      <g>
       <use style="fill:#808080;stroke:#808080;stroke-width:2;" x="810.892671" xlink:href="#m2778d43476" y="333.465144"/>
      </g>
     </g>
     <g id="text_17">
      <!-- NB-216 -->
      <defs>
       <path d="M 9.8125 72.90625 
L 23.09375 72.90625 
L 55.421875 11.921875 
L 55.421875 72.90625 
L 64.984375 72.90625 
L 64.984375 0 
L 51.703125 0 
L 19.390625 60.984375 
L 19.390625 0 
L 9.8125 0 
z
" id="DejaVuSans-78"/>
       <path d="M 19.671875 34.8125 
L 19.671875 8.109375 
L 35.5 8.109375 
Q 43.453125 8.109375 47.28125 11.40625 
Q 51.125 14.703125 51.125 21.484375 
Q 51.125 28.328125 47.28125 31.5625 
Q 43.453125 34.8125 35.5 34.8125 
z
M 19.671875 64.796875 
L 19.671875 42.828125 
L 34.28125 42.828125 
Q 41.5 42.828125 45.03125 45.53125 
Q 48.578125 48.25 48.578125 53.8125 
Q 48.578125 59.328125 45.03125 62.0625 
Q 41.5 64.796875 34.28125 64.796875 
z
M 9.8125 72.90625 
L 35.015625 72.90625 
Q 46.296875 72.90625 52.390625 68.21875 
Q 58.5 63.53125 58.5 54.890625 
Q 58.5 48.1875 55.375 44.234375 
Q 52.25 40.28125 46.1875 39.3125 
Q 53.46875 37.75 57.5 32.78125 
Q 61.53125 27.828125 61.53125 20.40625 
Q 61.53125 10.640625 54.890625 5.3125 
Q 48.25 0 35.984375 0 
L 9.8125 0 
z
" id="DejaVuSans-66"/>
      </defs>
      <g style="fill:#262626;" transform="translate(763.53785 372.856986)rotate(-30)scale(0.143 -0.143)">
       <use xlink:href="#DejaVuSans-78"/>
       <use x="74.804688" xlink:href="#DejaVuSans-66"/>
       <use x="143.408203" xlink:href="#DejaVuSans-45"/>
       <use x="179.492188" xlink:href="#DejaVuSans-50"/>
       <use x="243.115234" xlink:href="#DejaVuSans-49"/>
       <use x="306.738281" xlink:href="#DejaVuSans-54"/>
      </g>
     </g>
    </g>
    <g id="xtick_18">
     <g id="line2d_18">
      <g>
       <use style="fill:#808080;stroke:#808080;stroke-width:2;" x="854.921485" xlink:href="#m2778d43476" y="333.465144"/>
      </g>
     </g>
     <g id="text_18">
      <!-- NB-533 -->
      <g style="fill:#262626;" transform="translate(807.566664 372.856986)rotate(-30)scale(0.143 -0.143)">
       <use xlink:href="#DejaVuSans-78"/>
       <use x="74.804688" xlink:href="#DejaVuSans-66"/>
       <use x="143.408203" xlink:href="#DejaVuSans-45"/>
       <use x="179.492188" xlink:href="#DejaVuSans-53"/>
       <use x="243.115234" xlink:href="#DejaVuSans-51"/>
       <use x="306.738281" xlink:href="#DejaVuSans-51"/>
      </g>
     </g>
    </g>
    <g id="xtick_19">
     <g id="line2d_19">
      <g>
       <use style="fill:#808080;stroke:#808080;stroke-width:2;" x="898.9503" xlink:href="#m2778d43476" y="333.465144"/>
      </g>
     </g>
     <g id="text_19">
      <!-- CMP-015 -->
      <g style="fill:#262626;" transform="translate(842.560844 378.073134)rotate(-30)scale(0.143 -0.143)">
       <use xlink:href="#DejaVuSans-67"/>
       <use x="69.824219" xlink:href="#DejaVuSans-77"/>
       <use x="156.103516" xlink:href="#DejaVuSans-80"/>
       <use x="216.375" xlink:href="#DejaVuSans-45"/>
       <use x="252.458984" xlink:href="#DejaVuSans-48"/>
       <use x="316.082031" xlink:href="#DejaVuSans-49"/>
       <use x="379.705078" xlink:href="#DejaVuSans-53"/>
      </g>
     </g>
    </g>
    <g id="xtick_20">
     <g id="line2d_20">
      <g>
       <use style="fill:#808080;stroke:#808080;stroke-width:2;" x="942.979114" xlink:href="#m2778d43476" y="333.465144"/>
      </g>
     </g>
     <g id="text_20">
      <!-- SCH-1359113 -->
      <g style="fill:#262626;" transform="translate(856.045281 395.707939)rotate(-30)scale(0.143 -0.143)">
       <use xlink:href="#DejaVuSans-83"/>
       <use x="63.476562" xlink:href="#DejaVuSans-67"/>
       <use x="133.300781" xlink:href="#DejaVuSans-72"/>
       <use x="208.496094" xlink:href="#DejaVuSans-45"/>
       <use x="244.580078" xlink:href="#DejaVuSans-49"/>
       <use x="308.203125" xlink:href="#DejaVuSans-51"/>
       <use x="371.826172" xlink:href="#DejaVuSans-53"/>
       <use x="435.449219" xlink:href="#DejaVuSans-57"/>
       <use x="499.072266" xlink:href="#DejaVuSans-49"/>
       <use x="562.695312" xlink:href="#DejaVuSans-49"/>
       <use x="626.318359" xlink:href="#DejaVuSans-51"/>
      </g>
     </g>
    </g>
    <g id="xtick_21">
     <g id="line2d_21">
      <g>
       <use style="fill:#808080;stroke:#808080;stroke-width:2;" x="987.007928" xlink:href="#m2778d43476" y="333.465144"/>
      </g>
     </g>
     <g id="text_21">
      <!-- PF-04976081 -->
      <g style="fill:#262626;" transform="translate(903.427494 393.771853)rotate(-30)scale(0.143 -0.143)">
       <use xlink:href="#DejaVuSans-80"/>
       <use x="60.302734" xlink:href="#DejaVuSans-70"/>
       <use x="117.822266" xlink:href="#DejaVuSans-45"/>
       <use x="153.90625" xlink:href="#DejaVuSans-48"/>
       <use x="217.529297" xlink:href="#DejaVuSans-52"/>
       <use x="281.152344" xlink:href="#DejaVuSans-57"/>
       <use x="344.775391" xlink:href="#DejaVuSans-55"/>
       <use x="408.398438" xlink:href="#DejaVuSans-54"/>
       <use x="472.021484" xlink:href="#DejaVuSans-48"/>
       <use x="535.644531" xlink:href="#DejaVuSans-56"/>
       <use x="599.267578" xlink:href="#DejaVuSans-49"/>
      </g>
     </g>
    </g>
    <g id="xtick_22">
     <g id="line2d_22">
      <g>
       <use style="fill:#808080;stroke:#808080;stroke-width:2;" x="1031.036743" xlink:href="#m2778d43476" y="333.465144"/>
      </g>
     </g>
     <g id="text_22">
      <!-- SCH-1682496 -->
      <g style="fill:#262626;" transform="translate(944.102909 395.707939)rotate(-30)scale(0.143 -0.143)">
       <use xlink:href="#DejaVuSans-83"/>
       <use x="63.476562" xlink:href="#DejaVuSans-67"/>
       <use x="133.300781" xlink:href="#DejaVuSans-72"/>
       <use x="208.496094" xlink:href="#DejaVuSans-45"/>
       <use x="244.580078" xlink:href="#DejaVuSans-49"/>
       <use x="308.203125" xlink:href="#DejaVuSans-54"/>
       <use x="371.826172" xlink:href="#DejaVuSans-56"/>
       <use x="435.449219" xlink:href="#DejaVuSans-50"/>
       <use x="499.072266" xlink:href="#DejaVuSans-52"/>
       <use x="562.695312" xlink:href="#DejaVuSans-57"/>
       <use x="626.318359" xlink:href="#DejaVuSans-54"/>
      </g>
     </g>
    </g>
    <g id="xtick_23">
     <g id="line2d_23">
      <g>
       <use style="fill:#808080;stroke:#808080;stroke-width:2;" x="1075.065557" xlink:href="#m2778d43476" y="333.465144"/>
      </g>
     </g>
     <g id="text_23">
      <!-- AZ-4217 -->
      <g style="fill:#262626;" transform="translate(1020.640152 376.939189)rotate(-30)scale(0.143 -0.143)">
       <use xlink:href="#DejaVuSans-65"/>
       <use x="68.408203" xlink:href="#DejaVuSans-90"/>
       <use x="136.898438" xlink:href="#DejaVuSans-45"/>
       <use x="172.982422" xlink:href="#DejaVuSans-52"/>
       <use x="236.605469" xlink:href="#DejaVuSans-50"/>
       <use x="300.228516" xlink:href="#DejaVuSans-49"/>
       <use x="363.851562" xlink:href="#DejaVuSans-55"/>
      </g>
     </g>
    </g>
    <g id="xtick_24">
     <g id="line2d_24">
      <g>
       <use style="fill:#808080;stroke:#808080;stroke-width:2;" x="1119.094371" xlink:href="#m2778d43476" y="333.465144"/>
      </g>
     </g>
     <g id="text_24">
      <!-- PF-06684511 -->
      <g style="fill:#262626;" transform="translate(1035.513937 393.771853)rotate(-30)scale(0.143 -0.143)">
       <use xlink:href="#DejaVuSans-80"/>
       <use x="60.302734" xlink:href="#DejaVuSans-70"/>
       <use x="117.822266" xlink:href="#DejaVuSans-45"/>
       <use x="153.90625" xlink:href="#DejaVuSans-48"/>
       <use x="217.529297" xlink:href="#DejaVuSans-54"/>
       <use x="281.152344" xlink:href="#DejaVuSans-54"/>
       <use x="344.775391" xlink:href="#DejaVuSans-56"/>
       <use x="408.398438" xlink:href="#DejaVuSans-52"/>
       <use x="472.021484" xlink:href="#DejaVuSans-53"/>
       <use x="535.644531" xlink:href="#DejaVuSans-49"/>
       <use x="599.267578" xlink:href="#DejaVuSans-49"/>
      </g>
     </g>
    </g>
    <g id="xtick_25">
     <g id="line2d_25">
      <g>
       <use style="fill:#808080;stroke:#808080;stroke-width:2;" x="1163.123186" xlink:href="#m2778d43476" y="333.465144"/>
      </g>
     </g>
     <g id="text_25">
      <!-- AMG-8718 -->
      <g style="fill:#262626;" transform="translate(1096.897996 383.751798)rotate(-30)scale(0.143 -0.143)">
       <use xlink:href="#DejaVuSans-65"/>
       <use x="68.408203" xlink:href="#DejaVuSans-77"/>
       <use x="154.6875" xlink:href="#DejaVuSans-71"/>
       <use x="232.177734" xlink:href="#DejaVuSans-45"/>
       <use x="268.261719" xlink:href="#DejaVuSans-56"/>
       <use x="331.884766" xlink:href="#DejaVuSans-55"/>
       <use x="395.507812" xlink:href="#DejaVuSans-49"/>
       <use x="459.130859" xlink:href="#DejaVuSans-56"/>
      </g>
     </g>
    </g>
    <g id="xtick_26">
     <g id="line2d_26">
      <g>
       <use style="fill:#808080;stroke:#808080;stroke-width:2;" x="1207.152" xlink:href="#m2778d43476" y="333.465144"/>
      </g>
     </g>
     <g id="text_26">
      <!-- MBI-19 -->
      <defs>
       <path d="M 9.8125 72.90625 
L 19.671875 72.90625 
L 19.671875 0 
L 9.8125 0 
z
" id="DejaVuSans-73"/>
      </defs>
      <g style="fill:#262626;" transform="translate(1162.602966 371.237064)rotate(-30)scale(0.143 -0.143)">
       <use xlink:href="#DejaVuSans-77"/>
       <use x="86.279297" xlink:href="#DejaVuSans-66"/>
       <use x="154.882812" xlink:href="#DejaVuSans-73"/>
       <use x="184.375" xlink:href="#DejaVuSans-45"/>
       <use x="220.458984" xlink:href="#DejaVuSans-49"/>
       <use x="284.082031" xlink:href="#DejaVuSans-57"/>
      </g>
     </g>
    </g>
   </g>
   <g id="matplotlib.axis_2">
    <g id="ytick_1">
     <g id="text_27">
      <!-- 0.2 -->
      <defs>
       <path d="M 10.6875 12.40625 
L 21 12.40625 
L 21 0 
L 10.6875 0 
z
" id="DejaVuSans-46"/>
      </defs>
      <g style="fill:#262626;" transform="translate(80.190172 282.75934)scale(0.143 -0.143)">
       <use xlink:href="#DejaVuSans-48"/>
       <use x="63.623047" xlink:href="#DejaVuSans-46"/>
       <use x="95.410156" xlink:href="#DejaVuSans-50"/>
      </g>
     </g>
    </g>
    <g id="ytick_2">
     <g id="text_28">
      <!-- 0.4 -->
      <g style="fill:#262626;" transform="translate(80.190172 221.221309)scale(0.143 -0.143)">
       <use xlink:href="#DejaVuSans-48"/>
       <use x="63.623047" xlink:href="#DejaVuSans-46"/>
       <use x="95.410156" xlink:href="#DejaVuSans-52"/>
      </g>
     </g>
    </g>
    <g id="ytick_3">
     <g id="text_29">
      <!-- 0.6 -->
      <g style="fill:#262626;" transform="translate(80.190172 159.683279)scale(0.143 -0.143)">
       <use xlink:href="#DejaVuSans-48"/>
       <use x="63.623047" xlink:href="#DejaVuSans-46"/>
       <use x="95.410156" xlink:href="#DejaVuSans-54"/>
      </g>
     </g>
    </g>
    <g id="ytick_4">
     <g id="text_30">
      <!-- 0.8 -->
      <g style="fill:#262626;" transform="translate(80.190172 98.145248)scale(0.143 -0.143)">
       <use xlink:href="#DejaVuSans-48"/>
       <use x="63.623047" xlink:href="#DejaVuSans-46"/>
       <use x="95.410156" xlink:href="#DejaVuSans-56"/>
      </g>
     </g>
    </g>
    <g id="ytick_5">
     <g id="text_31">
      <!-- 1.0 -->
      <g style="fill:#262626;" transform="translate(80.190172 36.607218)scale(0.143 -0.143)">
       <use xlink:href="#DejaVuSans-49"/>
       <use x="63.623047" xlink:href="#DejaVuSans-46"/>
       <use x="95.410156" xlink:href="#DejaVuSans-48"/>
      </g>
     </g>
    </g>
    <g id="text_32">
     <!-- Predicted probability (Inhibitor) -->
     <defs>
      <path d="M 45.40625 46.390625 
L 45.40625 75.984375 
L 54.390625 75.984375 
L 54.390625 0 
L 45.40625 0 
L 45.40625 8.203125 
Q 42.578125 3.328125 38.25 0.953125 
Q 33.9375 -1.421875 27.875 -1.421875 
Q 17.96875 -1.421875 11.734375 6.484375 
Q 5.515625 14.40625 5.515625 27.296875 
Q 5.515625 40.1875 11.734375 48.09375 
Q 17.96875 56 27.875 56 
Q 33.9375 56 38.25 53.625 
Q 42.578125 51.265625 45.40625 46.390625 
z
M 14.796875 27.296875 
Q 14.796875 17.390625 18.875 11.75 
Q 22.953125 6.109375 30.078125 6.109375 
Q 37.203125 6.109375 41.296875 11.75 
Q 45.40625 17.390625 45.40625 27.296875 
Q 45.40625 37.203125 41.296875 42.84375 
Q 37.203125 48.484375 30.078125 48.484375 
Q 22.953125 48.484375 18.875 42.84375 
Q 14.796875 37.203125 14.796875 27.296875 
z
" id="DejaVuSans-100"/>
      <path id="DejaVuSans-32"/>
      <path d="M 18.109375 8.203125 
L 18.109375 -20.796875 
L 9.078125 -20.796875 
L 9.078125 54.6875 
L 18.109375 54.6875 
L 18.109375 46.390625 
Q 20.953125 51.265625 25.265625 53.625 
Q 29.59375 56 35.59375 56 
Q 45.5625 56 51.78125 48.09375 
Q 58.015625 40.1875 58.015625 27.296875 
Q 58.015625 14.40625 51.78125 6.484375 
Q 45.5625 -1.421875 35.59375 -1.421875 
Q 29.59375 -1.421875 25.265625 0.953125 
Q 20.953125 3.328125 18.109375 8.203125 
z
M 48.6875 27.296875 
Q 48.6875 37.203125 44.609375 42.84375 
Q 40.53125 48.484375 33.40625 48.484375 
Q 26.265625 48.484375 22.1875 42.84375 
Q 18.109375 37.203125 18.109375 27.296875 
Q 18.109375 17.390625 22.1875 11.75 
Q 26.265625 6.109375 33.40625 6.109375 
Q 40.53125 6.109375 44.609375 11.75 
Q 48.6875 17.390625 48.6875 27.296875 
z
" id="DejaVuSans-112"/>
      <path d="M 30.609375 48.390625 
Q 23.390625 48.390625 19.1875 42.75 
Q 14.984375 37.109375 14.984375 27.296875 
Q 14.984375 17.484375 19.15625 11.84375 
Q 23.34375 6.203125 30.609375 6.203125 
Q 37.796875 6.203125 41.984375 11.859375 
Q 46.1875 17.53125 46.1875 27.296875 
Q 46.1875 37.015625 41.984375 42.703125 
Q 37.796875 48.390625 30.609375 48.390625 
z
M 30.609375 56 
Q 42.328125 56 49.015625 48.375 
Q 55.71875 40.765625 55.71875 27.296875 
Q 55.71875 13.875 49.015625 6.21875 
Q 42.328125 -1.421875 30.609375 -1.421875 
Q 18.84375 -1.421875 12.171875 6.21875 
Q 5.515625 13.875 5.515625 27.296875 
Q 5.515625 40.765625 12.171875 48.375 
Q 18.84375 56 30.609375 56 
z
" id="DejaVuSans-111"/>
      <path d="M 32.171875 -5.078125 
Q 28.375 -14.84375 24.75 -17.8125 
Q 21.140625 -20.796875 15.09375 -20.796875 
L 7.90625 -20.796875 
L 7.90625 -13.28125 
L 13.1875 -13.28125 
Q 16.890625 -13.28125 18.9375 -11.515625 
Q 21 -9.765625 23.484375 -3.21875 
L 25.09375 0.875 
L 2.984375 54.6875 
L 12.5 54.6875 
L 29.59375 11.921875 
L 46.6875 54.6875 
L 56.203125 54.6875 
z
" id="DejaVuSans-121"/>
      <path d="M 31 75.875 
Q 24.46875 64.65625 21.28125 53.65625 
Q 18.109375 42.671875 18.109375 31.390625 
Q 18.109375 20.125 21.3125 9.0625 
Q 24.515625 -2 31 -13.1875 
L 23.1875 -13.1875 
Q 15.875 -1.703125 12.234375 9.375 
Q 8.59375 20.453125 8.59375 31.390625 
Q 8.59375 42.28125 12.203125 53.3125 
Q 15.828125 64.359375 23.1875 75.875 
z
" id="DejaVuSans-40"/>
      <path d="M 54.890625 33.015625 
L 54.890625 0 
L 45.90625 0 
L 45.90625 32.71875 
Q 45.90625 40.484375 42.875 44.328125 
Q 39.84375 48.1875 33.796875 48.1875 
Q 26.515625 48.1875 22.3125 43.546875 
Q 18.109375 38.921875 18.109375 30.90625 
L 18.109375 0 
L 9.078125 0 
L 9.078125 75.984375 
L 18.109375 75.984375 
L 18.109375 46.1875 
Q 21.34375 51.125 25.703125 53.5625 
Q 30.078125 56 35.796875 56 
Q 45.21875 56 50.046875 50.171875 
Q 54.890625 44.34375 54.890625 33.015625 
z
" id="DejaVuSans-104"/>
      <path d="M 8.015625 75.875 
L 15.828125 75.875 
Q 23.140625 64.359375 26.78125 53.3125 
Q 30.421875 42.28125 30.421875 31.390625 
Q 30.421875 20.453125 26.78125 9.375 
Q 23.140625 -1.703125 15.828125 -13.1875 
L 8.015625 -13.1875 
Q 14.5 -2 17.703125 9.0625 
Q 20.90625 20.125 20.90625 31.390625 
Q 20.90625 42.671875 17.703125 53.65625 
Q 14.5 64.65625 8.015625 75.875 
z
" id="DejaVuSans-41"/>
     </defs>
     <g style="fill:#262626;" transform="translate(73.070641 292.7179)rotate(-90)scale(0.15 -0.15)">
      <use xlink:href="#DejaVuSans-80"/>
      <use x="60.287109" xlink:href="#DejaVuSans-114"/>
      <use x="101.369141" xlink:href="#DejaVuSans-101"/>
      <use x="162.892578" xlink:href="#DejaVuSans-100"/>
      <use x="226.369141" xlink:href="#DejaVuSans-105"/>
      <use x="254.152344" xlink:href="#DejaVuSans-99"/>
      <use x="309.132812" xlink:href="#DejaVuSans-116"/>
      <use x="348.341797" xlink:href="#DejaVuSans-101"/>
      <use x="409.865234" xlink:href="#DejaVuSans-100"/>
      <use x="473.341797" xlink:href="#DejaVuSans-32"/>
      <use x="505.128906" xlink:href="#DejaVuSans-112"/>
      <use x="568.605469" xlink:href="#DejaVuSans-114"/>
      <use x="609.6875" xlink:href="#DejaVuSans-111"/>
      <use x="670.869141" xlink:href="#DejaVuSans-98"/>
      <use x="734.345703" xlink:href="#DejaVuSans-97"/>
      <use x="795.625" xlink:href="#DejaVuSans-98"/>
      <use x="859.101562" xlink:href="#DejaVuSans-105"/>
      <use x="886.884766" xlink:href="#DejaVuSans-108"/>
      <use x="914.667969" xlink:href="#DejaVuSans-105"/>
      <use x="942.451172" xlink:href="#DejaVuSans-116"/>
      <use x="981.660156" xlink:href="#DejaVuSans-121"/>
      <use x="1040.839844" xlink:href="#DejaVuSans-32"/>
      <use x="1072.626953" xlink:href="#DejaVuSans-40"/>
      <use x="1111.640625" xlink:href="#DejaVuSans-73"/>
      <use x="1141.132812" xlink:href="#DejaVuSans-110"/>
      <use x="1204.511719" xlink:href="#DejaVuSans-104"/>
      <use x="1267.890625" xlink:href="#DejaVuSans-105"/>
      <use x="1295.673828" xlink:href="#DejaVuSans-98"/>
      <use x="1359.150391" xlink:href="#DejaVuSans-105"/>
      <use x="1386.933594" xlink:href="#DejaVuSans-116"/>
      <use x="1426.142578" xlink:href="#DejaVuSans-111"/>
      <use x="1487.324219" xlink:href="#DejaVuSans-114"/>
      <use x="1528.4375" xlink:href="#DejaVuSans-41"/>
     </g>
    </g>
   </g>
   <g id="line2d_27">
    <path clip-path="url(#p582688cd2d)" d="M 106.431641 204.723651 
L 150.460456 69.580731 
L 194.48927 180.109858 
L 238.518084 62.894636 
L 282.546899 47.240222 
L 326.575713 146.10957 
L 370.604527 52.148342 
L 414.633342 67.789678 
L 458.662156 220.907978 
L 502.69097 204.123431 
L 546.719785 76.409741 
L 590.748599 157.083145 
L 634.777413 81.186446 
L 678.806228 98.171853 
L 722.835042 43.226823 
L 766.863856 268.201364 
L 810.892671 181.009408 
L 854.921485 79.386059 
L 898.9503 52.214003 
L 942.979114 195.747736 
L 987.007928 263.29546 
L 1031.036743 149.045478 
L 1075.065557 34.408882 
L 1119.094371 180.181583 
L 1163.123186 75.95679 
L 1207.152 291.041791 
" style="fill:none;stroke:#377eb8;stroke-linecap:round;stroke-width:1.5;"/>
   </g>
   <g id="line2d_28">
    <path clip-path="url(#p582688cd2d)" d="M 106.431641 159.438285 
L 150.460456 288.273423 
L 194.48927 81.761855 
L 238.518084 75.824724 
L 282.546899 129.441404 
L 326.575713 300.278531 
L 370.604527 220.791649 
L 414.633342 215.796512 
L 458.662156 290.037066 
L 502.69097 177.595274 
L 546.719785 146.952098 
L 590.748599 204.962472 
L 634.777413 159.788997 
L 678.806228 161.514933 
L 722.835042 89.039109 
L 766.863856 252.087243 
L 810.892671 150.518705 
L 854.921485 305.713256 
L 898.9503 59.861593 
L 942.979114 68.198775 
L 987.007928 319.073456 
L 1031.036743 65.668952 
L 1075.065557 45.974541 
L 1119.094371 302.284085 
L 1163.123186 145.157003 
L 1207.152 231.976437 
" style="fill:none;stroke:#4daf4a;stroke-linecap:round;stroke-width:1.5;"/>
   </g>
   <g id="line2d_29">
    <path clip-path="url(#p582688cd2d)" d="M 106.431641 101.076615 
L 150.460456 88.496087 
L 194.48927 91.41259 
L 238.518084 52.682932 
L 282.546899 83.312062 
L 326.575713 90.527747 
L 370.604527 42.931994 
L 414.633342 173.121051 
L 458.662156 119.243718 
L 502.69097 46.762767 
L 546.719785 33.020137 
L 590.748599 55.690502 
L 634.777413 85.704959 
L 678.806228 34.86554 
L 722.835042 63.912644 
L 766.863856 63.053035 
L 810.892671 77.817362 
L 854.921485 58.263807 
L 898.9503 31.239688 
L 942.979114 114.96061 
L 987.007928 202.011621 
L 1031.036743 91.013347 
L 1075.065557 31.906219 
L 1119.094371 90.527747 
L 1163.123186 184.528553 
L 1207.152 131.87355 
" style="fill:none;stroke:#984ea3;stroke-linecap:round;stroke-width:1.5;"/>
   </g>
   <g id="patch_3">
    <path d="M 106.431641 333.465144 
L 106.431641 16.848 
" style="fill:none;stroke:#262626;stroke-linecap:square;stroke-linejoin:miter;stroke-width:1.25;"/>
   </g>
   <g id="patch_4">
    <path d="M 1207.152 333.465144 
L 1207.152 16.848 
" style="fill:none;stroke:#262626;stroke-linecap:square;stroke-linejoin:miter;stroke-width:1.25;"/>
   </g>
   <g id="patch_5">
    <path d="M 106.431641 333.465144 
L 1207.152 333.465144 
" style="fill:none;stroke:#262626;stroke-linecap:square;stroke-linejoin:miter;stroke-width:1.25;"/>
   </g>
   <g id="patch_6">
    <path d="M 106.431641 16.848 
L 1207.152 16.848 
" style="fill:none;stroke:#262626;stroke-linecap:square;stroke-linejoin:miter;stroke-width:1.25;"/>
   </g>
   <g id="legend_1">
    <g id="patch_7">
     <path d="M 116.441641 326.315144 
L 244.743922 326.315144 
Q 247.603922 326.315144 247.603922 323.455144 
L 247.603922 261.915988 
Q 247.603922 259.055988 244.743922 259.055988 
L 116.441641 259.055988 
Q 113.581641 259.055988 113.581641 261.915988 
L 113.581641 323.455144 
Q 113.581641 326.315144 116.441641 326.315144 
z
" style="fill:#ffffff;opacity:0.8;stroke:#cccccc;stroke-linejoin:miter;"/>
    </g>
    <g id="line2d_30">
     <path d="M 119.301641 270.636754 
L 147.901641 270.636754 
" style="fill:none;stroke:#377eb8;stroke-linecap:round;stroke-width:1.5;"/>
    </g>
    <g id="line2d_31"/>
    <g id="text_33">
     <!-- AttentiveFP -->
     <defs>
      <path d="M 2.984375 54.6875 
L 12.5 54.6875 
L 29.59375 8.796875 
L 46.6875 54.6875 
L 56.203125 54.6875 
L 35.6875 0 
L 23.484375 0 
z
" id="DejaVuSans-118"/>
     </defs>
     <g style="fill:#262626;" transform="translate(159.341641 275.641754)scale(0.143 -0.143)">
      <use xlink:href="#DejaVuSans-65"/>
      <use x="68.392578" xlink:href="#DejaVuSans-116"/>
      <use x="107.601562" xlink:href="#DejaVuSans-116"/>
      <use x="146.810547" xlink:href="#DejaVuSans-101"/>
      <use x="208.333984" xlink:href="#DejaVuSans-110"/>
      <use x="271.712891" xlink:href="#DejaVuSans-116"/>
      <use x="310.921875" xlink:href="#DejaVuSans-105"/>
      <use x="338.705078" xlink:href="#DejaVuSans-118"/>
      <use x="397.884766" xlink:href="#DejaVuSans-101"/>
      <use x="459.408203" xlink:href="#DejaVuSans-70"/>
      <use x="516.927734" xlink:href="#DejaVuSans-80"/>
     </g>
    </g>
    <g id="line2d_32">
     <path d="M 119.301641 291.626472 
L 147.901641 291.626472 
" style="fill:none;stroke:#4daf4a;stroke-linecap:round;stroke-width:1.5;"/>
    </g>
    <g id="line2d_33"/>
    <g id="text_34">
     <!-- DMPNN -->
     <g style="fill:#262626;" transform="translate(159.341641 296.631472)scale(0.143 -0.143)">
      <use xlink:href="#DejaVuSans-68"/>
      <use x="77.001953" xlink:href="#DejaVuSans-77"/>
      <use x="163.28125" xlink:href="#DejaVuSans-80"/>
      <use x="223.583984" xlink:href="#DejaVuSans-78"/>
      <use x="298.388672" xlink:href="#DejaVuSans-78"/>
     </g>
    </g>
    <g id="line2d_34">
     <path d="M 119.301641 312.616191 
L 147.901641 312.616191 
" style="fill:none;stroke:#984ea3;stroke-linecap:round;stroke-width:1.5;"/>
    </g>
    <g id="line2d_35"/>
    <g id="text_35">
     <!-- MMNF -->
     <g style="fill:#262626;" transform="translate(159.341641 317.621191)scale(0.143 -0.143)">
      <use xlink:href="#DejaVuSans-77"/>
      <use x="86.279297" xlink:href="#DejaVuSans-77"/>
      <use x="172.558594" xlink:href="#DejaVuSans-78"/>
      <use x="247.363281" xlink:href="#DejaVuSans-70"/>
     </g>
    </g>
   </g>
  </g>
 </g>
 <defs>
  <clipPath id="p582688cd2d">
   <rect height="316.617144" width="1100.720359" x="106.431641" y="16.848"/>
  </clipPath>
 </defs>
</svg>
