<?xml version="1.0" encoding="utf-8" standalone="no"?>
<!DOCTYPE svg PUBLIC "-//W3C//DTD SVG 1.1//EN"
  "http://www.w3.org/Graphics/SVG/1.1/DTD/svg11.dtd">
<!-- Created with matplotlib (https://matplotlib.org/) -->
<svg height="432pt" version="1.1" viewBox="0 0 504 432" width="504pt" xmlns="http://www.w3.org/2000/svg" xmlns:xlink="http://www.w3.org/1999/xlink">
 <defs>
  <style type="text/css">
*{stroke-linecap:butt;stroke-linejoin:round;}
  </style>
 </defs>
 <g id="figure_1">
  <g id="patch_1">
   <path d="M 0 432 
L 504 432 
L 504 0 
L 0 0 
z
" style="fill:#ffffff;"/>
  </g>
  <g id="axes_1">
   <g id="patch_2">
    <path d="M 68.098 372.652 
L 475.777 372.652 
L 475.777 16.848 
L 68.098 16.848 
z
" style="fill:#ffffff;"/>
   </g>
   <g id="matplotlib.axis_1">
    <g id="xtick_1">
     <g id="text_1">
      <!-- 0.0 -->
      <defs>
       <path d="M 31.78125 66.40625 
Q 24.171875 66.40625 20.328125 58.90625 
Q 16.5 51.421875 16.5 36.375 
Q 16.5 21.390625 20.328125 13.890625 
Q 24.171875 6.390625 31.78125 6.390625 
Q 39.453125 6.390625 43.28125 13.890625 
Q 47.125 21.390625 47.125 36.375 
Q 47.125 51.421875 43.28125 58.90625 
Q 39.453125 66.40625 31.78125 66.40625 
z
M 31.78125 74.21875 
Q 44.046875 74.21875 50.515625 64.515625 
Q 56.984375 54.828125 56.984375 36.375 
Q 56.984375 17.96875 50.515625 8.265625 
Q 44.046875 -1.421875 31.78125 -1.421875 
Q 19.53125 -1.421875 13.0625 8.265625 
Q 6.59375 17.96875 6.59375 36.375 
Q 6.59375 54.828125 13.0625 64.515625 
Q 19.53125 74.21875 31.78125 74.21875 
z
" id="DejaVuSans-48"/>
       <path d="M 10.6875 12.40625 
L 21 12.40625 
L 21 0 
L 10.6875 0 
z
" id="DejaVuSans-46"/>
      </defs>
      <g style="fill:#262626;" transform="translate(56.727266 393.017766)scale(0.143 -0.143)">
       <use xlink:href="#DejaVuSans-48"/>
       <use x="63.623047" xlink:href="#DejaVuSans-46"/>
       <use x="95.410156" xlink:href="#DejaVuSans-48"/>
      </g>
     </g>
    </g>
    <g id="xtick_2">
     <g id="text_2">
      <!-- 0.2 -->
      <defs>
       <path d="M 19.1875 8.296875 
L 53.609375 8.296875 
L 53.609375 0 
L 7.328125 0 
L 7.328125 8.296875 
Q 12.9375 14.109375 22.625 23.890625 
Q 32.328125 33.6875 34.8125 36.53125 
Q 39.546875 41.84375 41.421875 45.53125 
Q 43.3125 49.21875 43.3125 52.78125 
Q 43.3125 58.59375 39.234375 62.25 
Q 35.15625 65.921875 28.609375 65.921875 
Q 23.96875 65.921875 18.8125 64.3125 
Q 13.671875 62.703125 7.8125 59.421875 
L 7.8125 69.390625 
Q 13.765625 71.78125 18.9375 73 
Q 24.125 74.21875 28.421875 74.21875 
Q 39.75 74.21875 46.484375 68.546875 
Q 53.21875 62.890625 53.21875 53.421875 
Q 53.21875 48.921875 51.53125 44.890625 
Q 49.859375 40.875 45.40625 35.40625 
Q 44.1875 33.984375 37.640625 27.21875 
Q 31.109375 20.453125 19.1875 8.296875 
z
" id="DejaVuSans-50"/>
      </defs>
      <g style="fill:#262626;" transform="translate(138.263066 393.017766)scale(0.143 -0.143)">
       <use xlink:href="#DejaVuSans-48"/>
       <use x="63.623047" xlink:href="#DejaVuSans-46"/>
       <use x="95.410156" xlink:href="#DejaVuSans-50"/>
      </g>
     </g>
    </g>
    <g id="xtick_3">
     <g id="text_3">
      <!-- 0.4 -->
      <defs>
       <path d="M 37.796875 64.3125 
L 12.890625 25.390625 
L 37.796875 25.390625 
z
M 35.203125 72.90625 
L 47.609375 72.90625 
L 47.609375 25.390625 
L 58.015625 25.390625 
L 58.015625 17.1875 
L 47.609375 17.1875 
L 47.609375 0 
L 37.796875 0 
L 37.796875 17.1875 
L 4.890625 17.1875 
L 4.890625 26.703125 
z
" id="DejaVuSans-52"/>
      </defs>
      <g style="fill:#262626;" transform="translate(219.798866 393.017766)scale(0.143 -0.143)">
       <use xlink:href="#DejaVuSans-48"/>
       <use x="63.623047" xlink:href="#DejaVuSans-46"/>
       <use x="95.410156" xlink:href="#DejaVuSans-52"/>
      </g>
     </g>
    </g>
    <g id="xtick_4">
     <g id="text_4">
      <!-- 0.6 -->
      <defs>
       <path d="M 33.015625 40.375 
Q 26.375 40.375 22.484375 35.828125 
Q 18.609375 31.296875 18.609375 23.390625 
Q 18.609375 15.53125 22.484375 10.953125 
Q 26.375 6.390625 33.015625 6.390625 
Q 39.65625 6.390625 43.53125 10.953125 
Q 47.40625 15.53125 47.40625 23.390625 
Q 47.40625 31.296875 43.53125 35.828125 
Q 39.65625 40.375 33.015625 40.375 
z
M 52.59375 71.296875 
L 52.59375 62.3125 
Q 48.875 64.0625 45.09375 64.984375 
Q 41.3125 65.921875 37.59375 65.921875 
Q 27.828125 65.921875 22.671875 59.328125 
Q 17.53125 52.734375 16.796875 39.40625 
Q 19.671875 43.65625 24.015625 45.921875 
Q 28.375 48.1875 33.59375 48.1875 
Q 44.578125 48.1875 50.953125 41.515625 
Q 57.328125 34.859375 57.328125 23.390625 
Q 57.328125 12.15625 50.6875 5.359375 
Q 44.046875 -1.421875 33.015625 -1.421875 
Q 20.359375 -1.421875 13.671875 8.265625 
Q 6.984375 17.96875 6.984375 36.375 
Q 6.984375 53.65625 15.1875 63.9375 
Q 23.390625 74.21875 37.203125 74.21875 
Q 40.921875 74.21875 44.703125 73.484375 
Q 48.484375 72.75 52.59375 71.296875 
z
" id="DejaVuSans-54"/>
      </defs>
      <g style="fill:#262626;" transform="translate(301.334666 393.017766)scale(0.143 -0.143)">
       <use xlink:href="#DejaVuSans-48"/>
       <use x="63.623047" xlink:href="#DejaVuSans-46"/>
       <use x="95.410156" xlink:href="#DejaVuSans-54"/>
      </g>
     </g>
    </g>
    <g id="xtick_5">
     <g id="text_5">
      <!-- 0.8 -->
      <defs>
       <path d="M 31.78125 34.625 
Q 24.75 34.625 20.71875 30.859375 
Q 16.703125 27.09375 16.703125 20.515625 
Q 16.703125 13.921875 20.71875 10.15625 
Q 24.75 6.390625 31.78125 6.390625 
Q 38.8125 6.390625 42.859375 10.171875 
Q 46.921875 13.96875 46.921875 20.515625 
Q 46.921875 27.09375 42.890625 30.859375 
Q 38.875 34.625 31.78125 34.625 
z
M 21.921875 38.8125 
Q 15.578125 40.375 12.03125 44.71875 
Q 8.5 49.078125 8.5 55.328125 
Q 8.5 64.0625 14.71875 69.140625 
Q 20.953125 74.21875 31.78125 74.21875 
Q 42.671875 74.21875 48.875 69.140625 
Q 55.078125 64.0625 55.078125 55.328125 
Q 55.078125 49.078125 51.53125 44.71875 
Q 48 40.375 41.703125 38.8125 
Q 48.828125 37.15625 52.796875 32.3125 
Q 56.78125 27.484375 56.78125 20.515625 
Q 56.78125 9.90625 50.3125 4.234375 
Q 43.84375 -1.421875 31.78125 -1.421875 
Q 19.734375 -1.421875 13.25 4.234375 
Q 6.78125 9.90625 6.78125 20.515625 
Q 6.78125 27.484375 10.78125 32.3125 
Q 14.796875 37.15625 21.921875 38.8125 
z
M 18.3125 54.390625 
Q 18.3125 48.734375 21.84375 45.5625 
Q 25.390625 42.390625 31.78125 42.390625 
Q 38.140625 42.390625 41.71875 45.5625 
Q 45.3125 48.734375 45.3125 54.390625 
Q 45.3125 60.0625 41.71875 63.234375 
Q 38.140625 66.40625 31.78125 66.40625 
Q 25.390625 66.40625 21.84375 63.234375 
Q 18.3125 60.0625 18.3125 54.390625 
z
" id="DejaVuSans-56"/>
      </defs>
      <g style="fill:#262626;" transform="translate(382.870466 393.017766)scale(0.143 -0.143)">
       <use xlink:href="#DejaVuSans-48"/>
       <use x="63.623047" xlink:href="#DejaVuSans-46"/>
       <use x="95.410156" xlink:href="#DejaVuSans-56"/>
      </g>
     </g>
    </g>
    <g id="xtick_6">
     <g id="text_6">
      <!-- 1.0 -->
      <defs>
       <path d="M 12.40625 8.296875 
L 28.515625 8.296875 
L 28.515625 63.921875 
L 10.984375 60.40625 
L 10.984375 69.390625 
L 28.421875 72.90625 
L 38.28125 72.90625 
L 38.28125 8.296875 
L 54.390625 8.296875 
L 54.390625 0 
L 12.40625 0 
z
" id="DejaVuSans-49"/>
      </defs>
      <g style="fill:#262626;" transform="translate(464.406266 393.017766)scale(0.143 -0.143)">
       <use xlink:href="#DejaVuSans-49"/>
       <use x="63.623047" xlink:href="#DejaVuSans-46"/>
       <use x="95.410156" xlink:href="#DejaVuSans-48"/>
      </g>
     </g>
    </g>
    <g id="text_7">
     <!-- False Positive Rate -->
     <defs>
      <path d="M 9.8125 72.90625 
L 51.703125 72.90625 
L 51.703125 64.59375 
L 19.671875 64.59375 
L 19.671875 43.109375 
L 48.578125 43.109375 
L 48.578125 34.8125 
L 19.671875 34.8125 
L 19.671875 0 
L 9.8125 0 
z
" id="DejaVuSans-70"/>
      <path d="M 34.28125 27.484375 
Q 23.390625 27.484375 19.1875 25 
Q 14.984375 22.515625 14.984375 16.5 
Q 14.984375 11.71875 18.140625 8.90625 
Q 21.296875 6.109375 26.703125 6.109375 
Q 34.1875 6.109375 38.703125 11.40625 
Q 43.21875 16.703125 43.21875 25.484375 
L 43.21875 27.484375 
z
M 52.203125 31.203125 
L 52.203125 0 
L 43.21875 0 
L 43.21875 8.296875 
Q 40.140625 3.328125 35.546875 0.953125 
Q 30.953125 -1.421875 24.3125 -1.421875 
Q 15.921875 -1.421875 10.953125 3.296875 
Q 6 8.015625 6 15.921875 
Q 6 25.140625 12.171875 29.828125 
Q 18.359375 34.515625 30.609375 34.515625 
L 43.21875 34.515625 
L 43.21875 35.40625 
Q 43.21875 41.609375 39.140625 45 
Q 35.0625 48.390625 27.6875 48.390625 
Q 23 48.390625 18.546875 47.265625 
Q 14.109375 46.140625 10.015625 43.890625 
L 10.015625 52.203125 
Q 14.9375 54.109375 19.578125 55.046875 
Q 24.21875 56 28.609375 56 
Q 40.484375 56 46.34375 49.84375 
Q 52.203125 43.703125 52.203125 31.203125 
z
" id="DejaVuSans-97"/>
      <path d="M 9.421875 75.984375 
L 18.40625 75.984375 
L 18.40625 0 
L 9.421875 0 
z
" id="DejaVuSans-108"/>
      <path d="M 44.28125 53.078125 
L 44.28125 44.578125 
Q 40.484375 46.53125 36.375 47.5 
Q 32.28125 48.484375 27.875 48.484375 
Q 21.1875 48.484375 17.84375 46.4375 
Q 14.5 44.390625 14.5 40.28125 
Q 14.5 37.15625 16.890625 35.375 
Q 19.28125 33.59375 26.515625 31.984375 
L 29.59375 31.296875 
Q 39.15625 29.25 43.1875 25.515625 
Q 47.21875 21.78125 47.21875 15.09375 
Q 47.21875 7.46875 41.1875 3.015625 
Q 35.15625 -1.421875 24.609375 -1.421875 
Q 20.21875 -1.421875 15.453125 -0.5625 
Q 10.6875 0.296875 5.421875 2 
L 5.421875 11.28125 
Q 10.40625 8.6875 15.234375 7.390625 
Q 20.0625 6.109375 24.8125 6.109375 
Q 31.15625 6.109375 34.5625 8.28125 
Q 37.984375 10.453125 37.984375 14.40625 
Q 37.984375 18.0625 35.515625 20.015625 
Q 33.0625 21.96875 24.703125 23.78125 
L 21.578125 24.515625 
Q 13.234375 26.265625 9.515625 29.90625 
Q 5.8125 33.546875 5.8125 39.890625 
Q 5.8125 47.609375 11.28125 51.796875 
Q 16.75 56 26.8125 56 
Q 31.78125 56 36.171875 55.265625 
Q 40.578125 54.546875 44.28125 53.078125 
z
" id="DejaVuSans-115"/>
      <path d="M 56.203125 29.59375 
L 56.203125 25.203125 
L 14.890625 25.203125 
Q 15.484375 15.921875 20.484375 11.0625 
Q 25.484375 6.203125 34.421875 6.203125 
Q 39.59375 6.203125 44.453125 7.46875 
Q 49.3125 8.734375 54.109375 11.28125 
L 54.109375 2.78125 
Q 49.265625 0.734375 44.1875 -0.34375 
Q 39.109375 -1.421875 33.890625 -1.421875 
Q 20.796875 -1.421875 13.15625 6.1875 
Q 5.515625 13.8125 5.515625 26.8125 
Q 5.515625 40.234375 12.765625 48.109375 
Q 20.015625 56 32.328125 56 
Q 43.359375 56 49.78125 48.890625 
Q 56.203125 41.796875 56.203125 29.59375 
z
M 47.21875 32.234375 
Q 47.125 39.59375 43.09375 43.984375 
Q 39.0625 48.390625 32.421875 48.390625 
Q 24.90625 48.390625 20.390625 44.140625 
Q 15.875 39.890625 15.1875 32.171875 
z
" id="DejaVuSans-101"/>
      <path id="DejaVuSans-32"/>
      <path d="M 19.671875 64.796875 
L 19.671875 37.40625 
L 32.078125 37.40625 
Q 38.96875 37.40625 42.71875 40.96875 
Q 46.484375 44.53125 46.484375 51.125 
Q 46.484375 57.671875 42.71875 61.234375 
Q 38.96875 64.796875 32.078125 64.796875 
z
M 9.8125 72.90625 
L 32.078125 72.90625 
Q 44.34375 72.90625 50.609375 67.359375 
Q 56.890625 61.8125 56.890625 51.125 
Q 56.890625 40.328125 50.609375 34.8125 
Q 44.34375 29.296875 32.078125 29.296875 
L 19.671875 29.296875 
L 19.671875 0 
L 9.8125 0 
z
" id="DejaVuSans-80"/>
      <path d="M 30.609375 48.390625 
Q 23.390625 48.390625 19.1875 42.75 
Q 14.984375 37.109375 14.984375 27.296875 
Q 14.984375 17.484375 19.15625 11.84375 
Q 23.34375 6.203125 30.609375 6.203125 
Q 37.796875 6.203125 41.984375 11.859375 
Q 46.1875 17.53125 46.1875 27.296875 
Q 46.1875 37.015625 41.984375 42.703125 
Q 37.796875 48.390625 30.609375 48.390625 
z
M 30.609375 56 
Q 42.328125 56 49.015625 48.375 
Q 55.71875 40.765625 55.71875 27.296875 
Q 55.71875 13.875 49.015625 6.21875 
Q 42.328125 -1.421875 30.609375 -1.421875 
Q 18.84375 -1.421875 12.171875 6.21875 
Q 5.515625 13.875 5.515625 27.296875 
Q 5.515625 40.765625 12.171875 48.375 
Q 18.84375 56 30.609375 56 
z
" id="DejaVuSans-111"/>
      <path d="M 9.421875 54.6875 
L 18.40625 54.6875 
L 18.40625 0 
L 9.421875 0 
z
M 9.421875 75.984375 
L 18.40625 75.984375 
L 18.40625 64.59375 
L 9.421875 64.59375 
z
" id="DejaVuSans-105"/>
      <path d="M 18.3125 70.21875 
L 18.3125 54.6875 
L 36.8125 54.6875 
L 36.8125 47.703125 
L 18.3125 47.703125 
L 18.3125 18.015625 
Q 18.3125 11.328125 20.140625 9.421875 
Q 21.96875 7.515625 27.59375 7.515625 
L 36.8125 7.515625 
L 36.8125 0 
L 27.59375 0 
Q 17.1875 0 13.234375 3.875 
Q 9.28125 7.765625 9.28125 18.015625 
L 9.28125 47.703125 
L 2.6875 47.703125 
L 2.6875 54.6875 
L 9.28125 54.6875 
L 9.28125 70.21875 
z
" id="DejaVuSans-116"/>
      <path d="M 2.984375 54.6875 
L 12.5 54.6875 
L 29.59375 8.796875 
L 46.6875 54.6875 
L 56.203125 54.6875 
L 35.6875 0 
L 23.484375 0 
z
" id="DejaVuSans-118"/>
      <path d="M 44.390625 34.1875 
Q 47.5625 33.109375 50.5625 29.59375 
Q 53.5625 26.078125 56.59375 19.921875 
L 66.609375 0 
L 56 0 
L 46.6875 18.703125 
Q 43.0625 26.03125 39.671875 28.421875 
Q 36.28125 30.8125 30.421875 30.8125 
L 19.671875 30.8125 
L 19.671875 0 
L 9.8125 0 
L 9.8125 72.90625 
L 32.078125 72.90625 
Q 44.578125 72.90625 50.734375 67.671875 
Q 56.890625 62.453125 56.890625 51.90625 
Q 56.890625 45.015625 53.6875 40.46875 
Q 50.484375 35.9375 44.390625 34.1875 
z
M 19.671875 64.796875 
L 19.671875 38.921875 
L 32.078125 38.921875 
Q 39.203125 38.921875 42.84375 42.21875 
Q 46.484375 45.515625 46.484375 51.90625 
Q 46.484375 58.296875 42.84375 61.546875 
Q 39.203125 64.796875 32.078125 64.796875 
z
" id="DejaVuSans-82"/>
     </defs>
     <g style="fill:#262626;" transform="translate(198.296969 411.845281)scale(0.156 -0.156)">
      <use xlink:href="#DejaVuSans-70"/>
      <use x="57.378906" xlink:href="#DejaVuSans-97"/>
      <use x="118.658203" xlink:href="#DejaVuSans-108"/>
      <use x="146.441406" xlink:href="#DejaVuSans-115"/>
      <use x="198.541016" xlink:href="#DejaVuSans-101"/>
      <use x="260.064453" xlink:href="#DejaVuSans-32"/>
      <use x="291.851562" xlink:href="#DejaVuSans-80"/>
      <use x="352.107422" xlink:href="#DejaVuSans-111"/>
      <use x="413.289062" xlink:href="#DejaVuSans-115"/>
      <use x="465.388672" xlink:href="#DejaVuSans-105"/>
      <use x="493.171875" xlink:href="#DejaVuSans-116"/>
      <use x="532.380859" xlink:href="#DejaVuSans-105"/>
      <use x="560.164062" xlink:href="#DejaVuSans-118"/>
      <use x="619.34375" xlink:href="#DejaVuSans-101"/>
      <use x="680.867188" xlink:href="#DejaVuSans-32"/>
      <use x="712.654297" xlink:href="#DejaVuSans-82"/>
      <use x="782.105469" xlink:href="#DejaVuSans-97"/>
      <use x="843.384766" xlink:href="#DejaVuSans-116"/>
      <use x="882.59375" xlink:href="#DejaVuSans-101"/>
     </g>
    </g>
   </g>
   <g id="matplotlib.axis_2">
    <g id="ytick_1">
     <g id="text_8">
      <!-- 0.0 -->
      <g style="fill:#262626;" transform="translate(35.856531 378.084883)scale(0.143 -0.143)">
       <use xlink:href="#DejaVuSans-48"/>
       <use x="63.623047" xlink:href="#DejaVuSans-46"/>
       <use x="95.410156" xlink:href="#DejaVuSans-48"/>
      </g>
     </g>
    </g>
    <g id="ytick_2">
     <g id="text_9">
      <!-- 0.2 -->
      <g style="fill:#262626;" transform="translate(35.856531 310.312692)scale(0.143 -0.143)">
       <use xlink:href="#DejaVuSans-48"/>
       <use x="63.623047" xlink:href="#DejaVuSans-46"/>
       <use x="95.410156" xlink:href="#DejaVuSans-50"/>
      </g>
     </g>
    </g>
    <g id="ytick_3">
     <g id="text_10">
      <!-- 0.4 -->
      <g style="fill:#262626;" transform="translate(35.856531 242.540502)scale(0.143 -0.143)">
       <use xlink:href="#DejaVuSans-48"/>
       <use x="63.623047" xlink:href="#DejaVuSans-46"/>
       <use x="95.410156" xlink:href="#DejaVuSans-52"/>
      </g>
     </g>
    </g>
    <g id="ytick_4">
     <g id="text_11">
      <!-- 0.6 -->
      <g style="fill:#262626;" transform="translate(35.856531 174.768311)scale(0.143 -0.143)">
       <use xlink:href="#DejaVuSans-48"/>
       <use x="63.623047" xlink:href="#DejaVuSans-46"/>
       <use x="95.410156" xlink:href="#DejaVuSans-54"/>
      </g>
     </g>
    </g>
    <g id="ytick_5">
     <g id="text_12">
      <!-- 0.8 -->
      <g style="fill:#262626;" transform="translate(35.856531 106.996121)scale(0.143 -0.143)">
       <use xlink:href="#DejaVuSans-48"/>
       <use x="63.623047" xlink:href="#DejaVuSans-46"/>
       <use x="95.410156" xlink:href="#DejaVuSans-56"/>
      </g>
     </g>
    </g>
    <g id="ytick_6">
     <g id="text_13">
      <!-- 1.0 -->
      <g style="fill:#262626;" transform="translate(35.856531 39.22393)scale(0.143 -0.143)">
       <use xlink:href="#DejaVuSans-49"/>
       <use x="63.623047" xlink:href="#DejaVuSans-46"/>
       <use x="95.410156" xlink:href="#DejaVuSans-48"/>
      </g>
     </g>
    </g>
    <g id="text_14">
     <!-- True Positive Rate -->
     <defs>
      <path d="M -0.296875 72.90625 
L 61.375 72.90625 
L 61.375 64.59375 
L 35.5 64.59375 
L 35.5 0 
L 25.59375 0 
L 25.59375 64.59375 
L -0.296875 64.59375 
z
" id="DejaVuSans-84"/>
      <path d="M 41.109375 46.296875 
Q 39.59375 47.171875 37.8125 47.578125 
Q 36.03125 48 33.890625 48 
Q 26.265625 48 22.1875 43.046875 
Q 18.109375 38.09375 18.109375 28.8125 
L 18.109375 0 
L 9.078125 0 
L 9.078125 54.6875 
L 18.109375 54.6875 
L 18.109375 46.1875 
Q 20.953125 51.171875 25.484375 53.578125 
Q 30.03125 56 36.53125 56 
Q 37.453125 56 38.578125 55.875 
Q 39.703125 55.765625 41.0625 55.515625 
z
" id="DejaVuSans-114"/>
      <path d="M 8.5 21.578125 
L 8.5 54.6875 
L 17.484375 54.6875 
L 17.484375 21.921875 
Q 17.484375 14.15625 20.5 10.265625 
Q 23.53125 6.390625 29.59375 6.390625 
Q 36.859375 6.390625 41.078125 11.03125 
Q 45.3125 15.671875 45.3125 23.6875 
L 45.3125 54.6875 
L 54.296875 54.6875 
L 54.296875 0 
L 45.3125 0 
L 45.3125 8.40625 
Q 42.046875 3.421875 37.71875 1 
Q 33.40625 -1.421875 27.6875 -1.421875 
Q 18.265625 -1.421875 13.375 4.4375 
Q 8.5 10.296875 8.5 21.578125 
z
M 31.109375 56 
z
" id="DejaVuSans-117"/>
     </defs>
     <g style="fill:#262626;" transform="translate(28.612219 265.801906)rotate(-90)scale(0.156 -0.156)">
      <use xlink:href="#DejaVuSans-84"/>
      <use x="60.865234" xlink:href="#DejaVuSans-114"/>
      <use x="101.978516" xlink:href="#DejaVuSans-117"/>
      <use x="165.357422" xlink:href="#DejaVuSans-101"/>
      <use x="226.880859" xlink:href="#DejaVuSans-32"/>
      <use x="258.667969" xlink:href="#DejaVuSans-80"/>
      <use x="318.923828" xlink:href="#DejaVuSans-111"/>
      <use x="380.105469" xlink:href="#DejaVuSans-115"/>
      <use x="432.205078" xlink:href="#DejaVuSans-105"/>
      <use x="459.988281" xlink:href="#DejaVuSans-116"/>
      <use x="499.197266" xlink:href="#DejaVuSans-105"/>
      <use x="526.980469" xlink:href="#DejaVuSans-118"/>
      <use x="586.160156" xlink:href="#DejaVuSans-101"/>
      <use x="647.683594" xlink:href="#DejaVuSans-32"/>
      <use x="679.470703" xlink:href="#DejaVuSans-82"/>
      <use x="748.921875" xlink:href="#DejaVuSans-97"/>
      <use x="810.201172" xlink:href="#DejaVuSans-116"/>
      <use x="849.410156" xlink:href="#DejaVuSans-101"/>
     </g>
    </g>
   </g>
   <g id="line2d_1">
    <path clip-path="url(#p9da500fbbf)" d="M 68.098 372.652 
L 68.098 341.275986 
L 72.653073 341.275986 
L 72.653073 338.138384 
L 74.930609 338.138384 
L 74.930609 335.000783 
L 79.485682 335.000783 
L 79.485682 320.881577 
L 81.763218 320.881577 
L 81.763218 319.312776 
L 84.040754 319.312776 
L 84.040754 314.606374 
L 86.318291 314.606374 
L 86.318291 311.468772 
L 88.595827 311.468772 
L 88.595827 306.76237 
L 90.873363 306.76237 
L 90.873363 305.19357 
L 95.428436 305.19357 
L 95.428436 303.624769 
L 97.705972 303.624769 
L 97.705972 295.780765 
L 99.983508 295.780765 
L 99.983508 291.074363 
L 102.261045 291.074363 
L 102.261045 284.79916 
L 104.538581 284.79916 
L 104.538581 280.092758 
L 109.093654 280.092758 
L 109.093654 278.523958 
L 111.37119 276.955157 
L 111.37119 258.129549 
L 113.648726 258.129549 
L 113.648726 253.423146 
L 115.926263 253.423146 
L 115.926263 251.854346 
L 118.203799 251.854346 
L 118.203799 248.716744 
L 120.481335 248.716744 
L 120.481335 239.30394 
L 122.758872 239.30394 
L 122.758872 237.735139 
L 125.036408 237.735139 
L 125.036408 236.166339 
L 127.313944 236.166339 
L 127.313944 229.891136 
L 129.59148 229.891136 
L 129.59148 226.753534 
L 131.869017 226.753534 
L 131.869017 225.184734 
L 134.146553 225.184734 
L 134.146553 223.615933 
L 140.979162 223.615933 
L 140.979162 218.909531 
L 143.256698 218.909531 
L 143.256698 212.634328 
L 150.089307 212.634328 
L 150.089307 211.065527 
L 152.366844 211.065527 
L 152.366844 209.496727 
L 156.921916 209.496727 
L 156.921916 206.359125 
L 161.476989 206.359125 
L 161.476989 204.790325 
L 163.754525 204.790325 
L 163.754525 201.652723 
L 166.032061 201.652723 
L 166.032061 200.083922 
L 168.309598 200.083922 
L 168.309598 196.946321 
L 172.86467 196.946321 
L 172.86467 195.37752 
L 177.419743 195.37752 
L 177.419743 190.671118 
L 181.974816 190.671118 
L 181.974816 187.533517 
L 184.252352 187.533517 
L 184.252352 185.964716 
L 186.529888 185.964716 
L 186.529888 181.258314 
L 193.362497 181.258314 
L 193.362497 179.689513 
L 195.640034 179.689513 
L 195.640034 178.120713 
L 204.750179 178.120713 
L 204.750179 170.276709 
L 207.027715 170.276709 
L 207.027715 167.139108 
L 213.860324 167.139108 
L 213.860324 162.432705 
L 218.415397 162.432705 
L 218.415397 157.726303 
L 220.692933 157.726303 
L 220.692933 149.8823 
L 225.248006 149.8823 
L 225.248006 148.313499 
L 227.525542 148.313499 
L 227.525542 145.175898 
L 229.803078 145.175898 
L 229.803078 143.607097 
L 234.358151 143.607097 
L 234.358151 142.038296 
L 243.468296 142.038296 
L 243.468296 140.469496 
L 245.745832 140.469496 
L 245.745832 137.331894 
L 248.023369 137.331894 
L 248.023369 129.487891 
L 263.966123 129.487891 
L 263.966123 127.91909 
L 266.243659 127.91909 
L 266.243659 123.212688 
L 268.521196 123.212688 
L 268.521196 115.368684 
L 273.076268 115.368684 
L 273.076268 113.799884 
L 279.908877 113.799884 
L 279.908877 110.662282 
L 282.186413 109.093481 
L 282.186413 104.387079 
L 284.46395 104.387079 
L 284.46395 91.836674 
L 289.019022 91.836674 
L 289.019022 88.699072 
L 295.851631 88.699072 
L 295.851631 85.561471 
L 314.071922 85.561471 
L 314.071922 82.423869 
L 325.459603 82.423869 
L 325.459603 79.286268 
L 330.014676 79.286268 
L 330.014676 77.717467 
L 334.569749 77.717467 
L 334.569749 76.148667 
L 343.679894 76.148667 
L 343.679894 74.579866 
L 345.95743 74.579866 
L 345.95743 73.011065 
L 350.512503 73.011065 
L 350.512503 69.873464 
L 355.067575 69.873464 
L 355.067575 68.304663 
L 371.01033 68.304663 
L 371.01033 66.735862 
L 382.398011 66.735862 
L 382.398011 63.598261 
L 384.675547 63.598261 
L 384.675547 60.46066 
L 386.953084 60.46066 
L 386.953084 57.323058 
L 389.23062 57.323058 
L 389.23062 55.754257 
L 402.895838 55.754257 
L 402.895838 49.479055 
L 405.173374 49.479055 
L 405.173374 46.341453 
L 407.450911 46.341453 
L 407.450911 44.772653 
L 430.226274 44.772653 
L 430.226274 43.203852 
L 464.389318 43.203852 
L 464.389318 41.635051 
L 468.944391 41.635051 
L 468.944391 40.06625 
L 471.221927 40.06625 
L 471.221927 38.49745 
L 475.777 33.791048 
L 475.777 33.791048 
" style="fill:none;stroke:#377eb8;stroke-linecap:round;stroke-width:1.5;"/>
   </g>
   <g id="line2d_2">
    <path clip-path="url(#p9da500fbbf)" d="M 68.098 372.652 
L 68.098 352.257591 
L 70.375536 352.257591 
L 70.375536 350.68879 
L 72.653073 350.68879 
L 72.653073 342.844787 
L 77.208145 342.844787 
L 77.208145 331.863182 
L 79.485682 331.863182 
L 79.485682 330.294381 
L 84.040754 330.294381 
L 84.040754 325.587979 
L 86.318291 325.587979 
L 86.318291 320.881577 
L 88.595827 320.881577 
L 88.595827 311.468772 
L 90.873363 311.468772 
L 90.873363 302.055968 
L 93.150899 302.055968 
L 93.150899 298.918367 
L 97.705972 298.918367 
L 97.705972 291.074363 
L 99.983508 291.074363 
L 99.983508 270.679954 
L 102.261045 270.679954 
L 102.261045 261.26715 
L 104.538581 261.26715 
L 104.538581 248.716744 
L 106.816117 248.716744 
L 106.816117 245.579143 
L 118.203799 245.579143 
L 118.203799 239.30394 
L 120.481335 239.30394 
L 120.481335 237.735139 
L 122.758872 237.735139 
L 122.758872 236.166339 
L 127.313944 236.166339 
L 127.313944 229.891136 
L 129.59148 229.891136 
L 129.59148 220.478332 
L 131.869017 220.478332 
L 131.869017 218.909531 
L 134.146553 218.909531 
L 134.146553 217.34073 
L 136.424089 217.34073 
L 136.424089 215.771929 
L 138.701626 215.771929 
L 138.701626 211.065527 
L 145.534235 211.065527 
L 145.534235 209.496727 
L 147.811771 209.496727 
L 147.811771 207.927926 
L 150.089307 207.927926 
L 150.089307 206.359125 
L 152.366844 206.359125 
L 152.366844 203.221524 
L 154.64438 203.221524 
L 154.64438 201.652723 
L 156.921916 201.652723 
L 156.921916 198.515122 
L 161.476989 198.515122 
L 161.476989 193.80872 
L 163.754525 193.80872 
L 163.754525 192.239919 
L 168.309598 192.239919 
L 168.309598 190.671118 
L 175.142207 190.671118 
L 175.142207 189.102317 
L 179.697279 189.102317 
L 179.697279 187.533517 
L 181.974816 187.533517 
L 181.974816 184.395915 
L 184.252352 184.395915 
L 184.252352 181.258314 
L 186.529888 181.258314 
L 186.529888 178.120713 
L 188.807425 178.120713 
L 188.807425 174.983111 
L 191.084961 174.983111 
L 191.084961 165.570307 
L 195.640034 165.570307 
L 195.640034 162.432705 
L 202.472642 162.432705 
L 202.472642 159.295104 
L 204.750179 159.295104 
L 204.750179 156.157503 
L 209.305251 156.157503 
L 209.305251 154.588702 
L 213.860324 154.588702 
L 213.860324 153.019901 
L 216.13786 153.019901 
L 216.13786 151.451101 
L 220.692933 151.451101 
L 220.692933 149.8823 
L 222.970469 149.8823 
L 222.970469 146.744698 
L 225.248006 146.744698 
L 225.248006 138.900695 
L 227.525542 138.900695 
L 227.525542 135.763093 
L 232.080615 135.763093 
L 232.080615 134.194293 
L 234.358151 134.194293 
L 234.358151 129.487891 
L 241.19076 129.487891 
L 241.19076 113.799884 
L 243.468296 113.799884 
L 243.468296 112.231083 
L 245.745832 112.231083 
L 245.745832 109.093481 
L 248.023369 109.093481 
L 248.023369 107.524681 
L 250.300905 107.524681 
L 250.300905 105.95588 
L 254.855978 105.95588 
L 254.855978 104.387079 
L 259.41105 104.387079 
L 259.41105 102.818279 
L 266.243659 102.818279 
L 266.243659 99.680677 
L 277.631341 99.680677 
L 277.631341 98.111877 
L 279.908877 98.111877 
L 279.908877 96.543076 
L 282.186413 96.543076 
L 282.186413 93.405474 
L 284.46395 93.405474 
L 284.46395 91.836674 
L 291.296559 91.836674 
L 291.296559 87.130272 
L 298.129168 87.130272 
L 298.129168 83.99267 
L 302.68424 83.99267 
L 302.68424 79.286268 
L 325.459603 79.286268 
L 325.459603 74.579866 
L 327.73714 74.579866 
L 327.73714 69.873464 
L 334.569749 69.873464 
L 334.569749 68.304663 
L 345.95743 68.304663 
L 345.95743 66.735862 
L 355.067575 66.735862 
L 355.067575 63.598261 
L 359.622648 63.598261 
L 359.622648 62.02946 
L 361.900184 62.02946 
L 361.900184 57.323058 
L 364.177721 57.323058 
L 364.177721 55.754257 
L 368.732793 55.754257 
L 368.732793 52.616656 
L 371.01033 52.616656 
L 371.01033 51.047855 
L 373.287866 51.047855 
L 373.287866 47.910254 
L 377.842939 47.910254 
L 377.842939 44.772653 
L 396.063229 44.772653 
L 396.063229 43.203852 
L 427.948737 43.203852 
L 427.948737 41.635051 
L 430.226274 41.635051 
L 430.226274 40.06625 
L 437.058883 40.06625 
L 437.058883 38.49745 
L 462.111782 38.49745 
L 462.111782 36.928649 
L 466.666855 36.928649 
L 466.666855 35.359848 
L 468.944391 35.359848 
L 468.944391 33.791048 
L 475.777 33.791048 
L 475.777 33.791048 
" style="fill:none;stroke:#4daf4a;stroke-linecap:round;stroke-width:1.5;"/>
   </g>
   <g id="line2d_3">
    <path clip-path="url(#p9da500fbbf)" d="M 68.098 372.652 
L 68.098 349.119989 
L 70.375536 345.982388 
L 70.375536 333.431982 
L 74.930609 333.431982 
L 74.930609 331.863182 
L 77.208145 331.863182 
L 77.208145 328.72558 
L 79.485682 328.72558 
L 79.485682 316.175175 
L 81.763218 316.175175 
L 81.763218 300.487168 
L 84.040754 298.918367 
L 84.040754 291.074363 
L 86.318291 291.074363 
L 86.318291 281.661559 
L 88.595827 281.661559 
L 88.595827 273.817556 
L 90.873363 273.817556 
L 90.873363 258.129549 
L 95.428436 258.129549 
L 95.428436 236.166339 
L 97.705972 236.166339 
L 97.705972 233.028737 
L 99.983508 233.028737 
L 99.983508 222.047132 
L 102.261045 222.047132 
L 102.261045 220.478332 
L 104.538581 220.478332 
L 104.538581 215.771929 
L 106.816117 214.203129 
L 106.816117 195.37752 
L 109.093654 195.37752 
L 109.093654 182.827115 
L 111.37119 182.827115 
L 111.37119 167.139108 
L 113.648726 167.139108 
L 113.648726 165.570307 
L 115.926263 165.570307 
L 118.203799 164.001506 
L 118.203799 154.588702 
L 122.758872 154.588702 
L 122.758872 151.451101 
L 125.036408 151.451101 
L 125.036408 140.469496 
L 127.313944 137.331894 
L 131.869017 137.331894 
L 131.869017 135.763093 
L 134.146553 135.763093 
L 134.146553 129.487891 
L 143.256698 129.487891 
L 143.256698 127.91909 
L 150.089307 127.91909 
L 150.089307 124.781489 
L 181.974816 124.781489 
L 181.974816 123.212688 
L 197.91757 123.212688 
L 197.91757 120.075086 
L 204.750179 120.075086 
L 204.750179 118.506286 
L 207.027715 118.506286 
L 209.305251 116.937485 
L 209.305251 113.799884 
L 211.582788 113.799884 
L 211.582788 112.231083 
L 225.248006 112.231083 
L 225.248006 110.662282 
L 227.525542 110.662282 
L 227.525542 109.093481 
L 229.803078 109.093481 
L 229.803078 104.387079 
L 234.358151 104.387079 
L 234.358151 102.818279 
L 236.635687 102.818279 
L 236.635687 101.249478 
L 243.468296 101.249478 
L 243.468296 99.680677 
L 250.300905 99.680677 
L 250.300905 93.405474 
L 263.966123 93.405474 
L 263.966123 91.836674 
L 268.521196 91.836674 
L 268.521196 90.267873 
L 275.353804 90.267873 
L 275.353804 88.699072 
L 277.631341 88.699072 
L 277.631341 87.130272 
L 282.186413 87.130272 
L 282.186413 83.99267 
L 291.296559 83.99267 
L 291.296559 82.423869 
L 307.239313 82.423869 
L 307.239313 80.855069 
L 309.516849 80.855069 
L 309.516849 79.286268 
L 316.349458 79.286268 
L 316.349458 76.148667 
L 327.73714 76.148667 
L 327.73714 69.873464 
L 332.292212 69.873464 
L 332.292212 66.735862 
L 350.512503 66.735862 
L 350.512503 65.167062 
L 357.345112 65.167062 
L 357.345112 57.323058 
L 361.900184 57.323058 
L 361.900184 55.754257 
L 380.120475 55.754257 
L 380.120475 54.185457 
L 407.450911 54.185457 
L 407.450911 52.616656 
L 421.116128 52.616656 
L 421.116128 51.047855 
L 437.058883 51.047855 
L 437.058883 49.479055 
L 446.169028 49.479055 
L 446.169028 41.635051 
L 455.279173 41.635051 
L 455.279173 38.49745 
L 473.499464 38.49745 
L 473.499464 35.359848 
L 475.777 35.359848 
L 475.777 33.791048 
L 475.777 33.791048 
" style="fill:none;stroke:#984ea3;stroke-linecap:round;stroke-width:1.5;"/>
   </g>
   <g id="line2d_4">
    <path clip-path="url(#p9da500fbbf)" d="M 68.098 372.652 
L 475.777 33.791048 
" style="fill:none;stroke:#000080;stroke-dasharray:5.55,2.4;stroke-dashoffset:0;stroke-width:1.5;"/>
   </g>
   <g id="patch_3">
    <path d="M 68.098 372.652 
L 68.098 16.848 
" style="fill:none;stroke:#262626;stroke-linecap:square;stroke-linejoin:miter;stroke-width:1.25;"/>
   </g>
   <g id="patch_4">
    <path d="M 475.777 372.652 
L 475.777 16.848 
" style="fill:none;stroke:#262626;stroke-linecap:square;stroke-linejoin:miter;stroke-width:1.25;"/>
   </g>
   <g id="patch_5">
    <path d="M 68.098 372.652 
L 475.777 372.652 
" style="fill:none;stroke:#262626;stroke-linecap:square;stroke-linejoin:miter;stroke-width:1.25;"/>
   </g>
   <g id="patch_6">
    <path d="M 68.098 16.848 
L 475.777 16.848 
" style="fill:none;stroke:#262626;stroke-linecap:square;stroke-linejoin:miter;stroke-width:1.25;"/>
   </g>
   <g id="legend_1">
    <g id="patch_7">
     <path d="M 151.663031 365.502 
L 465.767 365.502 
Q 468.627 365.502 468.627 362.642 
L 468.627 301.102844 
Q 468.627 298.242844 465.767 298.242844 
L 151.663031 298.242844 
Q 148.803031 298.242844 148.803031 301.102844 
L 148.803031 362.642 
Q 148.803031 365.502 151.663031 365.502 
z
" style="fill:#ffffff;opacity:0.8;stroke:#cccccc;stroke-linejoin:miter;"/>
    </g>
    <g id="line2d_5">
     <path d="M 154.523031 309.823609 
L 183.123031 309.823609 
" style="fill:none;stroke:#377eb8;stroke-linecap:round;stroke-width:1.5;"/>
    </g>
    <g id="line2d_6"/>
    <g id="text_15">
     <!-- ROC curve of AttentiveFP (AUC: 0.70) -->
     <defs>
      <path d="M 39.40625 66.21875 
Q 28.65625 66.21875 22.328125 58.203125 
Q 16.015625 50.203125 16.015625 36.375 
Q 16.015625 22.609375 22.328125 14.59375 
Q 28.65625 6.59375 39.40625 6.59375 
Q 50.140625 6.59375 56.421875 14.59375 
Q 62.703125 22.609375 62.703125 36.375 
Q 62.703125 50.203125 56.421875 58.203125 
Q 50.140625 66.21875 39.40625 66.21875 
z
M 39.40625 74.21875 
Q 54.734375 74.21875 63.90625 63.9375 
Q 73.09375 53.65625 73.09375 36.375 
Q 73.09375 19.140625 63.90625 8.859375 
Q 54.734375 -1.421875 39.40625 -1.421875 
Q 24.03125 -1.421875 14.8125 8.828125 
Q 5.609375 19.09375 5.609375 36.375 
Q 5.609375 53.65625 14.8125 63.9375 
Q 24.03125 74.21875 39.40625 74.21875 
z
" id="DejaVuSans-79"/>
      <path d="M 64.40625 67.28125 
L 64.40625 56.890625 
Q 59.421875 61.53125 53.78125 63.8125 
Q 48.140625 66.109375 41.796875 66.109375 
Q 29.296875 66.109375 22.65625 58.46875 
Q 16.015625 50.828125 16.015625 36.375 
Q 16.015625 21.96875 22.65625 14.328125 
Q 29.296875 6.6875 41.796875 6.6875 
Q 48.140625 6.6875 53.78125 8.984375 
Q 59.421875 11.28125 64.40625 15.921875 
L 64.40625 5.609375 
Q 59.234375 2.09375 53.4375 0.328125 
Q 47.65625 -1.421875 41.21875 -1.421875 
Q 24.65625 -1.421875 15.125 8.703125 
Q 5.609375 18.84375 5.609375 36.375 
Q 5.609375 53.953125 15.125 64.078125 
Q 24.65625 74.21875 41.21875 74.21875 
Q 47.75 74.21875 53.53125 72.484375 
Q 59.328125 70.75 64.40625 67.28125 
z
" id="DejaVuSans-67"/>
      <path d="M 48.78125 52.59375 
L 48.78125 44.1875 
Q 44.96875 46.296875 41.140625 47.34375 
Q 37.3125 48.390625 33.40625 48.390625 
Q 24.65625 48.390625 19.8125 42.84375 
Q 14.984375 37.3125 14.984375 27.296875 
Q 14.984375 17.28125 19.8125 11.734375 
Q 24.65625 6.203125 33.40625 6.203125 
Q 37.3125 6.203125 41.140625 7.25 
Q 44.96875 8.296875 48.78125 10.40625 
L 48.78125 2.09375 
Q 45.015625 0.34375 40.984375 -0.53125 
Q 36.96875 -1.421875 32.421875 -1.421875 
Q 20.0625 -1.421875 12.78125 6.34375 
Q 5.515625 14.109375 5.515625 27.296875 
Q 5.515625 40.671875 12.859375 48.328125 
Q 20.21875 56 33.015625 56 
Q 37.15625 56 41.109375 55.140625 
Q 45.0625 54.296875 48.78125 52.59375 
z
" id="DejaVuSans-99"/>
      <path d="M 37.109375 75.984375 
L 37.109375 68.5 
L 28.515625 68.5 
Q 23.6875 68.5 21.796875 66.546875 
Q 19.921875 64.59375 19.921875 59.515625 
L 19.921875 54.6875 
L 34.71875 54.6875 
L 34.71875 47.703125 
L 19.921875 47.703125 
L 19.921875 0 
L 10.890625 0 
L 10.890625 47.703125 
L 2.296875 47.703125 
L 2.296875 54.6875 
L 10.890625 54.6875 
L 10.890625 58.5 
Q 10.890625 67.625 15.140625 71.796875 
Q 19.390625 75.984375 28.609375 75.984375 
z
" id="DejaVuSans-102"/>
      <path d="M 34.1875 63.1875 
L 20.796875 26.90625 
L 47.609375 26.90625 
z
M 28.609375 72.90625 
L 39.796875 72.90625 
L 67.578125 0 
L 57.328125 0 
L 50.6875 18.703125 
L 17.828125 18.703125 
L 11.1875 0 
L 0.78125 0 
z
" id="DejaVuSans-65"/>
      <path d="M 54.890625 33.015625 
L 54.890625 0 
L 45.90625 0 
L 45.90625 32.71875 
Q 45.90625 40.484375 42.875 44.328125 
Q 39.84375 48.1875 33.796875 48.1875 
Q 26.515625 48.1875 22.3125 43.546875 
Q 18.109375 38.921875 18.109375 30.90625 
L 18.109375 0 
L 9.078125 0 
L 9.078125 54.6875 
L 18.109375 54.6875 
L 18.109375 46.1875 
Q 21.34375 51.125 25.703125 53.5625 
Q 30.078125 56 35.796875 56 
Q 45.21875 56 50.046875 50.171875 
Q 54.890625 44.34375 54.890625 33.015625 
z
" id="DejaVuSans-110"/>
      <path d="M 31 75.875 
Q 24.46875 64.65625 21.28125 53.65625 
Q 18.109375 42.671875 18.109375 31.390625 
Q 18.109375 20.125 21.3125 9.0625 
Q 24.515625 -2 31 -13.1875 
L 23.1875 -13.1875 
Q 15.875 -1.703125 12.234375 9.375 
Q 8.59375 20.453125 8.59375 31.390625 
Q 8.59375 42.28125 12.203125 53.3125 
Q 15.828125 64.359375 23.1875 75.875 
z
" id="DejaVuSans-40"/>
      <path d="M 8.6875 72.90625 
L 18.609375 72.90625 
L 18.609375 28.609375 
Q 18.609375 16.890625 22.84375 11.734375 
Q 27.09375 6.59375 36.625 6.59375 
Q 46.09375 6.59375 50.34375 11.734375 
Q 54.59375 16.890625 54.59375 28.609375 
L 54.59375 72.90625 
L 64.5 72.90625 
L 64.5 27.390625 
Q 64.5 13.140625 57.4375 5.859375 
Q 50.390625 -1.421875 36.625 -1.421875 
Q 22.796875 -1.421875 15.734375 5.859375 
Q 8.6875 13.140625 8.6875 27.390625 
z
" id="DejaVuSans-85"/>
      <path d="M 11.71875 12.40625 
L 22.015625 12.40625 
L 22.015625 0 
L 11.71875 0 
z
M 11.71875 51.703125 
L 22.015625 51.703125 
L 22.015625 39.3125 
L 11.71875 39.3125 
z
" id="DejaVuSans-58"/>
      <path d="M 8.203125 72.90625 
L 55.078125 72.90625 
L 55.078125 68.703125 
L 28.609375 0 
L 18.3125 0 
L 43.21875 64.59375 
L 8.203125 64.59375 
z
" id="DejaVuSans-55"/>
      <path d="M 8.015625 75.875 
L 15.828125 75.875 
Q 23.140625 64.359375 26.78125 53.3125 
Q 30.421875 42.28125 30.421875 31.390625 
Q 30.421875 20.453125 26.78125 9.375 
Q 23.140625 -1.703125 15.828125 -13.1875 
L 8.015625 -13.1875 
Q 14.5 -2 17.703125 9.0625 
Q 20.90625 20.125 20.90625 31.390625 
Q 20.90625 42.671875 17.703125 53.65625 
Q 14.5 64.65625 8.015625 75.875 
z
" id="DejaVuSans-41"/>
     </defs>
     <g style="fill:#262626;" transform="translate(194.563031 314.828609)scale(0.143 -0.143)">
      <use xlink:href="#DejaVuSans-82"/>
      <use x="69.482422" xlink:href="#DejaVuSans-79"/>
      <use x="148.193359" xlink:href="#DejaVuSans-67"/>
      <use x="218.017578" xlink:href="#DejaVuSans-32"/>
      <use x="249.804688" xlink:href="#DejaVuSans-99"/>
      <use x="304.785156" xlink:href="#DejaVuSans-117"/>
      <use x="368.164062" xlink:href="#DejaVuSans-114"/>
      <use x="409.277344" xlink:href="#DejaVuSans-118"/>
      <use x="468.457031" xlink:href="#DejaVuSans-101"/>
      <use x="529.980469" xlink:href="#DejaVuSans-32"/>
      <use x="561.767578" xlink:href="#DejaVuSans-111"/>
      <use x="622.949219" xlink:href="#DejaVuSans-102"/>
      <use x="658.154297" xlink:href="#DejaVuSans-32"/>
      <use x="689.941406" xlink:href="#DejaVuSans-65"/>
      <use x="758.333984" xlink:href="#DejaVuSans-116"/>
      <use x="797.542969" xlink:href="#DejaVuSans-116"/>
      <use x="836.751953" xlink:href="#DejaVuSans-101"/>
      <use x="898.275391" xlink:href="#DejaVuSans-110"/>
      <use x="961.654297" xlink:href="#DejaVuSans-116"/>
      <use x="1000.863281" xlink:href="#DejaVuSans-105"/>
      <use x="1028.646484" xlink:href="#DejaVuSans-118"/>
      <use x="1087.826172" xlink:href="#DejaVuSans-101"/>
      <use x="1149.349609" xlink:href="#DejaVuSans-70"/>
      <use x="1206.869141" xlink:href="#DejaVuSans-80"/>
      <use x="1267.171875" xlink:href="#DejaVuSans-32"/>
      <use x="1298.958984" xlink:href="#DejaVuSans-40"/>
      <use x="1337.972656" xlink:href="#DejaVuSans-65"/>
      <use x="1406.380859" xlink:href="#DejaVuSans-85"/>
      <use x="1479.574219" xlink:href="#DejaVuSans-67"/>
      <use x="1549.398438" xlink:href="#DejaVuSans-58"/>
      <use x="1583.089844" xlink:href="#DejaVuSans-32"/>
      <use x="1614.876953" xlink:href="#DejaVuSans-48"/>
      <use x="1678.5" xlink:href="#DejaVuSans-46"/>
      <use x="1710.287109" xlink:href="#DejaVuSans-55"/>
      <use x="1773.910156" xlink:href="#DejaVuSans-48"/>
      <use x="1837.533203" xlink:href="#DejaVuSans-41"/>
     </g>
    </g>
    <g id="line2d_7">
     <path d="M 154.523031 330.813328 
L 183.123031 330.813328 
" style="fill:none;stroke:#4daf4a;stroke-linecap:round;stroke-width:1.5;"/>
    </g>
    <g id="line2d_8"/>
    <g id="text_16">
     <!-- ROC curve of DMPNN (AUC: 0.72) -->
     <defs>
      <path d="M 19.671875 64.796875 
L 19.671875 8.109375 
L 31.59375 8.109375 
Q 46.6875 8.109375 53.6875 14.9375 
Q 60.6875 21.78125 60.6875 36.53125 
Q 60.6875 51.171875 53.6875 57.984375 
Q 46.6875 64.796875 31.59375 64.796875 
z
M 9.8125 72.90625 
L 30.078125 72.90625 
Q 51.265625 72.90625 61.171875 64.09375 
Q 71.09375 55.28125 71.09375 36.53125 
Q 71.09375 17.671875 61.125 8.828125 
Q 51.171875 0 30.078125 0 
L 9.8125 0 
z
" id="DejaVuSans-68"/>
      <path d="M 9.8125 72.90625 
L 24.515625 72.90625 
L 43.109375 23.296875 
L 61.8125 72.90625 
L 76.515625 72.90625 
L 76.515625 0 
L 66.890625 0 
L 66.890625 64.015625 
L 48.09375 14.015625 
L 38.1875 14.015625 
L 19.390625 64.015625 
L 19.390625 0 
L 9.8125 0 
z
" id="DejaVuSans-77"/>
      <path d="M 9.8125 72.90625 
L 23.09375 72.90625 
L 55.421875 11.921875 
L 55.421875 72.90625 
L 64.984375 72.90625 
L 64.984375 0 
L 51.703125 0 
L 19.390625 60.984375 
L 19.390625 0 
L 9.8125 0 
z
" id="DejaVuSans-78"/>
     </defs>
     <g style="fill:#262626;" transform="translate(194.563031 335.818328)scale(0.143 -0.143)">
      <use xlink:href="#DejaVuSans-82"/>
      <use x="69.482422" xlink:href="#DejaVuSans-79"/>
      <use x="148.193359" xlink:href="#DejaVuSans-67"/>
      <use x="218.017578" xlink:href="#DejaVuSans-32"/>
      <use x="249.804688" xlink:href="#DejaVuSans-99"/>
      <use x="304.785156" xlink:href="#DejaVuSans-117"/>
      <use x="368.164062" xlink:href="#DejaVuSans-114"/>
      <use x="409.277344" xlink:href="#DejaVuSans-118"/>
      <use x="468.457031" xlink:href="#DejaVuSans-101"/>
      <use x="529.980469" xlink:href="#DejaVuSans-32"/>
      <use x="561.767578" xlink:href="#DejaVuSans-111"/>
      <use x="622.949219" xlink:href="#DejaVuSans-102"/>
      <use x="658.154297" xlink:href="#DejaVuSans-32"/>
      <use x="689.941406" xlink:href="#DejaVuSans-68"/>
      <use x="766.943359" xlink:href="#DejaVuSans-77"/>
      <use x="853.222656" xlink:href="#DejaVuSans-80"/>
      <use x="913.525391" xlink:href="#DejaVuSans-78"/>
      <use x="988.330078" xlink:href="#DejaVuSans-78"/>
      <use x="1063.134766" xlink:href="#DejaVuSans-32"/>
      <use x="1094.921875" xlink:href="#DejaVuSans-40"/>
      <use x="1133.935547" xlink:href="#DejaVuSans-65"/>
      <use x="1202.34375" xlink:href="#DejaVuSans-85"/>
      <use x="1275.537109" xlink:href="#DejaVuSans-67"/>
      <use x="1345.361328" xlink:href="#DejaVuSans-58"/>
      <use x="1379.052734" xlink:href="#DejaVuSans-32"/>
      <use x="1410.839844" xlink:href="#DejaVuSans-48"/>
      <use x="1474.462891" xlink:href="#DejaVuSans-46"/>
      <use x="1506.25" xlink:href="#DejaVuSans-55"/>
      <use x="1569.873047" xlink:href="#DejaVuSans-50"/>
      <use x="1633.496094" xlink:href="#DejaVuSans-41"/>
     </g>
    </g>
    <g id="line2d_9">
     <path d="M 154.523031 351.803047 
L 183.123031 351.803047 
" style="fill:none;stroke:#984ea3;stroke-linecap:round;stroke-width:1.5;"/>
    </g>
    <g id="line2d_10"/>
    <g id="text_17">
     <!-- ROC curve of MMNF (AUC: 0.79) -->
     <defs>
      <path d="M 10.984375 1.515625 
L 10.984375 10.5 
Q 14.703125 8.734375 18.5 7.8125 
Q 22.3125 6.890625 25.984375 6.890625 
Q 35.75 6.890625 40.890625 13.453125 
Q 46.046875 20.015625 46.78125 33.40625 
Q 43.953125 29.203125 39.59375 26.953125 
Q 35.25 24.703125 29.984375 24.703125 
Q 19.046875 24.703125 12.671875 31.3125 
Q 6.296875 37.9375 6.296875 49.421875 
Q 6.296875 60.640625 12.9375 67.421875 
Q 19.578125 74.21875 30.609375 74.21875 
Q 43.265625 74.21875 49.921875 64.515625 
Q 56.59375 54.828125 56.59375 36.375 
Q 56.59375 19.140625 48.40625 8.859375 
Q 40.234375 -1.421875 26.421875 -1.421875 
Q 22.703125 -1.421875 18.890625 -0.6875 
Q 15.09375 0.046875 10.984375 1.515625 
z
M 30.609375 32.421875 
Q 37.25 32.421875 41.125 36.953125 
Q 45.015625 41.5 45.015625 49.421875 
Q 45.015625 57.28125 41.125 61.84375 
Q 37.25 66.40625 30.609375 66.40625 
Q 23.96875 66.40625 20.09375 61.84375 
Q 16.21875 57.28125 16.21875 49.421875 
Q 16.21875 41.5 20.09375 36.953125 
Q 23.96875 32.421875 30.609375 32.421875 
z
" id="DejaVuSans-57"/>
     </defs>
     <g style="fill:#262626;" transform="translate(194.563031 356.808047)scale(0.143 -0.143)">
      <use xlink:href="#DejaVuSans-82"/>
      <use x="69.482422" xlink:href="#DejaVuSans-79"/>
      <use x="148.193359" xlink:href="#DejaVuSans-67"/>
      <use x="218.017578" xlink:href="#DejaVuSans-32"/>
      <use x="249.804688" xlink:href="#DejaVuSans-99"/>
      <use x="304.785156" xlink:href="#DejaVuSans-117"/>
      <use x="368.164062" xlink:href="#DejaVuSans-114"/>
      <use x="409.277344" xlink:href="#DejaVuSans-118"/>
      <use x="468.457031" xlink:href="#DejaVuSans-101"/>
      <use x="529.980469" xlink:href="#DejaVuSans-32"/>
      <use x="561.767578" xlink:href="#DejaVuSans-111"/>
      <use x="622.949219" xlink:href="#DejaVuSans-102"/>
      <use x="658.154297" xlink:href="#DejaVuSans-32"/>
      <use x="689.941406" xlink:href="#DejaVuSans-77"/>
      <use x="776.220703" xlink:href="#DejaVuSans-77"/>
      <use x="862.5" xlink:href="#DejaVuSans-78"/>
      <use x="937.304688" xlink:href="#DejaVuSans-70"/>
      <use x="994.824219" xlink:href="#DejaVuSans-32"/>
      <use x="1026.611328" xlink:href="#DejaVuSans-40"/>
      <use x="1065.625" xlink:href="#DejaVuSans-65"/>
      <use x="1134.033203" xlink:href="#DejaVuSans-85"/>
      <use x="1207.226562" xlink:href="#DejaVuSans-67"/>
      <use x="1277.050781" xlink:href="#DejaVuSans-58"/>
      <use x="1310.742188" xlink:href="#DejaVuSans-32"/>
      <use x="1342.529297" xlink:href="#DejaVuSans-48"/>
      <use x="1406.152344" xlink:href="#DejaVuSans-46"/>
      <use x="1437.939453" xlink:href="#DejaVuSans-55"/>
      <use x="1501.5625" xlink:href="#DejaVuSans-57"/>
      <use x="1565.185547" xlink:href="#DejaVuSans-41"/>
     </g>
    </g>
   </g>
  </g>
 </g>
 <defs>
  <clipPath id="p9da500fbbf">
   <rect height="355.804" width="407.679" x="68.098" y="16.848"/>
  </clipPath>
 </defs>
</svg>
